999
dxfrw 0.6.3
  0
SECTION
  2
HEADER
  9
$ACADVER
  1
AC1021
  9
$DWGCODEPAGE
  3
ANSI_1252
  9
$INSBASE
 10
0
 20
0
 30
0
  9
$EXTMIN
 10
-117
 20
28.91666666666655
 30
0
  9
$EXTMAX
 10
210
 20
200
 30
0
  9
$LIMMIN
 10
0
 20
0
  9
$LIMMAX
 10
420
 20
297
  9
$ORTHOMODE
 70
    0
  9
$REGENMODE
 70
    1
  9
$FILLMODE
 70
    1
  9
$QTEXTMODE
 70
    0
  9
$MIRRTEXT
 70
    0
  9
$LTSCALE
 40
1
  9
$ATTMODE
 70
    0
  9
$TEXTSIZE
 40
2.5
  9
$TRACEWID
 40
15.68
  9
$TEXTSTYLE
  7
STANDARD
  9
$CLAYER
  8
SVP-Export
  9
$CELTYPE
  6
BYLAYER
  9
$CECOLOR
 62
  256
  9
$CELTSCALE
 40
1
  9
$DISPSILH
 70
    0
  9
$DIMSCALE
 40
1
  9
$DIMASZ
 40
2.5
  9
$DIMEXO
 40
0.625
  9
$DIMDLI
 40
3.75
  9
$DIMRND
 40
0
  9
$DIMDLE
 40
0
  9
$DIMEXE
 40
1.25
  9
$DIMTP
 40
0
  9
$DIMTM
 40
0
  9
$DIMTXT
 40
2.5
  9
$DIMCEN
 40
2.5
  9
$DIMTSZ
 40
0
  9
$DIMTOL
 70
    0
  9
$DIMLIM
 70
    0
  9
$DIMTIH
 70
    0
  9
$DIMTOH
 70
    0
  9
$DIMSE1
 70
    0
  9
$DIMSE2
 70
    0
  9
$DIMTAD
 70
    1
  9
$DIMZIN
 70
    8
  9
$DIMBLK
  1

  9
$DIMASO
 70
    1
  9
$DIMSHO
 70
    1
  9
$DIMPOST
  1

  9
$DIMAPOST
  1

  9
$DIMALT
 70
    0
  9
$DIMALTD
 70
    3
  9
$DIMALTF
 40
0.03937
  9
$DIMLFAC
 40
1
  9
$DIMTOFL
 70
    1
  9
$DIMTVP
 40
0
  9
$DIMTIX
 70
    0
  9
$DIMSOXD
 70
    0
  9
$DIMSAH
 70
    0
  9
$DIMBLK1
  1

  9
$DIMBLK2
  1

  9
$DIMSTYLE
  2
STANDARD
  9
$DIMCLRD
 70
    0
  9
$DIMCLRE
 70
    0
  9
$DIMCLRT
 70
    0
  9
$DIMTFAC
 40
1
  9
$DIMGAP
 40
0.625
  9
$DIMJUST
 70
    0
  9
$DIMSD1
 70
    0
  9
$DIMSD2
 70
    0
  9
$DIMTOLJ
 70
    0
  9
$DIMTZIN
 70
    8
  9
$DIMALTZ
 70
    0
  9
$DIMALTTZ
 70
    0
  9
$DIMUPT
 70
    0
  9
$DIMDEC
 70
    4
  9
$DIMTDEC
 70
    2
  9
$DIMALTU
 70
    2
  9
$DIMALTTD
 70
    3
  9
$DIMTXSTY
  7
STANDARD
  9
$DIMAUNIT
 70
    0
  9
$DIMADEC
 70
    2
  9
$DIMALTRND
 40
0
  9
$DIMAZIN
 70
    0
  9
$DIMDSEP
 70
   44
  9
$DIMATFIT
 70
    3
  9
$DIMFRAC
 70
    0
  9
$DIMLDRBLK
  1
STANDARD
  9
$DIMLUNIT
 70
    2
  9
$DIMLWD
 70
   -2
  9
$DIMLWE
 70
   -2
  9
$DIMTMOVE
 70
    0
  9
$DIMFXL
 40
1
  9
$DIMFXLON
 70
    0
  9
$DIMJOGANG
 40
0.7854
  9
$DIMTFILL
 70
    0
  9
$DIMTFILLCLR
 70
    0
  9
$DIMARCSYM
 70
    0
  9
$DIMLTYPE
  6

  9
$DIMLTEX1
  6

  9
$DIMLTEX2
  6

  9
$LUNITS
 70
    2
  9
$LUPREC
 70
    4
  9
$SKETCHINC
 40
1
  9
$FILLETRAD
 40
0
  9
$AUNITS
 70
    0
  9
$AUPREC
 70
    2
  9
$MENU
  1
.
  9
$ELEVATION
 40
0
  9
$PELEVATION
 40
0
  9
$THICKNESS
 40
0
  9
$LIMCHECK
 70
    0
  9
$CHAMFERA
 40
0
  9
$CHAMFERB
 40
0
  9
$CHAMFERC
 40
0
  9
$CHAMFERD
 40
0
  9
$SKPOLY
 70
    0
  9
$USRTIMER
 70
    1
  9
$ANGBASE
 50
0
  9
$ANGDIR
 70
    0
  9
$PDMODE
 70
   34
  9
$PDSIZE
 40
0
  9
$PLINEWID
 40
0
  9
$SPLFRAME
 70
    0
  9
$SPLINETYPE
 70
    2
  9
$SPLINESEGS
 70
    8
  9
$HANDSEED
  5
20000
  9
$SURFTAB1
 70
    6
  9
$SURFTAB2
 70
    6
  9
$SURFTYPE
 70
    6
  9
$SURFU
 70
    6
  9
$SURFV
 70
    6
  9
$UCSBASE
  2

  9
$UCSNAME
  2

  9
$UCSORG
 10
0
 20
0
 30
0
  9
$UCSXDIR
 10
1
 20
0
 30
0
  9
$UCSYDIR
 10
0
 20
1
 30
0
  9
$UCSORTHOREF
  2

  9
$UCSORTHOVIEW
 70
    0
  9
$UCSORGTOP
 10
0
 20
0
 30
0
  9
$UCSORGBOTTOM
 10
0
 20
0
 30
0
  9
$UCSORGLEFT
 10
0
 20
0
 30
0
  9
$UCSORGRIGHT
 10
0
 20
0
 30
0
  9
$UCSORGFRONT
 10
0
 20
0
 30
0
  9
$UCSORGBACK
 10
0
 20
0
 30
0
  9
$PUCSBASE
  2

  9
$PUCSNAME
  2

  9
$PUCSORG
 10
0
 20
0
 30
0
  9
$PUCSXDIR
 10
1
 20
0
 30
0
  9
$PUCSYDIR
 10
0
 20
1
 30
0
  9
$PUCSORTHOREF
  2

  9
$PUCSORTHOVIEW
 70
    0
  9
$PUCSORGTOP
 10
0
 20
0
 30
0
  9
$PUCSORGBOTTOM
 10
0
 20
0
 30
0
  9
$PUCSORGLEFT
 10
0
 20
0
 30
0
  9
$PUCSORGRIGHT
 10
0
 20
0
 30
0
  9
$PUCSORGFRONT
 10
0
 20
0
 30
0
  9
$PUCSORGBACK
 10
0
 20
0
 30
0
  9
$USERI1
 70
    0
  9
$USERI2
 70
    0
  9
$USERI3
 70
    0
  9
$USERI4
 70
    0
  9
$USERI5
 70
    0
  9
$USERR1
 40
0
  9
$USERR2
 40
0
  9
$USERR3
 40
0
  9
$USERR4
 40
0
  9
$USERR5
 40
0
  9
$WORLDVIEW
 70
    1
  9
$SHADEDGE
 70
    3
  9
$SHADEDIF
 70
   70
  9
$TILEMODE
 70
    1
  9
$MAXACTVP
 70
   64
  9
$PINSBASE
 10
69.1902669271
 20
-11.8594292535
 30
0
  9
$PLIMCHECK
 70
    0
  9
$PEXTMIN
 10
0
 20
0
 30
0
  9
$PEXTMAX
 10
0
 20
0
 30
0
  9
$GRIDMODE
 70
    1
  9
$SNAPSTYLE
 70
    0
  9
$GRIDUNIT
 10
0
 20
0
  9
$PLIMMIN
 10
0
 20
0
  9
$PLIMMAX
 10
297
 20
210
  9
$UNITMODE
 70
    0
  9
$VISRETAIN
 70
    1
  9
$PLINEGEN
 70
    0
  9
$PSLTSCALE
 70
    1
  9
$TREEDEPTH
 70
 3020
  9
$CMLSTYLE
  2
Standard
  9
$CMLJUST
 70
    0
  9
$CMLSCALE
 40
20
  9
$PROXYGRAPHICS
 70
    1
  9
$MEASUREMENT
 70
    1
  9
$CELWEIGHT
370
   -1
  9
$ENDCAPS
280
    0
  9
$JOINSTYLE
280
    0
  9
$LWDISPLAY
290
    0
  9
$INSUNITS
 70
    4
  9
$HYPERLINKBASE
  1

  9
$STYLESHEET
  1

  9
$XEDIT
290
    1
  9
$CEPSNTYPE
380
    0
  9
$PSTYLEMODE
290
    1
  9
$EXTNAMES
290
    1
  9
$PSVPSCALE
 40
1.25
  9
$OLESTARTUP
290
    0
  9
$SORTENTS
280
  127
  9
$INDEXCTL
280
    0
  9
$HIDETEXT
280
    1
  9
$XCLIPFRAME
290
    0
  9
$HALOGAP
280
    0
  9
$OBSCOLOR
 70
  257
  9
$OBSLTYPE
280
    0
  9
$INTERSECTIONDISPLAY
280
    0
  9
$INTERSECTIONCOLOR
 70
  257
  9
$DIMASSOC
280
    1
  9
$PROJECTNAME
  1

  9
$CAMERADISPLAY
290
    0
  9
$LENSLENGTH
 40
50
  9
$CAMERAHEIGHT
 40
0
  9
$STEPSPERSEC
 40
2
  9
$STEPSIZE
 40
50
  9
$3DDWFPREC
 40
2
  9
$PSOLWIDTH
 40
5
  9
$PSOLHEIGHT
 40
80
  9
$LOFTANG1
 40
1.570796326794897
  9
$LOFTANG2
 40
1.570796326794897
  9
$LOFTMAG1
 40
0
  9
$LOFTMAG2
 40
0
  9
$LOFTPARAM
 70
    7
  9
$LOFTNORMALS
280
    1
  9
$LATITUDE
 40
1
  9
$LONGITUDE
 40
1
  9
$NORTHDIRECTION
 40
0
  9
$TIMEZONE
 70
-8000
  9
$LIGHTGLYPHDISPLAY
280
    1
  9
$TILEMODELIGHTSYNCH
280
    1
  9
$SOLIDHIST
280
    1
  9
$SHOWHIST
280
    1
  9
$DWFFRAME
280
    2
  9
$DGNFRAME
280
    0
  9
$REALWORLDSCALE
290
    1
  9
$INTERFERECOLOR
 62
    1
  9
$CSHADOW
280
    0
  9
$SHADOWPLANELOCATION
 40
0
  0
ENDSEC
  0
SECTION
  2
CLASSES
  0
ENDSEC
  0
SECTION
  2
TABLES
  0
TABLE
  2
VPORT
  5
8
330
0
100
AcDbSymbolTable
 70
    1
  0
VPORT
  5
31
330
2
100
AcDbSymbolTableRecord
100
AcDbViewportTableRecord
  2
*ACTIVE
 70
    0
 10
0
 20
0
 11
1
 21
1
 12
105.9369034994698
 22
108.0174973488865
 13
0
 23
0
 14
10
 24
10
 15
10
 25
10
 16
0
 26
0
 36
1
 17
0
 27
0
 37
0
 40
203.2046659597031
 41
1.626279863481229
 42
50
 43
0
 44
0
 50
0
 51
0
 71
    0
 72
  100
 73
    1
 74
    3
 75
    0
 76
    1
 77
    0
 78
    0
281
    0
 65
    1
110
0
120
0
130
0
111
1
121
0
131
0
112
0
122
1
132
0
 79
    0
146
0
348
10020
 60
    7
 61
    5
292
1
282
    1
141
0
142
0
 63
  250
421
3358443
  0
ENDTAB
  0
TABLE
  2
LTYPE
  5
5
330
0
100
AcDbSymbolTable
 70
    4
  0
LTYPE
  5
14
330
5
100
AcDbSymbolTableRecord
100
AcDbLinetypeTableRecord
  2
ByBlock
 70
    0
  3

 72
   65
 73
    0
 40
0
  0
LTYPE
  5
15
330
5
100
AcDbSymbolTableRecord
100
AcDbLinetypeTableRecord
  2
ByLayer
 70
    0
  3

 72
   65
 73
    0
 40
0
  0
LTYPE
  5
16
330
5
100
AcDbSymbolTableRecord
100
AcDbLinetypeTableRecord
  2
Continuous
 70
    0
  3
Solid line
 72
   65
 73
    0
 40
0
  0
LTYPE
  5
32
330
5
100
AcDbSymbolTableRecord
100
AcDbLinetypeTableRecord
  2
DOT
 70
    0
  3
Dot . . . . . . . . . . . . . . . . . . . . . .
 72
   65
 73
    2
 40
6.35
 49
0
 74
    0
 49
-6.35
 74
    0
  0
LTYPE
  5
33
330
5
100
AcDbSymbolTableRecord
100
AcDbLinetypeTableRecord
  2
DOTTINY
 70
    0
  3
Dot (.15x) .....................................
 72
   65
 73
    2
 40
0.9525
 49
0
 74
    0
 49
-0.9525
 74
    0
  0
LTYPE
  5
34
330
5
100
AcDbSymbolTableRecord
100
AcDbLinetypeTableRecord
  2
DOT2
 70
    0
  3
Dot (.5x) .....................................
 72
   65
 73
    2
 40
3.175
 49
0
 74
    0
 49
-3.175
 74
    0
  0
LTYPE
  5
35
330
5
100
AcDbSymbolTableRecord
100
AcDbLinetypeTableRecord
  2
DOTX2
 70
    0
  3
Dot (2x) .  .  .  .  .  .  .  .  .  .  .  .  .
 72
   65
 73
    2
 40
12.7
 49
0
 74
    0
 49
-12.7
 74
    0
  0
LTYPE
  5
36
330
5
100
AcDbSymbolTableRecord
100
AcDbLinetypeTableRecord
  2
DASHED
 70
    0
  3
Dashed _ _ _ _ _ _ _ _ _ _ _ _ _ _ _ _ _
 72
   65
 73
    2
 40
19.05
 49
12.7
 74
    0
 49
-6.35
 74
    0
  0
LTYPE
  5
37
330
5
100
AcDbSymbolTableRecord
100
AcDbLinetypeTableRecord
  2
DASHEDTINY
 70
    0
  3
Dashed (.15x) _ _ _ _ _ _ _ _ _ _ _ _ _ _ _ _ _
 72
   65
 73
    2
 40
2.8575
 49
1.905
 74
    0
 49
-0.9525
 74
    0
  0
LTYPE
  5
38
330
5
100
AcDbSymbolTableRecord
100
AcDbLinetypeTableRecord
  2
DASHED2
 70
    0
  3
Dashed (.5x) _ _ _ _ _ _ _ _ _ _ _ _ _ _ _ _ _
 72
   65
 73
    2
 40
9.524999999999999
 49
6.35
 74
    0
 49
-3.175
 74
    0
  0
LTYPE
  5
39
330
5
100
AcDbSymbolTableRecord
100
AcDbLinetypeTableRecord
  2
DASHEDX2
 70
    0
  3
Dashed (2x) ____  ____  ____  ____  ____  ___
 72
   65
 73
    2
 40
38.09999999999999
 49
25.4
 74
    0
 49
-12.7
 74
    0
  0
LTYPE
  5
3A
330
5
100
AcDbSymbolTableRecord
100
AcDbLinetypeTableRecord
  2
DASHDOT
 70
    0
  3
Dash dot __ . __ . __ . __ . __ . __ . __ . __
 72
   65
 73
    4
 40
25.4
 49
12.7
 74
    0
 49
-6.35
 74
    0
 49
0
 74
    0
 49
-6.35
 74
    0
  0
LTYPE
  5
3B
330
5
100
AcDbSymbolTableRecord
100
AcDbLinetypeTableRecord
  2
DASHDOTTINY
 70
    0
  3
Dash dot (.15x) _._._._._._._._._._._._._._._.
 72
   65
 73
    4
 40
3.81
 49
1.905
 74
    0
 49
-0.9525
 74
    0
 49
0
 74
    0
 49
-0.9525
 74
    0
  0
LTYPE
  5
3C
330
5
100
AcDbSymbolTableRecord
100
AcDbLinetypeTableRecord
  2
DASHDOT2
 70
    0
  3
Dash dot (.5x) _._._._._._._._._._._._._._._.
 72
   65
 73
    4
 40
12.7
 49
6.35
 74
    0
 49
-3.175
 74
    0
 49
0
 74
    0
 49
-3.175
 74
    0
  0
LTYPE
  5
3D
330
5
100
AcDbSymbolTableRecord
100
AcDbLinetypeTableRecord
  2
DASHDOTX2
 70
    0
  3
Dash dot (2x) ____  .  ____  .  ____  .  ___
 72
   65
 73
    4
 40
50.8
 49
25.4
 74
    0
 49
-12.7
 74
    0
 49
0
 74
    0
 49
-12.7
 74
    0
  0
LTYPE
  5
3E
330
5
100
AcDbSymbolTableRecord
100
AcDbLinetypeTableRecord
  2
DIVIDE
 70
    0
  3
Divide ____ . . ____ . . ____ . . ____ . . ____
 72
   65
 73
    6
 40
31.75
 49
12.7
 74
    0
 49
-6.35
 74
    0
 49
0
 74
    0
 49
-6.35
 74
    0
 49
0
 74
    0
 49
-6.35
 74
    0
  0
LTYPE
  5
3F
330
5
100
AcDbSymbolTableRecord
100
AcDbLinetypeTableRecord
  2
DIVIDETINY
 70
    0
  3
Divide (.15x) __..__..__..__..__..__..__..__.._
 72
   65
 73
    6
 40
4.7625
 49
1.905
 74
    0
 49
-0.9525
 74
    0
 49
0
 74
    0
 49
-0.9525
 74
    0
 49
0
 74
    0
 49
-0.9525
 74
    0
  0
LTYPE
  5
40
330
5
100
AcDbSymbolTableRecord
100
AcDbLinetypeTableRecord
  2
DIVIDE2
 70
    0
  3
Divide (.5x) __..__..__..__..__..__..__..__.._
 72
   65
 73
    6
 40
15.875
 49
6.35
 74
    0
 49
-3.175
 74
    0
 49
0
 74
    0
 49
-3.175
 74
    0
 49
0
 74
    0
 49
-3.175
 74
    0
  0
LTYPE
  5
41
330
5
100
AcDbSymbolTableRecord
100
AcDbLinetypeTableRecord
  2
DIVIDEX2
 70
    0
  3
Divide (2x) ________  .  .  ________  .  .  _
 72
   65
 73
    6
 40
63.5
 49
25.4
 74
    0
 49
-12.7
 74
    0
 49
0
 74
    0
 49
-12.7
 74
    0
 49
0
 74
    0
 49
-12.7
 74
    0
  0
LTYPE
  5
42
330
5
100
AcDbSymbolTableRecord
100
AcDbLinetypeTableRecord
  2
BORDER
 70
    0
  3
Border __ __ . __ __ . __ __ . __ __ . __ __ .
 72
   65
 73
    6
 40
44.45
 49
12.7
 74
    0
 49
-6.35
 74
    0
 49
12.7
 74
    0
 49
-6.35
 74
    0
 49
0
 74
    0
 49
-6.35
 74
    0
  0
LTYPE
  5
43
330
5
100
AcDbSymbolTableRecord
100
AcDbLinetypeTableRecord
  2
BORDERTINY
 70
    0
  3
Border (.15x) __.__.__.__.__.__.__.__.__.__.__.
 72
   65
 73
    6
 40
6.6675
 49
1.905
 74
    0
 49
-0.9525
 74
    0
 49
1.905
 74
    0
 49
-0.9525
 74
    0
 49
0
 74
    0
 49
-0.9525
 74
    0
  0
LTYPE
  5
44
330
5
100
AcDbSymbolTableRecord
100
AcDbLinetypeTableRecord
  2
BORDER2
 70
    0
  3
Border (.5x) __.__.__.__.__.__.__.__.__.__.__.
 72
   65
 73
    6
 40
22.225
 49
6.35
 74
    0
 49
-3.175
 74
    0
 49
6.35
 74
    0
 49
-3.175
 74
    0
 49
0
 74
    0
 49
-3.175
 74
    0
  0
LTYPE
  5
45
330
5
100
AcDbSymbolTableRecord
100
AcDbLinetypeTableRecord
  2
BORDERX2
 70
    0
  3
Border (2x) ____  ____  .  ____  ____  .  ___
 72
   65
 73
    6
 40
88.89999999999999
 49
25.4
 74
    0
 49
-12.7
 74
    0
 49
25.4
 74
    0
 49
-12.7
 74
    0
 49
0
 74
    0
 49
-12.7
 74
    0
  0
LTYPE
  5
46
330
5
100
AcDbSymbolTableRecord
100
AcDbLinetypeTableRecord
  2
CENTER
 70
    0
  3
Center ____ _ ____ _ ____ _ ____ _ ____ _ ____
 72
   65
 73
    4
 40
50.8
 49
31.75
 74
    0
 49
-6.35
 74
    0
 49
6.35
 74
    0
 49
-6.35
 74
    0
  0
LTYPE
  5
47
330
5
100
AcDbSymbolTableRecord
100
AcDbLinetypeTableRecord
  2
CENTERTINY
 70
    0
  3
Center (.15x) ___ _ ___ _ ___ _ ___ _ ___ _ ___
 72
   65
 73
    4
 40
7.619999999999999
 49
4.7625
 74
    0
 49
-0.9525
 74
    0
 49
0.9525
 74
    0
 49
-0.9525
 74
    0
  0
LTYPE
  5
48
330
5
100
AcDbSymbolTableRecord
100
AcDbLinetypeTableRecord
  2
CENTER2
 70
    0
  3
Center (.5x) ___ _ ___ _ ___ _ ___ _ ___ _ ___
 72
   65
 73
    4
 40
28.575
 49
19.05
 74
    0
 49
-3.175
 74
    0
 49
3.175
 74
    0
 49
-3.175
 74
    0
  0
LTYPE
  5
49
330
5
100
AcDbSymbolTableRecord
100
AcDbLinetypeTableRecord
  2
CENTERX2
 70
    0
  3
Center (2x) ________  __  ________  __  _____
 72
   65
 73
    4
 40
101.6
 49
63.5
 74
    0
 49
-12.7
 74
    0
 49
12.7
 74
    0
 49
-12.7
 74
    0
  0
ENDTAB
  0
TABLE
  2
LAYER
  5
2
330
0
100
AcDbSymbolTable
 70
    1
  0
LAYER
  5
10
330
2
100
AcDbSymbolTableRecord
100
AcDbLayerTableRecord
  2
0
 70
    0
 62
    7
  6
CONTINUOUS
370
    0
390
F
  0
LAYER
  5
4A
330
2
100
AcDbSymbolTableRecord
100
AcDbLayerTableRecord
  2
Dateien_etc
 70
    0
 62
    1
  6
CONTINUOUS
370
   35
390
F
  0
LAYER
  5
4B
330
2
100
AcDbSymbolTableRecord
100
AcDbLayerTableRecord
  2
Firewall
 70
    0
 62
    1
  6
CONTINUOUS
370
   50
390
F
  0
LAYER
  5
4C
330
2
100
AcDbSymbolTableRecord
100
AcDbLayerTableRecord
  2
Firewall2
 70
    0
 62
    6
  6
CONTINUOUS
370
   50
390
F
  0
LAYER
  5
4D
330
2
100
AcDbSymbolTableRecord
100
AcDbLayerTableRecord
  2
SVP-Export
 70
    0
 62
    4
  6
CONTINUOUS
370
   50
390
F
  0
LAYER
  5
4E
330
2
100
AcDbSymbolTableRecord
100
AcDbLayerTableRecord
  2
Samba Fileserver
 70
    0
 62
    6
  6
CONTINUOUS
370
   50
390
F
  0
LAYER
  5
4F
330
2
100
AcDbSymbolTableRecord
100
AcDbLayerTableRecord
  2
Samba-AD - System
 70
    0
 62
    4
  6
CONTINUOUS
370
   50
390
F
  0
LAYER
  5
50
330
2
100
AcDbSymbolTableRecord
100
AcDbLayerTableRecord
  2
Schulen
 70
    0
 62
    2
  6
CONTINUOUS
370
   50
390
F
  0
LAYER
  5
51
330
2
100
AcDbSymbolTableRecord
100
AcDbLayerTableRecord
  2
Server mit LDAP
 70
    0
 62
  216
420
8388736
  6
CONTINUOUS
370
   50
390
F
  0
LAYER
  5
52
330
2
100
AcDbSymbolTableRecord
100
AcDbLayerTableRecord
  2
Server ohne LDAP2
 70
    0
 62
   96
420
32768
  6
CONTINUOUS
370
   50
390
F
  0
LAYER
  5
53
330
2
100
AcDbSymbolTableRecord
100
AcDbLayerTableRecord
  2
check-result
 70
    0
 62
    6
  6
CONTINUOUS
370
   35
390
F
  0
LAYER
  5
54
330
2
100
AcDbSymbolTableRecord
100
AcDbLayerTableRecord
  2
sophomorix-check
 70
    0
 62
   96
420
32768
  6
CONTINUOUS
370
   35
390
F
  0
LAYER
  5
55
330
2
100
AcDbSymbolTableRecord
100
AcDbLayerTableRecord
  2
sophomorix-device
 70
    0
 62
    3
  6
CONTINUOUS
370
   35
390
F
  0
LAYER
  5
56
330
2
100
AcDbSymbolTableRecord
100
AcDbLayerTableRecord
  2
sophomorix-newfile
 70
    0
 62
    6
  6
CONTINUOUS
370
   35
390
F
  0
LAYER
  5
57
330
2
100
AcDbSymbolTableRecord
100
AcDbLayerTableRecord
  2
update-add-move-kill
 70
    0
 62
    1
  6
CONTINUOUS
370
   35
390
F
  0
ENDTAB
  0
TABLE
  2
STYLE
  5
3
330
0
100
AcDbSymbolTable
 70
    3
  0
STYLE
  5
58
330
2
100
AcDbSymbolTableRecord
100
AcDbTextStyleTableRecord
  2
iso
 70
    0
 40
0
 41
1
 50
0
 71
    0
 42
1
  3
iso
  4

  0
STYLE
  5
59
330
2
100
AcDbSymbolTableRecord
100
AcDbTextStyleTableRecord
  2
Standard
 70
    0
 40
0
 41
1
 50
0
 71
    0
 42
1
  3
txt
  4

  0
ENDTAB
  0
TABLE
  2
VIEW
  5
6
330
0
100
AcDbSymbolTable
 70
    0
  0
ENDTAB
  0
TABLE
  2
UCS
  5
7
330
0
100
AcDbSymbolTable
 70
    0
  0
ENDTAB
  0
TABLE
  2
APPID
  5
9
330
0
100
AcDbSymbolTable
 70
    1
  0
APPID
  5
12
330
9
100
AcDbSymbolTableRecord
100
AcDbRegAppTableRecord
  2
ACAD
 70
    0
  0
APPID
  5
5A
330
9
100
AcDbSymbolTableRecord
100
AcDbRegAppTableRecord
  2
LibreCad
 70
    0
  0
ENDTAB
  0
TABLE
  2
DIMSTYLE
  5
A
330
0
100
AcDbSymbolTable
 70
    1
100
AcDbDimStyleTable
 71
    1
  0
DIMSTYLE
105
5B
330
A
100
AcDbSymbolTableRecord
100
AcDbDimStyleTableRecord
  2
Standard
 70
    0
 40
1
 41
2.5
 42
0.625
 43
0.38
 44
1.25
 45
0
 46
0
 47
0
 48
0
 49
1
140
2.5
141
0.09
142
0
143
25.4
144
1
145
0
146
1
147
0.625
148
0
 71
    0
 72
    0
 73
    0
 74
    1
 75
    0
 76
    0
 77
    0
 78
    8
 79
    0
170
    0
171
    2
172
    0
173
    0
174
    0
175
    0
176
    0
177
    0
178
    0
179
    2
271
    4
272
    4
273
    2
274
    2
275
    0
276
    0
277
    2
278
   44
279
    0
280
    0
281
    0
282
    0
283
    1
284
    0
285
    0
286
    0
288
    0
289
    3
340
STANDARD
341

371
   -2
372
   -2
  0
ENDTAB
  0
TABLE
  2
BLOCK_RECORD
  5
1
330
0
100
AcDbSymbolTable
 70
    2
  0
BLOCK_RECORD
  5
1F
330
1
100
AcDbSymbolTableRecord
100
AcDbBlockTableRecord
  2
*Model_Space
 70
    0
280
    1
281
    0
  0
BLOCK_RECORD
  5
1E
330
1
100
AcDbSymbolTableRecord
100
AcDbBlockTableRecord
  2
*Paper_Space
 70
    0
280
    1
281
    0
  0
ENDTAB
  0
ENDSEC
  0
SECTION
  2
BLOCKS
  0
BLOCK
  5
20
330
1F
100
AcDbEntity
  8
0
100
AcDbBlockBegin
  2
*Model_Space
 70
    0
 10
0
 20
0
 30
0
  3
*Model_Space
  1

  0
ENDBLK
  5
21
330
1F
100
AcDbEntity
  8
0
100
AcDbBlockEnd
  0
BLOCK
  5
1C
330
1B
100
AcDbEntity
  8
0
100
AcDbBlockBegin
  2
*Paper_Space
 70
    0
 10
0
 20
0
 30
0
  3
*Paper_Space
  1

  0
ENDBLK
  5
1D
330
1F
100
AcDbEntity
  8
0
100
AcDbBlockEnd
  0
ENDSEC
  0
SECTION
  2
ENTITIES
  0
LINE
  5
5C
100
AcDbEntity
  8
Dateien_etc
  6
ByLayer
 62
  256
370
   -1
100
AcDbLine
 10
5
 20
126
 11
35
 21
126
  0
LINE
  5
5D
100
AcDbEntity
  8
Dateien_etc
  6
ByLayer
 62
  256
370
   -1
100
AcDbLine
 10
5
 20
120
 11
35
 21
120
  0
LINE
  5
5E
100
AcDbEntity
  8
Dateien_etc
  6
ByLayer
 62
  256
370
   -1
100
AcDbLine
 10
5
 20
120
 11
5
 21
126
  0
LINE
  5
5F
100
AcDbEntity
  8
Dateien_etc
  6
ByLayer
 62
  256
370
   -1
100
AcDbLine
 10
35
 20
126
 11
35
 21
120
  0
LINE
  5
60
100
AcDbEntity
  8
Dateien_etc
  6
ByLayer
 62
  256
370
   -1
100
AcDbLine
 10
5
 20
118
 11
35
 21
118
  0
LINE
  5
61
100
AcDbEntity
  8
Dateien_etc
  6
ByLayer
 62
  256
370
   -1
100
AcDbLine
 10
5
 20
112
 11
35
 21
112
  0
LINE
  5
62
100
AcDbEntity
  8
Dateien_etc
  6
ByLayer
 62
  256
370
   -1
100
AcDbLine
 10
5
 20
112
 11
5
 21
118
  0
LINE
  5
63
100
AcDbEntity
  8
Dateien_etc
  6
ByLayer
 62
  256
370
   -1
100
AcDbLine
 10
35
 20
118
 11
35
 21
112
  0
LINE
  5
64
100
AcDbEntity
  8
Dateien_etc
  6
ByLayer
 62
  256
370
   -1
100
AcDbLine
 10
5
 20
110
 11
35
 21
110
  0
LINE
  5
65
100
AcDbEntity
  8
Dateien_etc
  6
ByLayer
 62
  256
370
   -1
100
AcDbLine
 10
5
 20
104
 11
35
 21
104
  0
LINE
  5
66
100
AcDbEntity
  8
Dateien_etc
  6
ByLayer
 62
  256
370
   -1
100
AcDbLine
 10
5
 20
104
 11
5
 21
110
  0
LINE
  5
67
100
AcDbEntity
  8
Dateien_etc
  6
ByLayer
 62
  256
370
   -1
100
AcDbLine
 10
35
 20
110
 11
35
 21
104
  0
LINE
  5
68
100
AcDbEntity
  8
Dateien_etc
  6
ByLayer
 62
  256
370
   -1
100
AcDbLine
 10
5
 20
102
 11
35
 21
102
  0
LINE
  5
69
100
AcDbEntity
  8
Dateien_etc
  6
ByLayer
 62
  256
370
   -1
100
AcDbLine
 10
5
 20
96
 11
35
 21
96
  0
LINE
  5
6A
100
AcDbEntity
  8
Dateien_etc
  6
ByLayer
 62
  256
370
   -1
100
AcDbLine
 10
5
 20
96
 11
5
 21
102
  0
LINE
  5
6B
100
AcDbEntity
  8
Dateien_etc
  6
ByLayer
 62
  256
370
   -1
100
AcDbLine
 10
35
 20
102
 11
35
 21
96
  0
LINE
  5
6C
100
AcDbEntity
  8
Dateien_etc
  6
ByLayer
 62
  256
370
   -1
100
AcDbLine
 10
0
 20
134
 11
35
 21
134
  0
LINE
  5
6D
100
AcDbEntity
  8
Dateien_etc
  6
ByLayer
 62
  256
370
   -1
100
AcDbLine
 10
35
 20
134
 11
35
 21
128
  0
LINE
  5
6E
100
AcDbEntity
  8
Dateien_etc
  6
ByLayer
 62
  256
370
   -1
100
AcDbLine
 10
35
 20
128
 11
0
 21
128
  0
LINE
  5
6F
100
AcDbEntity
  8
Dateien_etc
  6
ByLayer
 62
  256
370
   -1
100
AcDbLine
 10
0
 20
128
 11
0
 21
134
  0
LINE
  5
70
100
AcDbEntity
  8
Dateien_etc
  6
ByLayer
 62
  256
370
   -1
100
AcDbLine
 10
35
 20
144
 11
35
 21
138
  0
LINE
  5
71
100
AcDbEntity
  8
Schulen
  6
ByLayer
 62
  256
370
   -1
100
AcDbLine
 10
-3
 20
141
 11
-3
 21
141
  0
MTEXT
  5
72
100
AcDbEntity
  8
Dateien_etc
  6
ByLayer
 62
  256
370
   -1
100
AcDbMText
 10
20
 20
123
 30
0
 40
2
 41
16.44520844564256
 71
    5
 72
    1
  1
students.csv
  7
iso
210
0
220
0
230
1
 50
0
 73
    2
 44
1
  0
MTEXT
  5
73
100
AcDbEntity
  8
Dateien_etc
  6
ByLayer
 62
  256
370
   -1
100
AcDbMText
 10
20
 20
107
 30
0
 40
2
 41
23.77778086350125
 71
    5
 72
    1
  1
extrastudents.csv
  7
iso
210
0
220
0
230
1
 50
0
 73
    2
 44
1
  0
MTEXT
  5
74
100
AcDbEntity
  8
Dateien_etc
  6
ByLayer
 62
  256
370
   -1
100
AcDbMText
 10
20
 20
99
 30
0
 40
2
 41
21.77778189207564
 71
    5
 72
    1
  1
extraclasses.csv
  7
iso
210
0
220
0
230
1
 50
0
 73
    2
 44
1
  0
LINE
  5
75
100
AcDbEntity
  8
Dateien_etc
  6
ByLayer
 62
  256
370
   -1
100
AcDbLine
 10
5
 20
94
 11
35
 21
94
  0
LINE
  5
76
100
AcDbEntity
  8
Dateien_etc
  6
ByLayer
 62
  256
370
   -1
100
AcDbLine
 10
5
 20
88
 11
35
 21
88
  0
LINE
  5
77
100
AcDbEntity
  8
Dateien_etc
  6
ByLayer
 62
  256
370
   -1
100
AcDbLine
 10
5
 20
88
 11
5
 21
94
  0
LINE
  5
78
100
AcDbEntity
  8
Dateien_etc
  6
ByLayer
 62
  256
370
   -1
100
AcDbLine
 10
35
 20
94
 11
35
 21
88
  0
MTEXT
  5
79
100
AcDbEntity
  8
Dateien_etc
  6
ByLayer
 62
  256
370
   -1
100
AcDbMText
 10
20
 20
91
 30
0
 40
2
 41
14.22222427937111
 71
    5
 72
    1
  1
devices.csv
  7
iso
210
0
220
0
230
1
 50
0
 73
    2
 44
1
  0
LINE
  5
7A
100
AcDbEntity
  8
Dateien_etc
  6
ByLayer
 62
  256
370
   -1
100
AcDbLine
 10
0
 20
84
 11
35
 21
84
  0
LINE
  5
7B
100
AcDbEntity
  8
Dateien_etc
  6
ByLayer
 62
  256
370
   -1
100
AcDbLine
 10
35
 20
84
 11
35
 21
78
  0
LINE
  5
7C
100
AcDbEntity
  8
Dateien_etc
  6
ByLayer
 62
  256
370
   -1
100
AcDbLine
 10
35
 20
78
 11
0
 21
78
  0
LINE
  5
7D
100
AcDbEntity
  8
Dateien_etc
  6
ByLayer
 62
  256
370
   -1
100
AcDbLine
 10
0
 20
78
 11
0
 21
84
  0
LINE
  5
7E
100
AcDbEntity
  8
Dateien_etc
  6
ByLayer
 62
  256
370
   -1
100
AcDbLine
 10
5
 20
76
 11
35
 21
76
  0
LINE
  5
7F
100
AcDbEntity
  8
Dateien_etc
  6
ByLayer
 62
  256
370
   -1
100
AcDbLine
 10
5
 20
70
 11
35
 21
70
  0
LINE
  5
80
100
AcDbEntity
  8
Dateien_etc
  6
ByLayer
 62
  256
370
   -1
100
AcDbLine
 10
5
 20
70
 11
5
 21
76
  0
LINE
  5
81
100
AcDbEntity
  8
Dateien_etc
  6
ByLayer
 62
  256
370
   -1
100
AcDbLine
 10
35
 20
76
 11
35
 21
70
  0
LINE
  5
82
100
AcDbEntity
  8
Dateien_etc
  6
ByLayer
 62
  256
370
   -1
100
AcDbLine
 10
5
 20
68
 11
35
 21
68
  0
LINE
  5
83
100
AcDbEntity
  8
Dateien_etc
  6
ByLayer
 62
  256
370
   -1
100
AcDbLine
 10
5
 20
62
 11
35
 21
62
  0
LINE
  5
84
100
AcDbEntity
  8
Dateien_etc
  6
ByLayer
 62
  256
370
   -1
100
AcDbLine
 10
5
 20
62
 11
5
 21
68
  0
LINE
  5
85
100
AcDbEntity
  8
Dateien_etc
  6
ByLayer
 62
  256
370
   -1
100
AcDbLine
 10
35
 20
68
 11
35
 21
62
  0
LINE
  5
86
100
AcDbEntity
  8
Dateien_etc
  6
ByLayer
 62
  256
370
   -1
100
AcDbLine
 10
5
 20
60
 11
35
 21
60
  0
LINE
  5
87
100
AcDbEntity
  8
Dateien_etc
  6
ByLayer
 62
  256
370
   -1
100
AcDbLine
 10
5
 20
54
 11
35
 21
54
  0
LINE
  5
88
100
AcDbEntity
  8
Dateien_etc
  6
ByLayer
 62
  256
370
   -1
100
AcDbLine
 10
5
 20
54
 11
5
 21
60
  0
LINE
  5
89
100
AcDbEntity
  8
Dateien_etc
  6
ByLayer
 62
  256
370
   -1
100
AcDbLine
 10
35
 20
60
 11
35
 21
54
  0
LINE
  5
8A
100
AcDbEntity
  8
Dateien_etc
  6
ByLayer
 62
  256
370
   -1
100
AcDbLine
 10
5
 20
52
 11
35
 21
52
  0
LINE
  5
8B
100
AcDbEntity
  8
Dateien_etc
  6
ByLayer
 62
  256
370
   -1
100
AcDbLine
 10
5
 20
46
 11
35
 21
46
  0
LINE
  5
8C
100
AcDbEntity
  8
Dateien_etc
  6
ByLayer
 62
  256
370
   -1
100
AcDbLine
 10
5
 20
46
 11
5
 21
52
  0
LINE
  5
8D
100
AcDbEntity
  8
Dateien_etc
  6
ByLayer
 62
  256
370
   -1
100
AcDbLine
 10
35
 20
52
 11
35
 21
46
  0
LINE
  5
8E
100
AcDbEntity
  8
Schulen
  6
ByLayer
 62
  256
370
   -1
100
AcDbLine
 10
36
 20
85
 11
36
 21
85
  0
LINE
  5
8F
100
AcDbEntity
  8
Schulen
  6
ByLayer
 62
  256
370
   -1
100
AcDbLine
 10
36
 20
45
 11
36
 21
45
  0
LINE
  5
90
100
AcDbEntity
  8
Schulen
  6
ByLayer
 62
  256
370
   -1
100
AcDbLine
 10
36
 20
45
 11
36
 21
85
  0
MTEXT
  5
91
100
AcDbEntity
  8
Dateien_etc
  6
ByLayer
 62
  256
370
   -1
100
AcDbMText
 10
20
 20
73
 30
0
 40
2
 41
20.88889197461233
 71
    5
 72
    1
  1
ltg.students.csv
  7
iso
210
0
220
0
230
1
 50
0
 73
    2
 44
1
  0
MTEXT
  5
92
100
AcDbEntity
  8
Dateien_etc
  6
ByLayer
 62
  256
370
   -1
100
AcDbMText
 10
20
 20
65
 30
0
 40
2
 41
20.6666687238158
 71
    5
 72
    1
  1
ltg.teachers.csv
  7
iso
210
0
220
0
230
1
 50
0
 73
    2
 44
1
  0
MTEXT
  5
93
100
AcDbEntity
  8
Dateien_etc
  6
ByLayer
 62
  256
370
   -1
100
AcDbMText
 10
20
 20
57
 30
0
 40
2
 41
28.22222530794576
 71
    5
 72
    1
  1
ltg.extrastudents.csv
  7
iso
210
0
220
0
230
1
 50
0
 73
    2
 44
1
  0
MTEXT
  5
94
100
AcDbEntity
  8
Dateien_etc
  6
ByLayer
 62
  256
370
   -1
100
AcDbMText
 10
20
 20
49
 30
0
 40
2
 41
26.22222633652015
 71
    5
 72
    1
  1
ltg.extraclasses.csv
  7
iso
210
0
220
0
230
1
 50
0
 73
    2
 44
1
  0
MTEXT
  5
95
100
AcDbEntity
  8
Dateien_etc
  6
ByLayer
 62
  256
370
   -1
100
AcDbMText
 10
18
 20
81
 30
0
 40
2
 41
18.6666676952414
 71
    5
 72
    1
  1
ltg.school.conf
  7
iso
210
0
220
0
230
1
 50
0
 73
    2
 44
1
  0
LINE
  5
96
100
AcDbEntity
  8
Dateien_etc
  6
ByLayer
 62
  256
370
   -1
100
AcDbLine
 10
5
 20
44
 11
35
 21
44
  0
LINE
  5
97
100
AcDbEntity
  8
Dateien_etc
  6
ByLayer
 62
  256
370
   -1
100
AcDbLine
 10
5
 20
38
 11
35
 21
38
  0
LINE
  5
98
100
AcDbEntity
  8
Dateien_etc
  6
ByLayer
 62
  256
370
   -1
100
AcDbLine
 10
5
 20
38
 11
5
 21
44
  0
LINE
  5
99
100
AcDbEntity
  8
Dateien_etc
  6
ByLayer
 62
  256
370
   -1
100
AcDbLine
 10
35
 20
44
 11
35
 21
38
  0
LINE
  5
9A
100
AcDbEntity
  8
Schulen
  6
ByLayer
 62
  256
370
   -1
100
AcDbLine
 10
36
 20
85
 11
36
 21
37
  0
LINE
  5
9B
100
AcDbEntity
  8
Schulen
  6
ByLayer
 62
  256
370
   -1
100
AcDbLine
 10
36
 20
135
 11
36
 21
87
  0
MTEXT
  5
9C
100
AcDbEntity
  8
Dateien_etc
  6
ByLayer
 62
  256
370
   -1
100
AcDbMText
 10
18
 20
131
 30
0
 40
2
 41
14.22298416627163
 71
    5
 72
    1
  1
school.conf
  7
iso
210
0
220
0
230
1
 50
0
 73
    2
 44
1
  0
MTEXT
  5
9D
100
AcDbEntity
  8
Dateien_etc
  6
ByLayer
 62
  256
370
   -1
100
AcDbMText
 10
11
 20
141
 30
0
 40
2
 41
20.66742861071617
 71
    5
 72
    1
  1
sophomorix.conf
  7
iso
210
0
220
0
230
1
 50
0
 73
    2
 44
1
  0
MTEXT
  5
9E
100
AcDbEntity
  8
Schulen
  6
ByLayer
 62
  256
370
   35
100
AcDbMText
 10
-2
 20
91
 30
0
 40
2
 41
22.61111111111164
 71
    4
 72
    1
  1
Definiert Dateien
  7
iso
210
0
220
0
230
1
 50
90
 73
    2
 44
1
  0
MTEXT
  5
9F
100
AcDbEntity
  8
Schulen
  6
ByLayer
 62
  256
370
   35
100
AcDbMText
 10
-2
 20
41
 30
0
 40
2
 41
22.61111111111164
 71
    4
 72
    1
  1
Definiert Dateien
  7
iso
210
0
220
0
230
1
 50
90
 73
    2
 44
1
  0
LINE
  5
A0
100
AcDbEntity
  8
sophomorix-device
  6
ByLayer
 62
  256
370
   -1
100
AcDbLine
 10
40
 20
91
 11
36
 21
91
  0
LINE
  5
A1
100
AcDbEntity
  8
sophomorix-device
  6
ByLayer
 62
  256
370
   -1
100
AcDbLine
 10
40
 20
41
 11
36
 21
41
  0
LINE
  5
A2
100
AcDbEntity
  8
sophomorix-check
  6
ByLayer
 62
  256
370
   -1
100
AcDbLine
 10
38
 20
49
 11
36
 21
49
  0
LINE
  5
A3
100
AcDbEntity
  8
sophomorix-check
  6
ByLayer
 62
  256
370
   -1
100
AcDbLine
 10
38
 20
57
 11
36
 21
57
  0
LINE
  5
A4
100
AcDbEntity
  8
sophomorix-check
  6
ByLayer
 62
  256
370
   -1
100
AcDbLine
 10
36
 20
73
 11
38
 21
73
  0
LINE
  5
A5
100
AcDbEntity
  8
sophomorix-check
  6
ByLayer
 62
  256
370
   -1
100
AcDbLine
 10
35
 20
99
 11
38
 21
99
  0
LINE
  5
A6
100
AcDbEntity
  8
sophomorix-check
  6
ByLayer
 62
  256
370
   -1
100
AcDbLine
 10
35
 20
107
 11
38
 21
107
  0
LINE
  5
A7
100
AcDbEntity
  8
sophomorix-check
  6
ByLayer
 62
  256
370
   -1
100
AcDbLine
 10
35
 20
115
 11
38
 21
115
  0
LINE
  5
A8
100
AcDbEntity
  8
sophomorix-check
  6
ByLayer
 62
  256
370
   -1
100
AcDbLine
 10
35
 20
123
 11
38
 21
123
  0
LINE
  5
A9
100
AcDbEntity
  8
sophomorix-check
  6
ByLayer
 62
  256
370
   -1
100
AcDbLine
 10
38
 20
90
 11
38
 21
49
  0
LINE
  5
AA
100
AcDbEntity
  8
sophomorix-check
  6
ByLayer
 62
  256
370
   -1
100
AcDbLine
 10
38
 20
65
 11
36
 21
65
  0
MTEXT
  5
AB
100
AcDbEntity
  8
Dateien_etc
  6
ByLayer
 62
  256
370
   -1
100
AcDbMText
 10
20
 20
41
 30
0
 40
2
 41
18.66666872381562
 71
    5
 72
    1
  1
ltg.devices.csv
  7
iso
210
0
220
0
230
1
 50
0
 73
    2
 44
1
  0
LINE
  5
AC
100
AcDbEntity
  8
Dateien_etc
  6
ByLayer
 62
  256
370
   -1
100
AcDbLine
 10
-5
 20
144
 11
-5
 21
138
  0
LINE
  5
AD
100
AcDbEntity
  8
Schulen
  6
ByLayer
 62
  256
370
   -1
100
AcDbLine
 10
-5
 20
141
 11
-10
 21
141
  0
LINE
  5
AE
100
AcDbEntity
  8
Dateien_etc
  6
ByLayer
 62
  256
370
   -1
100
AcDbLine
 10
-5
 20
144
 11
35
 21
144
  0
LINE
  5
AF
100
AcDbEntity
  8
Dateien_etc
  6
ByLayer
 62
  256
370
   -1
100
AcDbLine
 10
-5
 20
138
 11
35
 21
138
  0
LINE
  5
B0
100
AcDbEntity
  8
Schulen
  6
ByLayer
 62
  256
370
   -1
100
AcDbLine
 10
-6
 20
135
 11
36
 21
135
  0
LINE
  5
B1
100
AcDbEntity
  8
Schulen
  6
ByLayer
 62
  256
370
   -1
100
AcDbLine
 10
36
 20
87
 11
-6
 21
87
  0
LINE
  5
B2
100
AcDbEntity
  8
Schulen
  6
ByLayer
 62
  256
370
   -1
100
AcDbLine
 10
-6
 20
85
 11
36
 21
85
  0
LINE
  5
B3
100
AcDbEntity
  8
Schulen
  6
ByLayer
 62
  256
370
   -1
100
AcDbLine
 10
36
 20
37
 11
-6
 21
37
  0
MTEXT
  5
B4
100
AcDbEntity
  8
Schulen
  6
ByLayer
 62
  256
370
   35
100
AcDbMText
 10
-13
 20
102
 30
0
 40
2
 41
22.83333290932944
 71
    6
 72
    1
  1
Definiert Schulen
  7
iso
210
0
220
0
230
1
 50
90
 73
    2
 44
1
  0
LINE
  5
B5
100
AcDbEntity
  8
Schulen
  6
ByLayer
 62
  256
370
   -1
100
AcDbLine
 10
-10
 20
111
 11
-6
 21
111
  0
LINE
  5
B6
100
AcDbEntity
  8
Schulen
  6
ByLayer
 62
  256
370
   -1
100
AcDbLine
 10
-10
 20
61
 11
-6
 21
61
  0
MTEXT
  5
B7
100
AcDbEntity
  8
Schulen
  6
ByLayer
 62
  256
370
   35
100
AcDbMText
 10
-12
 20
111
 30
0
 40
2
 41
19.11111213968579
 71
    6
 72
    1
  1
default-school
  7
iso
210
0
220
0
230
1
 50
0
 73
    2
 44
1
  0
MTEXT
  5
B8
100
AcDbEntity
  8
Schulen
  6
ByLayer
 62
  256
370
   35
100
AcDbMText
 10
-12
 20
61
 30
0
 40
2
 41
16.16666624266255
 71
    6
 72
    1
  1
Schule "ltg"
  7
iso
210
0
220
0
230
1
 50
0
 73
    2
 44
1
  0
LINE
  5
B9
100
AcDbEntity
  8
sophomorix-check
  6
ByLayer
 62
  256
370
   -1
100
AcDbLine
 10
59
 20
38
 11
51
 21
38
  0
LINE
  5
BA
100
AcDbEntity
  8
sophomorix-check
  6
ByLayer
 62
  256
370
   -1
100
AcDbLine
 10
51
 20
108
 11
59
 21
108
  0
LINE
  5
BB
100
AcDbEntity
  8
sophomorix-check
  6
ByLayer
 62
  256
370
   -1
100
AcDbLine
 10
51
 20
38
 11
51
 21
108
  0
LINE
  5
BC
100
AcDbEntity
  8
sophomorix-check
  6
ByLayer
 62
  256
370
   -1
100
AcDbLine
 10
59
 20
38
 11
59
 21
108
  0
MTEXT
  5
BD
100
AcDbEntity
  8
sophomorix-check
  6
ByLayer
 62
  256
370
   -1
100
AcDbMText
 10
45
 20
31
 30
0
 40
2.5
 41
20.55555555555556
 71
    5
 72
    1
  1
report.office
  7
iso
210
0
220
0
230
1
 50
0
 73
    2
 44
1
  0
LINE
  5
BE
100
AcDbEntity
  8
sophomorix-check
  6
ByLayer
 62
  256
370
   -1
100
AcDbLine
 10
45
 20
35
 11
44
 21
38
  0
LINE
  5
BF
100
AcDbEntity
  8
sophomorix-check
  6
ByLayer
 62
  256
370
   -1
100
AcDbLine
 10
44
 20
38
 11
46
 21
38
  0
LINE
  5
C0
100
AcDbEntity
  8
sophomorix-check
  6
ByLayer
 62
  256
370
   -1
100
AcDbLine
 10
46
 20
38
 11
45
 21
35
  0
LINE
  5
C1
100
AcDbEntity
  8
Samba-AD - System
  6
ByLayer
 62
  256
370
   -1
100
AcDbLine
 10
122
 20
37
 11
112
 21
37
  0
LINE
  5
C2
100
AcDbEntity
  8
Samba-AD - System
  6
ByLayer
 62
  256
370
   -1
100
AcDbLine
 10
112
 20
144
 11
122
 21
144
  0
LINE
  5
C3
100
AcDbEntity
  8
Samba-AD - System
  6
ByLayer
 62
  256
370
   -1
100
AcDbLine
 10
112
 20
37
 11
112
 21
144
  0
LINE
  5
C4
100
AcDbEntity
  8
Samba-AD - System
  6
ByLayer
 62
  256
370
   -1
100
AcDbLine
 10
122
 20
144
 11
122
 21
37
  0
LINE
  5
C5
100
AcDbEntity
  8
sophomorix-check
  6
ByLayer
 62
  256
370
   -1
100
AcDbLine
 10
51
 20
94
 11
48
 21
95
  0
LINE
  5
C6
100
AcDbEntity
  8
sophomorix-check
  6
ByLayer
 62
  256
370
   -1
100
AcDbLine
 10
48
 20
95
 11
48
 21
93
  0
LINE
  5
C7
100
AcDbEntity
  8
sophomorix-check
  6
ByLayer
 62
  256
370
   -1
100
AcDbLine
 10
48
 20
93
 11
51
 21
94
  0
LINE
  5
C8
100
AcDbEntity
  8
sophomorix-check
  6
ByLayer
 62
  256
370
   -1
100
AcDbLine
 10
51
 20
60
 11
48
 21
61
  0
LINE
  5
C9
100
AcDbEntity
  8
sophomorix-check
  6
ByLayer
 62
  256
370
   -1
100
AcDbLine
 10
48
 20
61
 11
48
 21
59
  0
LINE
  5
CA
100
AcDbEntity
  8
sophomorix-check
  6
ByLayer
 62
  256
370
   -1
100
AcDbLine
 10
48
 20
59
 11
51
 21
60
  0
LINE
  5
CB
100
AcDbEntity
  8
Schulen
  6
ByLayer
 62
  256
370
   -1
100
AcDbLine
 10
1
 20
123
 11
5
 21
123
  0
LINE
  5
CC
100
AcDbEntity
  8
Schulen
  6
ByLayer
 62
  256
370
   -1
100
AcDbLine
 10
5
 20
115
 11
1
 21
115
  0
LINE
  5
CD
100
AcDbEntity
  8
Schulen
  6
ByLayer
 62
  256
370
   -1
100
AcDbLine
 10
5
 20
107
 11
1
 21
107
  0
LINE
  5
CE
100
AcDbEntity
  8
Schulen
  6
ByLayer
 62
  256
370
   -1
100
AcDbLine
 10
5
 20
99
 11
1
 21
99
  0
LINE
  5
CF
100
AcDbEntity
  8
Schulen
  6
ByLayer
 62
  256
370
   -1
100
AcDbLine
 10
1
 20
91
 11
5
 21
91
  0
LINE
  5
D0
100
AcDbEntity
  8
Schulen
  6
ByLayer
 62
  256
370
   -1
100
AcDbLine
 10
5
 20
73
 11
1
 21
73
  0
LINE
  5
D1
100
AcDbEntity
  8
Schulen
  6
ByLayer
 62
  256
370
   -1
100
AcDbLine
 10
5
 20
65
 11
1
 21
65
  0
LINE
  5
D2
100
AcDbEntity
  8
Schulen
  6
ByLayer
 62
  256
370
   -1
100
AcDbLine
 10
5
 20
57
 11
1
 21
57
  0
LINE
  5
D3
100
AcDbEntity
  8
Schulen
  6
ByLayer
 62
  256
370
   -1
100
AcDbLine
 10
5
 20
49
 11
1
 21
49
  0
LINE
  5
D4
100
AcDbEntity
  8
Schulen
  6
ByLayer
 62
  256
370
   -1
100
AcDbLine
 10
1
 20
41
 11
5
 21
41
  0
LINE
  5
D5
100
AcDbEntity
  8
sophomorix-newfile
  6
ByLayer
 62
  256
370
   -1
100
AcDbLine
 10
5
 20
125
 11
2
 21
126
  0
LINE
  5
D6
100
AcDbEntity
  8
sophomorix-newfile
  6
ByLayer
 62
  256
370
   -1
100
AcDbLine
 10
2
 20
126
 11
2
 21
124
  0
LINE
  5
D7
100
AcDbEntity
  8
sophomorix-newfile
  6
ByLayer
 62
  256
370
   -1
100
AcDbLine
 10
2
 20
124
 11
5
 21
125
  0
LINE
  5
D8
100
AcDbEntity
  8
sophomorix-newfile
  6
ByLayer
 62
  256
370
   -1
100
AcDbLine
 10
5
 20
75
 11
2
 21
76
  0
LINE
  5
D9
100
AcDbEntity
  8
sophomorix-newfile
  6
ByLayer
 62
  256
370
   -1
100
AcDbLine
 10
2
 20
76
 11
2
 21
74
  0
LINE
  5
DA
100
AcDbEntity
  8
sophomorix-newfile
  6
ByLayer
 62
  256
370
   -1
100
AcDbLine
 10
2
 20
74
 11
5
 21
75
  0
LINE
  5
DB
100
AcDbEntity
  8
sophomorix-device
  6
ByLayer
 62
  256
370
   -1
100
AcDbLine
 10
40
 20
93
 11
40
 21
91
  0
LINE
  5
DC
100
AcDbEntity
  8
sophomorix-device
  6
ByLayer
 62
  256
370
   -1
100
AcDbLine
 10
40
 20
119
 11
40
 21
95
  0
LINE
  5
DD
100
AcDbEntity
  8
sophomorix-device
  6
ByLayer
 62
  256
370
   -1
100
AcDbLine
 10
40
 20
91
 11
40
 21
61
  0
LINE
  5
DE
100
AcDbEntity
  8
sophomorix-device
  6
ByLayer
 62
  256
370
   -1
100
AcDbLine
 10
40
 20
59
 11
40
 21
41
  0
LINE
  5
DF
100
AcDbEntity
  8
sophomorix-check
  6
ByLayer
 62
  256
370
   -1
100
AcDbLine
 10
55
 20
122
 11
55
 21
108
  0
LINE
  5
E0
100
AcDbEntity
  8
sophomorix-check
  6
ByLayer
 62
  256
370
   -1
100
AcDbLine
 10
55
 20
120
 11
52
 21
121
  0
LINE
  5
E1
100
AcDbEntity
  8
sophomorix-check
  6
ByLayer
 62
  256
370
   -1
100
AcDbLine
 10
52
 20
121
 11
52
 21
119
  0
LINE
  5
E2
100
AcDbEntity
  8
sophomorix-check
  6
ByLayer
 62
  256
370
   -1
100
AcDbLine
 10
52
 20
119
 11
55
 21
120
  0
MTEXT
  5
E3
100
AcDbEntity
  8
sophomorix-newfile
  6
ByLayer
 62
  256
370
   -1
100
AcDbMText
 10
-13
 20
127
 30
0
 40
2
 41
25.33409527738284
 71
    5
 72
    1
  1
sophomorix-newfile
  7
iso
210
0
220
0
230
1
 50
0
 73
    2
 44
1
  0
MTEXT
  5
E4
100
AcDbEntity
  8
sophomorix-newfile
  6
ByLayer
 62
  256
370
   -1
100
AcDbMText
 10
-13
 20
77
 30
0
 40
2
 41
25.33409527738284
 71
    5
 72
    1
  1
sophomorix-newfile
  7
iso
210
0
220
0
230
1
 50
0
 73
    2
 44
1
  0
LINE
  5
E5
100
AcDbEntity
  8
sophomorix-newfile
  6
ByLayer
 62
  256
370
   -1
100
AcDbLine
 10
-27
 20
126
 11
-27
 21
120
  0
LINE
  5
E6
100
AcDbEntity
  8
sophomorix-newfile
  6
ByLayer
 62
  256
370
   -1
100
AcDbLine
 10
-27
 20
76
 11
-27
 21
70
  0
LINE
  5
E7
100
AcDbEntity
  8
SVP-Export
  6
ByLayer
 62
  256
370
   -1
100
AcDbLine
 10
-37
 20
120
 11
-38
 21
117
  0
LINE
  5
E8
100
AcDbEntity
  8
SVP-Export
  6
ByLayer
 62
  256
370
   -1
100
AcDbLine
 10
-38
 20
117
 11
-36
 21
117
  0
LINE
  5
E9
100
AcDbEntity
  8
SVP-Export
  6
ByLayer
 62
  256
370
   -1
100
AcDbLine
 10
-36
 20
117
 11
-37
 21
120
  0
LINE
  5
EA
100
AcDbEntity
  8
SVP-Export
  6
ByLayer
 62
  256
370
   -1
100
AcDbLine
 10
-37
 20
76
 11
-38
 21
79
  0
LINE
  5
EB
100
AcDbEntity
  8
SVP-Export
  6
ByLayer
 62
  256
370
   -1
100
AcDbLine
 10
-38
 20
79
 11
-36
 21
79
  0
LINE
  5
EC
100
AcDbEntity
  8
SVP-Export
  6
ByLayer
 62
  256
370
   -1
100
AcDbLine
 10
-36
 20
79
 11
-37
 21
76
  0
LINE
  5
ED
100
AcDbEntity
  8
sophomorix-newfile
  6
ByLayer
 62
  256
370
   -1
100
AcDbLine
 10
-19
 20
35
 11
-19
 21
70
  0
LINE
  5
EE
100
AcDbEntity
  8
sophomorix-newfile
  6
ByLayer
 62
  256
370
   -1
100
AcDbLine
 10
-19
 20
35
 11
-20
 21
38
  0
LINE
  5
EF
100
AcDbEntity
  8
sophomorix-newfile
  6
ByLayer
 62
  256
370
   -1
100
AcDbLine
 10
-20
 20
38
 11
-18
 21
38
  0
LINE
  5
F0
100
AcDbEntity
  8
sophomorix-newfile
  6
ByLayer
 62
  256
370
   -1
100
AcDbLine
 10
-18
 20
38
 11
-19
 21
35
  0
LINE
  5
F1
100
AcDbEntity
  8
sophomorix-newfile
  6
ByLayer
 62
  256
370
   -1
100
AcDbLine
 10
-19
 20
79
 11
-19
 21
109
  0
LINE
  5
F2
100
AcDbEntity
  8
sophomorix-newfile
  6
ByLayer
 62
  256
370
   -1
100
AcDbLine
 10
-19
 20
113
 11
-19
 21
121
  0
MTEXT
  5
F3
100
AcDbEntity
  8
sophomorix-check
  6
ByLayer
 62
  256
370
   -1
100
AcDbMText
 10
55
 20
73
 30
0
 40
2.5
 41
34.16666795238513
 71
    5
 72
    1
  1
<dateiname>.csv.utf8
  7
iso
210
0
220
0
230
1
 50
90
 73
    2
 44
1
  0
LINE
  5
F4
100
AcDbEntity
  8
Schulen
  6
ByLayer
 62
  256
370
   -1
100
AcDbLine
 10
-6
 20
37
 11
-6
 21
71
  0
LINE
  5
F5
100
AcDbEntity
  8
Schulen
  6
ByLayer
 62
  256
370
   -1
100
AcDbLine
 10
-10
 20
61
 11
-10
 21
71
  0
LINE
  5
F6
100
AcDbEntity
  8
Schulen
  6
ByLayer
 62
  256
370
   -1
100
AcDbLine
 10
-6
 20
121
 11
-6
 21
87
  0
LINE
  5
F7
100
AcDbEntity
  8
Schulen
  6
ByLayer
 62
  256
370
   -1
100
AcDbLine
 10
-10
 20
141
 11
-10
 21
128.5
  0
LINE
  5
F8
100
AcDbEntity
  8
Schulen
  6
ByLayer
 62
  256
370
   -1
100
AcDbLine
 10
-6
 20
135
 11
-6
 21
128.5
  0
LINE
  5
F9
100
AcDbEntity
  8
Schulen
  6
ByLayer
 62
  256
370
   -1
100
AcDbLine
 10
-10
 20
121
 11
-10
 21
78.5
  0
LINE
  5
FA
100
AcDbEntity
  8
Schulen
  6
ByLayer
 62
  256
370
   -1
100
AcDbLine
 10
-6
 20
85
 11
-6
 21
78.5
  0
LINE
  5
FB
100
AcDbEntity
  8
Schulen
  6
ByLayer
 62
  256
370
   -1
100
AcDbLine
 10
1
 20
124
 11
1
 21
91
  0
LINE
  5
FC
100
AcDbEntity
  8
Schulen
  6
ByLayer
 62
  256
370
   -1
100
AcDbLine
 10
1
 20
126
 11
1
 21
128
  0
LINE
  5
FD
100
AcDbEntity
  8
Schulen
  6
ByLayer
 62
  256
370
   -1
100
AcDbLine
 10
1
 20
74
 11
1
 21
41
  0
LINE
  5
FE
100
AcDbEntity
  8
Schulen
  6
ByLayer
 62
  256
370
   -1
100
AcDbLine
 10
1
 20
76
 11
1
 21
78
  0
LINE
  5
FF
100
AcDbEntity
  8
check-result
  6
ByLayer
 62
  256
370
   -1
100
AcDbLine
 10
71
 20
62
 11
71
 21
68
  0
LINE
  5
100
100
AcDbEntity
  8
sophomorix-check
  6
ByLayer
 62
  256
370
   -1
100
AcDbLine
 10
71
 20
65
 11
68
 21
66
  0
LINE
  5
101
100
AcDbEntity
  8
sophomorix-check
  6
ByLayer
 62
  256
370
   -1
100
AcDbLine
 10
68
 20
66
 11
68
 21
64
  0
LINE
  5
102
100
AcDbEntity
  8
sophomorix-check
  6
ByLayer
 62
  256
370
   -1
100
AcDbLine
 10
68
 20
64
 11
71
 21
65
  0
LINE
  5
103
100
AcDbEntity
  8
update-add-move-kill
  6
ByLayer
 62
  256
370
   -1
100
AcDbLine
 10
112
 20
59
 11
109
 21
60
  0
LINE
  5
104
100
AcDbEntity
  8
update-add-move-kill
  6
ByLayer
 62
  256
370
   -1
100
AcDbLine
 10
109
 20
60
 11
109
 21
58
  0
LINE
  5
105
100
AcDbEntity
  8
update-add-move-kill
  6
ByLayer
 62
  256
370
   -1
100
AcDbLine
 10
109
 20
58
 11
112
 21
59
  0
LINE
  5
106
100
AcDbEntity
  8
update-add-move-kill
  6
ByLayer
 62
  256
370
   -1
100
AcDbLine
 10
78
 20
59
 11
78
 21
62
  0
LINE
  5
107
100
AcDbEntity
  8
check-result
  6
ByLayer
 62
  256
370
   -1
100
AcDbLine
 10
71
 20
78
 11
71
 21
84
  0
LINE
  5
108
100
AcDbEntity
  8
sophomorix-check
  6
ByLayer
 62
  256
370
   -1
100
AcDbLine
 10
71
 20
81
 11
68
 21
82
  0
LINE
  5
109
100
AcDbEntity
  8
sophomorix-check
  6
ByLayer
 62
  256
370
   -1
100
AcDbLine
 10
68
 20
82
 11
68
 21
80
  0
LINE
  5
10A
100
AcDbEntity
  8
sophomorix-check
  6
ByLayer
 62
  256
370
   -1
100
AcDbLine
 10
68
 20
80
 11
71
 21
81
  0
LINE
  5
10B
100
AcDbEntity
  8
update-add-move-kill
  6
ByLayer
 62
  256
370
   -1
100
AcDbLine
 10
112
 20
75
 11
109
 21
76
  0
LINE
  5
10C
100
AcDbEntity
  8
update-add-move-kill
  6
ByLayer
 62
  256
370
   -1
100
AcDbLine
 10
109
 20
76
 11
109
 21
74
  0
LINE
  5
10D
100
AcDbEntity
  8
update-add-move-kill
  6
ByLayer
 62
  256
370
   -1
100
AcDbLine
 10
109
 20
74
 11
112
 21
75
  0
LINE
  5
10E
100
AcDbEntity
  8
update-add-move-kill
  6
ByLayer
 62
  256
370
   -1
100
AcDbLine
 10
78
 20
78
 11
78
 21
75
  0
LINE
  5
10F
100
AcDbEntity
  8
check-result
  6
ByLayer
 62
  256
370
   -1
100
AcDbLine
 10
71
 20
94
 11
71
 21
100
  0
LINE
  5
110
100
AcDbEntity
  8
sophomorix-check
  6
ByLayer
 62
  256
370
   -1
100
AcDbLine
 10
71
 20
97
 11
68
 21
98
  0
LINE
  5
111
100
AcDbEntity
  8
sophomorix-check
  6
ByLayer
 62
  256
370
   -1
100
AcDbLine
 10
68
 20
98
 11
68
 21
96
  0
LINE
  5
112
100
AcDbEntity
  8
sophomorix-check
  6
ByLayer
 62
  256
370
   -1
100
AcDbLine
 10
68
 20
96
 11
71
 21
97
  0
LINE
  5
113
100
AcDbEntity
  8
update-add-move-kill
  6
ByLayer
 62
  256
370
   -1
100
AcDbLine
 10
112
 20
91
 11
109
 21
92
  0
LINE
  5
114
100
AcDbEntity
  8
update-add-move-kill
  6
ByLayer
 62
  256
370
   -1
100
AcDbLine
 10
109
 20
92
 11
109
 21
90
  0
LINE
  5
115
100
AcDbEntity
  8
update-add-move-kill
  6
ByLayer
 62
  256
370
   -1
100
AcDbLine
 10
109
 20
90
 11
112
 21
91
  0
LINE
  5
116
100
AcDbEntity
  8
update-add-move-kill
  6
ByLayer
 62
  256
370
   -1
100
AcDbLine
 10
78
 20
91
 11
78
 21
94
  0
LINE
  5
117
100
AcDbEntity
  8
check-result
  6
ByLayer
 62
  256
370
   -1
100
AcDbLine
 10
107
 20
68
 11
107
 21
62
  0
LINE
  5
118
100
AcDbEntity
  8
check-result
  6
ByLayer
 62
  256
370
   -1
100
AcDbLine
 10
107
 20
84
 11
107
 21
78
  0
LINE
  5
119
100
AcDbEntity
  8
check-result
  6
ByLayer
 62
  256
370
   -1
100
AcDbLine
 10
107
 20
100
 11
107
 21
94
  0
LINE
  5
11A
100
AcDbEntity
  8
check-result
  6
ByLayer
 62
  256
370
   -1
100
AcDbLine
 10
71
 20
100
 11
107
 21
100
  0
LINE
  5
11B
100
AcDbEntity
  8
check-result
  6
ByLayer
 62
  256
370
   -1
100
AcDbLine
 10
107
 20
94
 11
71
 21
94
  0
LINE
  5
11C
100
AcDbEntity
  8
check-result
  6
ByLayer
 62
  256
370
   -1
100
AcDbLine
 10
71
 20
84
 11
107
 21
84
  0
LINE
  5
11D
100
AcDbEntity
  8
check-result
  6
ByLayer
 62
  256
370
   -1
100
AcDbLine
 10
107
 20
78
 11
71
 21
78
  0
LINE
  5
11E
100
AcDbEntity
  8
check-result
  6
ByLayer
 62
  256
370
   -1
100
AcDbLine
 10
71
 20
68
 11
107
 21
68
  0
LINE
  5
11F
100
AcDbEntity
  8
check-result
  6
ByLayer
 62
  256
370
   -1
100
AcDbLine
 10
107
 20
62
 11
71
 21
62
  0
MTEXT
  5
120
100
AcDbEntity
  8
check-result
  6
ByLayer
 62
  256
370
   -1
100
AcDbMText
 10
89
 20
97
 30
0
 40
2.5
 41
24.44539687450633
 71
    5
 72
    1
  1
sophomorix.add
  7
iso
210
0
220
0
230
1
 50
0
 73
    2
 44
1
  0
MTEXT
  5
121
100
AcDbEntity
  8
update-add-move-kill
  6
ByLayer
 62
  256
370
   -1
100
AcDbMText
 10
106
 20
91
 30
0
 40
2
 41
20.44520638849395
 71
    6
 72
    1
  1
sophomorix-add
  7
iso
210
0
220
0
230
1
 50
0
 73
    2
 44
1
  0
MTEXT
  5
122
100
AcDbEntity
  8
check-result
  6
ByLayer
 62
  256
370
   -1
100
AcDbMText
 10
89
 20
81
 30
0
 40
2.5
 41
30.00095243006188
 71
    5
 72
    1
  1
sophomorix.update
  7
iso
210
0
220
0
230
1
 50
0
 73
    2
 44
1
  0
MTEXT
  5
123
100
AcDbEntity
  8
update-add-move-kill
  6
ByLayer
 62
  256
370
   -1
100
AcDbMText
 10
106
 20
75
 30
0
 40
2
 41
24.8896508329384
 71
    6
 72
    1
  1
sophomorix-update
  7
iso
210
0
220
0
230
1
 50
0
 73
    2
 44
1
  0
MTEXT
  5
124
100
AcDbEntity
  8
check-result
  6
ByLayer
 62
  256
370
   -1
100
AcDbMText
 10
89
 20
65
 30
0
 40
2.5
 41
23.61206354117287
 71
    5
 72
    1
  1
sophomorix.kill
  7
iso
210
0
220
0
230
1
 50
0
 73
    2
 44
1
  0
MTEXT
  5
125
100
AcDbEntity
  8
update-add-move-kill
  6
ByLayer
 62
  256
370
   -1
100
AcDbMText
 10
106
 20
59
 30
0
 40
2
 41
19.77853972182719
 71
    6
 72
    1
  1
sophomorix-kill
  7
iso
210
0
220
0
230
1
 50
0
 73
    2
 44
1
  0
MTEXT
  5
126
100
AcDbEntity
  8
sophomorix-check
  6
ByLayer
 62
  256
370
   -1
100
AcDbMText
 10
65
 20
64
 30
0
 40
2.5
 41
30.2777777777784
 71
    5
 72
    1
  1
Abgleich  mit  AD
  7
iso
210
0
220
0
230
1
 50
90
 73
    2
 44
1
  0
LINE
  5
127
100
AcDbEntity
  8
check-result
  6
ByLayer
 62
  256
370
   -1
100
AcDbLine
 10
71
 20
41
 11
71
 21
47
  0
LINE
  5
128
100
AcDbEntity
  8
sophomorix-check
  6
ByLayer
 62
  256
370
   -1
100
AcDbLine
 10
71
 20
44
 11
68
 21
45
  0
LINE
  5
129
100
AcDbEntity
  8
sophomorix-check
  6
ByLayer
 62
  256
370
   -1
100
AcDbLine
 10
68
 20
45
 11
68
 21
43
  0
LINE
  5
12A
100
AcDbEntity
  8
sophomorix-check
  6
ByLayer
 62
  256
370
   -1
100
AcDbLine
 10
68
 20
43
 11
71
 21
44
  0
LINE
  5
12B
100
AcDbEntity
  8
check-result
  6
ByLayer
 62
  256
370
   -1
100
AcDbLine
 10
107
 20
47
 11
107
 21
41
  0
LINE
  5
12C
100
AcDbEntity
  8
check-result
  6
ByLayer
 62
  256
370
   -1
100
AcDbLine
 10
71
 20
47
 11
107
 21
47
  0
LINE
  5
12D
100
AcDbEntity
  8
check-result
  6
ByLayer
 62
  256
370
   -1
100
AcDbLine
 10
107
 20
41
 11
71
 21
41
  0
MTEXT
  5
12E
100
AcDbEntity
  8
check-result
  6
ByLayer
 62
  256
370
   -1
100
AcDbMText
 10
89
 20
44
 30
0
 40
2.5
 41
33.88984131895126
 71
    5
 72
    1
  1
sophomorix.nochange
  7
iso
210
0
220
0
230
1
 50
0
 73
    2
 44
1
  0
LINE
  5
12F
100
AcDbEntity
  8
update-add-move-kill
  6
ByLayer
 62
  256
370
   -1
100
AcDbLine
 10
78
 20
75
 11
80
 21
75
  0
LINE
  5
130
100
AcDbEntity
  8
update-add-move-kill
  6
ByLayer
 62
  256
370
   -1
100
AcDbLine
 10
84
 20
91
 11
78
 21
91
  0
LINE
  5
131
100
AcDbEntity
  8
update-add-move-kill
  6
ByLayer
 62
  256
370
   -1
100
AcDbLine
 10
85
 20
59
 11
78
 21
59
  0
MTEXT
  5
132
100
AcDbEntity
  8
check-result
  6
ByLayer
 62
  256
370
   -1
100
AcDbMText
 10
108
 20
119
 30
0
 40
2
 41
16.44444547301902
 71
    5
 72
    1
  1
check-result
  7
iso
210
0
220
0
230
1
 50
90
 73
    2
 44
1
  0
LINE
  5
133
100
AcDbEntity
  8
sophomorix-check
  6
ByLayer
 62
  256
370
   -1
100
AcDbLine
 10
105
 20
132
 11
102
 21
133
  0
LINE
  5
134
100
AcDbEntity
  8
sophomorix-check
  6
ByLayer
 62
  256
370
   -1
100
AcDbLine
 10
102
 20
133
 11
102
 21
131
  0
LINE
  5
135
100
AcDbEntity
  8
sophomorix-check
  6
ByLayer
 62
  256
370
   -1
100
AcDbLine
 10
102
 20
131
 11
105
 21
132
  0
LINE
  5
136
100
AcDbEntity
  8
sophomorix-check
  6
ByLayer
 62
  256
370
   -1
100
AcDbLine
 10
38
 20
92
 11
38
 21
132
  0
LINE
  5
137
100
AcDbEntity
  8
check-result
  6
ByLayer
 62
  256
370
   -1
100
AcDbLine
 10
105
 20
134
 11
105
 21
100
  0
LINE
  5
138
100
AcDbEntity
  8
sophomorix-check
  6
ByLayer
 62
  256
370
   -1
100
AcDbLine
 10
58
 20
108
 11
57
 21
111
  0
LINE
  5
139
100
AcDbEntity
  8
sophomorix-check
  6
ByLayer
 62
  256
370
   -1
100
AcDbLine
 10
57
 20
111
 11
59
 21
111
  0
LINE
  5
13A
100
AcDbEntity
  8
sophomorix-check
  6
ByLayer
 62
  256
370
   -1
100
AcDbLine
 10
59
 20
111
 11
58
 21
108
  0
LINE
  5
13B
100
AcDbEntity
  8
sophomorix-device
  6
ByLayer
 62
  256
370
   -1
100
AcDbLine
 10
112
 20
139
 11
109
 21
140
  0
LINE
  5
13C
100
AcDbEntity
  8
sophomorix-device
  6
ByLayer
 62
  256
370
   -1
100
AcDbLine
 10
109
 20
140
 11
109
 21
138
  0
LINE
  5
13D
100
AcDbEntity
  8
sophomorix-device
  6
ByLayer
 62
  256
370
   -1
100
AcDbLine
 10
109
 20
138
 11
112
 21
139
  0
MTEXT
  5
13E
100
AcDbEntity
  8
Dateien_etc
  6
ByLayer
 62
  256
370
   -1
100
AcDbMText
 10
20
 20
115
 30
0
 40
2
 41
16.2222242793712
 71
    5
 72
    1
  1
teachers.csv
  7
iso
210
0
220
0
230
1
 50
0
 73
    2
 44
1
  0
LINE
  5
13F
100
AcDbEntity
  8
sophomorix-device
  6
ByLayer
 62
  256
370
   -1
100
AcDbLine
 10
40
 20
139
 11
40
 21
133
  0
LINE
  5
140
100
AcDbEntity
  8
sophomorix-device
  6
ByLayer
 62
  256
370
   -1
100
AcDbLine
 10
40
 20
131
 11
40
 21
121
  0
MTEXT
  5
141
100
AcDbEntity
  8
sophomorix-device
  6
ByLayer
 62
  256
370
   -1
100
AcDbMText
 10
42
 20
142
 30
0
 40
2
 41
24.00076194404941
 71
    4
 72
    1
  1
sophomorix-device
  7
iso
210
0
220
0
230
1
 50
0
 73
    2
 44
1
  0
MTEXT
  5
142
100
AcDbEntity
  8
sophomorix-check
  6
ByLayer
 62
  256
370
   -1
100
AcDbMText
 10
42
 20
135
 30
0
 40
2
 41
23.11187305516062
 71
    4
 72
    1
  1
sophomorix-check
  7
iso
210
0
220
0
230
1
 50
0
 73
    2
 44
1
  0
MTEXT
  5
143
100
AcDbEntity
  8
sophomorix-check
  6
ByLayer
 62
  256
370
   -1
100
AcDbMText
 10
42
 20
129
 30
0
 40
1.5
 41
45.87500385715455
 71
    4
 72
    1
  1
--injectline "file.csv:class;last;first;birthday"
  7
iso
210
0
220
0
230
1
 50
0
 73
    2
 44
1
  0
LINE
  5
144
100
AcDbEntity
  8
sophomorix-check
  6
ByLayer
 62
  256
370
   -1
100
AcDbLine
 10
42
 20
127
 11
88
 21
127
  0
MTEXT
  5
145
100
AcDbEntity
  8
sophomorix-check
  6
ByLayer
 62
  256
370
   -1
100
AcDbMText
 10
42
 20
122
 30
0
 40
1.5
 41
9.50000000000021
 71
    4
 72
    1
  1
--analyze
  7
iso
210
0
220
0
230
1
 50
0
 73
    2
 44
1
  0
LINE
  5
146
100
AcDbEntity
  8
check-result
  6
ByLayer
 62
  256
370
   -1
100
AcDbLine
 10
105
 20
57
 11
105
 21
47
  0
LINE
  5
147
100
AcDbEntity
  8
check-result
  6
ByLayer
 62
  256
370
   -1
100
AcDbLine
 10
105
 20
73
 11
105
 21
68
  0
LINE
  5
148
100
AcDbEntity
  8
check-result
  6
ByLayer
 62
  256
370
   -1
100
AcDbLine
 10
105
 20
89
 11
105
 21
84
  0
MTEXT
  5
149
100
AcDbEntity
  8
sophomorix-check
  6
ByLayer
 62
  256
370
   -1
100
AcDbMText
 10
45
 20
77
 30
0
 40
2.5
 41
28.33333590476967
 71
    5
 72
    1
  1
Plausibilittetest
  7
iso
210
0
220
0
230
1
 50
90
 73
    2
 44
1
  0
MTEXT
  5
14A
100
AcDbEntity
  8
sophomorix-newfile
  6
ByLayer
 62
  256
370
   -1
100
AcDbMText
 10
-25
 20
73
 30
0
 40
2
 41
22.1111111111112
 71
    4
 72
    1
  1
cp/filter + UTF8
  7
iso
210
0
220
0
230
1
 50
0
 73
    2
 44
1
  0
MTEXT
  5
14B
100
AcDbEntity
  8
sophomorix-newfile
  6
ByLayer
 62
  256
370
   -1
100
AcDbMText
 10
-25
 20
123
 30
0
 40
2
 41
22.1111111111112
 71
    4
 72
    1
  1
cp/filter + UTF8
  7
iso
210
0
220
0
230
1
 50
0
 73
    2
 44
1
  0
MTEXT
  5
14C
100
AcDbEntity
  8
sophomorix-newfile
  6
ByLayer
 62
  256
370
   -1
100
AcDbMText
 10
-10
 20
31
 30
0
 40
2.5
 41
54.44444701588102
 71
    6
 72
    1
  1
/var/log/sophomorix/newfiles/...
  7
iso
210
0
220
0
230
1
 50
0
 73
    2
 44
1
  0
MTEXT
  5
14D
100
AcDbEntity
  8
Dateien_etc
  6
ByLayer
 62
  256
370
   -1
100
AcDbMText
 10
14
 20
157
 30
0
 40
2.5
 41
31.80555555555606
 71
    5
 72
    1
  1
Dateien unter /etc
  7
iso
210
0
220
0
230
1
 50
0
 73
    2
 44
1
  0
MTEXT
  5
14E
100
AcDbEntity
  8
sophomorix-newfile
  6
ByLayer
 62
  256
370
   -1
100
AcDbMText
 10
-42
 20
157
 30
0
 40
2.5
 41
19.72222222222273
 71
    5
 72
    1
  1
tmp-Dateien
  7
iso
210
0
220
0
230
1
 50
0
 73
    2
 44
1
  0
MTEXT
  5
14F
100
AcDbEntity
  8
Dateien_etc
  6
ByLayer
 62
  256
370
   -1
100
AcDbMText
 10
-4
 20
154
 30
0
 40
2
 41
34.77777735377395
 71
    1
 72
    1
  1
- Spalten-Reihenfolge OK\P- Felder-Anzahl OK\P- UTF8
  7
iso
210
0
220
0
230
1
 50
0
 73
    2
 44
1
  0
MTEXT
  5
150
100
AcDbEntity
  8
Samba-AD - System
  6
ByLayer
 62
  256
370
   -1
100
AcDbMText
 10
117
 20
98
 30
0
 40
3
 41
65.33333236399447
 71
    5
 72
    1
  1
Samba4 - AD (Active Directory)
  7
iso
210
0
220
0
230
1
 50
90
 73
    2
 44
1
  0
LINE
  5
151
100
AcDbEntity
  8
SVP-Export
  6
ByLayer
 62
  256
370
   -1
100
AcDbLine
 10
-85
 20
116
 11
-66
 21
116
  0
LINE
  5
152
100
AcDbEntity
  8
SVP-Export
  6
ByLayer
 62
  256
370
   -1
100
AcDbLine
 10
-66
 20
113
 11
-44
 21
113
  0
LINE
  5
153
100
AcDbEntity
  8
SVP-Export
  6
ByLayer
 62
  256
370
   -1
100
AcDbLine
 10
-37
 20
98
 11
-37
 21
96
  0
LINE
  5
154
100
AcDbEntity
  8
SVP-Export
  6
ByLayer
 62
  256
370
   -1
100
AcDbLine
 10
-37
 20
95
 11
-37
 21
93
  0
LINE
  5
155
100
AcDbEntity
  8
SVP-Export
  6
ByLayer
 62
  256
370
   -1
100
AcDbLine
 10
-37
 20
92
 11
-37
 21
90
  0
LINE
  5
156
100
AcDbEntity
  8
SVP-Export
  6
ByLayer
 62
  256
370
   -1
100
AcDbLine
 10
-37
 20
89
 11
-37
 21
87
  0
LINE
  5
157
100
AcDbEntity
  8
SVP-Export
  6
ByLayer
 62
  256
370
   -1
100
AcDbLine
 10
-37
 20
86
 11
-37
 21
84
  0
LINE
  5
158
100
AcDbEntity
  8
SVP-Export
  6
ByLayer
 62
  256
370
   -1
100
AcDbLine
 10
-37
 20
83
 11
-37
 21
81
  0
LINE
  5
159
100
AcDbEntity
  8
SVP-Export
  6
ByLayer
 62
  256
370
   -1
100
AcDbLine
 10
-37
 20
80
 11
-37
 21
79
  0
LINE
  5
15A
100
AcDbEntity
  8
sophomorix-newfile
  6
ByLayer
 62
  256
370
   -1
100
AcDbLine
 10
-62
 20
126
 11
-62
 21
120
  0
LINE
  5
15B
100
AcDbEntity
  8
sophomorix-newfile
  6
ByLayer
 62
  256
370
   -1
100
AcDbLine
 10
-62
 20
126
 11
-27
 21
126
  0
LINE
  5
15C
100
AcDbEntity
  8
sophomorix-newfile
  6
ByLayer
 62
  256
370
   -1
100
AcDbLine
 10
-62
 20
120
 11
-27
 21
120
  0
MTEXT
  5
15D
100
AcDbEntity
  8
sophomorix-newfile
  6
ByLayer
 62
  256
370
   -1
100
AcDbMText
 10
-44
 20
123
 30
0
 40
2
 41
31.77778086350106
 71
    5
 72
    1
  1
20xx.yy.zz-students.csv
  7
iso
210
0
220
0
230
1
 50
0
 73
    2
 44
1
  0
MTEXT
  5
15E
100
AcDbEntity
  8
sophomorix-newfile
  6
ByLayer
 62
  256
370
   -1
100
AcDbMText
 10
-46
 20
73
 30
0
 40
2
 41
36.2222253079456
 71
    5
 72
    1
  1
20xx.yy.zz-ltg.students.csv
  7
iso
210
0
220
0
230
1
 50
0
 73
    2
 44
1
  0
LINE
  5
15F
100
AcDbEntity
  8
sophomorix-newfile
  6
ByLayer
 62
  256
370
   -1
100
AcDbLine
 10
-65
 20
76
 11
-65
 21
70
  0
LINE
  5
160
100
AcDbEntity
  8
sophomorix-newfile
  6
ByLayer
 62
  256
370
   -1
100
AcDbLine
 10
-65
 20
70
 11
-27
 21
70
  0
LINE
  5
161
100
AcDbEntity
  8
sophomorix-newfile
  6
ByLayer
 62
  256
370
   -1
100
AcDbLine
 10
-65
 20
76
 11
-27
 21
76
  0
LINE
  5
162
100
AcDbEntity
  8
SVP-Export
  6
ByLayer
 62
  256
370
   -1
100
AcDbLine
 10
-39
 20
100
 11
-42
 21
101
  0
LINE
  5
163
100
AcDbEntity
  8
SVP-Export
  6
ByLayer
 62
  256
370
   -1
100
AcDbLine
 10
-42
 20
101
 11
-42
 21
99
  0
LINE
  5
164
100
AcDbEntity
  8
SVP-Export
  6
ByLayer
 62
  256
370
   -1
100
AcDbLine
 10
-42
 20
99
 11
-39
 21
100
  0
LINE
  5
165
100
AcDbEntity
  8
SVP-Export
  6
ByLayer
 62
  256
370
   -1
100
AcDbLine
 10
-66
 20
87
 11
-44
 21
87
  0
LINE
  5
166
100
AcDbEntity
  8
SVP-Export
  6
ByLayer
 62
  256
370
   -1
100
AcDbLine
 10
-66
 20
100
 11
-42
 21
100
  0
LINE
  5
167
100
AcDbEntity
  8
SVP-Export
  6
ByLayer
 62
  256
370
   -1
100
AcDbLine
 10
-39
 20
100
 11
-37
 21
100
  0
LINE
  5
168
100
AcDbEntity
  8
SVP-Export
  6
ByLayer
 62
  256
370
   -1
100
AcDbLine
 10
-37
 20
100
 11
-37
 21
99
  0
LINE
  5
169
100
AcDbEntity
  8
SVP-Export
  6
ByLayer
 62
  256
370
   -1
100
AcDbLine
 10
-85
 20
84
 11
-66
 21
84
  0
LINE
  5
16A
100
AcDbEntity
  8
SVP-Export
  6
ByLayer
 62
  256
370
   -1
100
AcDbLine
 10
-66
 20
116
 11
-66
 21
84
  0
LINE
  5
16B
100
AcDbEntity
  8
SVP-Export
  6
ByLayer
 62
  256
370
   -1
100
AcDbLine
 10
-85
 20
84
 11
-85
 21
116
  0
LINE
  5
16C
100
AcDbEntity
  8
SVP-Export
  6
ByLayer
 62
  256
370
   -1
100
AcDbLine
 10
-44
 20
113
 11
-44
 21
87
  0
LINE
  5
16D
100
AcDbEntity
  8
SVP-Export
  6
ByLayer
 62
  256
370
   -1
100
AcDbLine
 10
-37
 20
100
 11
-37
 21
117
  0
LINE
  5
16E
100
AcDbEntity
  8
sophomorix-newfile
  6
ByLayer
 62
  256
370
   -1
100
AcDbLine
 10
-27
 20
125
 11
2
 21
125
  0
LINE
  5
16F
100
AcDbEntity
  8
sophomorix-newfile
  6
ByLayer
 62
  256
370
   -1
100
AcDbLine
 10
-27
 20
75
 11
2
 21
75
  0
LINE
  5
170
100
AcDbEntity
  8
sophomorix-check
  6
ByLayer
 62
  256
370
   -1
100
AcDbLine
 10
45
 20
58
 11
45
 21
38
  0
LINE
  5
171
100
AcDbEntity
  8
sophomorix-check
  6
ByLayer
 62
  256
370
   -1
100
AcDbLine
 10
38
 20
60
 11
48
 21
60
  0
LINE
  5
172
100
AcDbEntity
  8
sophomorix-check
  6
ByLayer
 62
  256
370
   -1
100
AcDbLine
 10
68
 20
44
 11
61
 21
44
  0
LINE
  5
173
100
AcDbEntity
  8
sophomorix-check
  6
ByLayer
 62
  256
370
   -1
100
AcDbLine
 10
68
 20
65
 11
61
 21
65
  0
LINE
  5
174
100
AcDbEntity
  8
sophomorix-check
  6
ByLayer
 62
  256
370
   -1
100
AcDbLine
 10
68
 20
81
 11
61
 21
81
  0
LINE
  5
175
100
AcDbEntity
  8
sophomorix-check
  6
ByLayer
 62
  256
370
   -1
100
AcDbLine
 10
68
 20
97
 11
61
 21
97
  0
LINE
  5
176
100
AcDbEntity
  8
sophomorix-check
  6
ByLayer
 62
  256
370
   -1
100
AcDbLine
 10
38
 20
94
 11
48
 21
94
  0
LINE
  5
177
100
AcDbEntity
  8
sophomorix-check
  6
ByLayer
 62
  256
370
   -1
100
AcDbLine
 10
58
 20
127
 11
58
 21
111
  0
LINE
  5
178
100
AcDbEntity
  8
sophomorix-check
  6
ByLayer
 62
  256
370
   -1
100
AcDbLine
 10
38
 20
120
 11
52
 21
120
  0
LINE
  5
179
100
AcDbEntity
  8
sophomorix-device
  6
ByLayer
 62
  256
370
   -1
100
AcDbLine
 10
40
 20
139
 11
109
 21
139
  0
LINE
  5
17A
100
AcDbEntity
  8
sophomorix-check
  6
ByLayer
 62
  256
370
   -1
100
AcDbLine
 10
38
 20
132
 11
102
 21
132
  0
LINE
  5
17B
100
AcDbEntity
  8
update-add-move-kill
  6
ByLayer
 62
  256
370
   -1
100
AcDbLine
 10
107
 20
91
 11
109
 21
91
  0
LINE
  5
17C
100
AcDbEntity
  8
update-add-move-kill
  6
ByLayer
 62
  256
370
   -1
100
AcDbLine
 10
107
 20
75
 11
109
 21
75
  0
LINE
  5
17D
100
AcDbEntity
  8
update-add-move-kill
  6
ByLayer
 62
  256
370
   -1
100
AcDbLine
 10
107
 20
59
 11
109
 21
59
  0
LINE
  5
17E
100
AcDbEntity
  8
SVP-Export
  6
ByLayer
 62
  256
370
   -1
100
AcDbLine
 10
-93
 20
84
 11
-117
 21
84
  0
LINE
  5
17F
100
AcDbEntity
  8
SVP-Export
  6
ByLayer
 62
  256
370
   -1
100
AcDbLine
 10
-117
 20
84
 11
-117
 21
129
  0
LINE
  5
180
100
AcDbEntity
  8
SVP-Export
  6
ByLayer
 62
  256
370
   -1
100
AcDbLine
 10
-117
 20
129
 11
-93
 21
129
  0
LINE
  5
181
100
AcDbEntity
  8
SVP-Export
  6
ByLayer
 62
  256
370
   -1
100
AcDbLine
 10
-93
 20
129
 11
-93
 21
84
  0
LINE
  5
182
100
AcDbEntity
  8
SVP-Export
  6
ByLayer
 62
  256
370
   -1
100
AcDbLine
 10
-85
 20
100
 11
-88
 21
101
  0
LINE
  5
183
100
AcDbEntity
  8
SVP-Export
  6
ByLayer
 62
  256
370
   -1
100
AcDbLine
 10
-88
 20
101
 11
-88
 21
99
  0
LINE
  5
184
100
AcDbEntity
  8
SVP-Export
  6
ByLayer
 62
  256
370
   -1
100
AcDbLine
 10
-88
 20
99
 11
-85
 21
100
  0
LINE
  5
185
100
AcDbEntity
  8
SVP-Export
  6
ByLayer
 62
  256
370
   -1
100
AcDbLine
 10
-88
 20
100
 11
-93
 21
100
  0
LINE
  5
186
100
AcDbEntity
  8
Samba Fileserver
  6
ByLayer
 62
  256
370
   -1
100
AcDbLine
 10
126
 20
57
 11
126
 21
37
  0
LINE
  5
187
100
AcDbEntity
  8
Samba Fileserver
  6
ByLayer
 62
  256
370
   -1
100
AcDbLine
 10
150
 20
37
 11
150
 21
57
  0
LINE
  5
188
100
AcDbEntity
  8
Samba Fileserver
  6
ByLayer
 62
  256
370
   -1
100
AcDbLine
 10
150
 20
57
 11
126
 21
57
  0
LINE
  5
189
100
AcDbEntity
  8
Samba Fileserver
  6
ByLayer
 62
  256
370
   -1
100
AcDbLine
 10
126
 20
37
 11
150
 21
37
  0
LINE
  5
18A
100
AcDbEntity
  8
Firewall
  6
ByLayer
 62
  256
370
   -1
100
AcDbLine
 10
162
 20
37
 11
152
 21
37
  0
LINE
  5
18B
100
AcDbEntity
  8
Samba Fileserver
  6
ByLayer
 62
  256
370
   -1
100
AcDbLine
 10
126
 20
47
 11
125
 21
47
  0
LINE
  5
18C
100
AcDbEntity
  8
Samba Fileserver
  6
ByLayer
 62
  256
370
   -1
100
AcDbLine
 10
125
 20
48
 11
125
 21
46
  0
LINE
  5
18D
100
AcDbEntity
  8
Samba Fileserver
  6
ByLayer
 62
  256
370
   -1
100
AcDbLine
 10
125
 20
46
 11
122
 21
47
  0
LINE
  5
18E
100
AcDbEntity
  8
Samba Fileserver
  6
ByLayer
 62
  256
370
   -1
100
AcDbLine
 10
122
 20
47
 11
125
 21
48
  0
MTEXT
  5
18F
100
AcDbEntity
  8
Samba Fileserver
  6
ByLayer
 62
  256
370
   -1
100
AcDbMText
 10
138
 20
47
 30
0
 40
3
 41
19.33333487619493
 71
    5
 72
    1
  1
Samba\PFileserver
  7
iso
210
0
220
0
230
1
 50
0
 73
    2
 44
1
  0
LINE
  5
190
100
AcDbEntity
  8
Server ohne LDAP2
  6
ByLayer
 62
  256
370
   -1
100
AcDbLine
 10
166
 20
158
 11
210
 21
158
  0
LINE
  5
191
100
AcDbEntity
  8
Server ohne LDAP2
  6
ByLayer
 62
  256
370
   -1
100
AcDbLine
 10
210
 20
158
 11
210
 21
170
  0
LINE
  5
192
100
AcDbEntity
  8
Server ohne LDAP2
  6
ByLayer
 62
  256
370
   -1
100
AcDbLine
 10
210
 20
170
 11
166
 21
170
  0
LINE
  5
193
100
AcDbEntity
  8
Server ohne LDAP2
  6
ByLayer
 62
  256
370
   -1
100
AcDbLine
 10
166
 20
170
 11
166
 21
158
  0
LINE
  5
194
100
AcDbEntity
  8
Server ohne LDAP2
  6
ByLayer
 62
  256
370
   -1
100
AcDbLine
 10
166
 20
173
 11
210
 21
173
  0
LINE
  5
195
100
AcDbEntity
  8
Server ohne LDAP2
  6
ByLayer
 62
  256
370
   -1
100
AcDbLine
 10
210
 20
173
 11
210
 21
185
  0
LINE
  5
196
100
AcDbEntity
  8
Server ohne LDAP2
  6
ByLayer
 62
  256
370
   -1
100
AcDbLine
 10
210
 20
185
 11
166
 21
185
  0
LINE
  5
197
100
AcDbEntity
  8
Server ohne LDAP2
  6
ByLayer
 62
  256
370
   -1
100
AcDbLine
 10
166
 20
185
 11
166
 21
173
  0
LINE
  5
198
100
AcDbEntity
  8
Server ohne LDAP2
  6
ByLayer
 62
  256
370
   -1
100
AcDbLine
 10
166
 20
188
 11
210
 21
188
  0
LINE
  5
199
100
AcDbEntity
  8
Server ohne LDAP2
  6
ByLayer
 62
  256
370
   -1
100
AcDbLine
 10
210
 20
188
 11
210
 21
200
  0
LINE
  5
19A
100
AcDbEntity
  8
Server ohne LDAP2
  6
ByLayer
 62
  256
370
   -1
100
AcDbLine
 10
210
 20
200
 11
166
 21
200
  0
LINE
  5
19B
100
AcDbEntity
  8
Server ohne LDAP2
  6
ByLayer
 62
  256
370
   -1
100
AcDbLine
 10
166
 20
200
 11
166
 21
188
  0
LINE
  5
19C
100
AcDbEntity
  8
Firewall
  6
ByLayer
 62
  256
370
   -1
100
AcDbLine
 10
162
 20
200
 11
162
 21
37
  0
LINE
  5
19D
100
AcDbEntity
  8
Firewall
  6
ByLayer
 62
  256
370
   -1
100
AcDbLine
 10
152
 20
37
 11
152
 21
200
  0
LINE
  5
19E
100
AcDbEntity
  8
Firewall
  6
ByLayer
 62
  256
370
   -1
100
AcDbLine
 10
152
 20
200
 11
162
 21
200
  0
MTEXT
  5
19F
100
AcDbEntity
  8
Server ohne LDAP2
  6
ByLayer
 62
  256
370
   -1
100
AcDbMText
 10
164
 20
154
 30
0
 40
3
 41
37.16666603066069
 71
    4
 72
    1
  1
Server ohne LDAP
  7
iso
210
0
220
0
230
1
 50
0
 73
    2
 44
1
  0
MTEXT
  5
1A0
100
AcDbEntity
  8
Firewall
  6
ByLayer
 62
  256
370
   -1
100
AcDbMText
 10
164
 20
147
 30
0
 40
3
 41
15.33333333333361
 71
    4
 72
    1
  1
Internet
  7
iso
210
0
220
0
230
1
 50
0
 73
    2
 44
1
  0
MTEXT
  5
1A1
100
AcDbEntity
  8
Firewall
  6
ByLayer
 62
  256
370
   -1
100
AcDbMText
 10
157
 20
147
 30
0
 40
3
 41
14.6666666666668
 71
    5
 72
    1
  1
Firewall
  7
iso
210
0
220
0
230
1
 50
90
 73
    2
 44
1
  0
MTEXT
  5
1A2
100
AcDbEntity
  8
Server mit LDAP
  6
ByLayer
 62
  256
370
   -1
100
AcDbMText
 10
164
 20
140
 30
0
 40
3
 41
33.83333269732721
 71
    4
 72
    1
  1
Server mit LDAP
  7
iso
210
0
220
0
230
1
 50
0
 73
    2
 44
1
  0
LINE
  5
1A3
100
AcDbEntity
  8
Server mit LDAP
  6
ByLayer
 62
  256
370
   -1
100
AcDbLine
 10
166
 20
80
 11
181
 21
80
  0
LINE
  5
1A4
100
AcDbEntity
  8
Server mit LDAP
  6
ByLayer
 62
  256
370
   -1
100
AcDbLine
 10
166
 20
72
 11
181
 21
72
  0
LINE
  5
1A5
100
AcDbEntity
  8
Server mit LDAP
  6
ByLayer
 62
  256
370
   -1
100
AcDbLine
 10
166
 20
72
 11
166
 21
80
  0
LINE
  5
1A6
100
AcDbEntity
  8
Server mit LDAP
  6
ByLayer
 62
  256
370
   -1
100
AcDbLine
 10
181
 20
80
 11
181
 21
72
  0
LINE
  5
1A7
100
AcDbEntity
  8
Server mit LDAP
  6
ByLayer
 62
  256
370
   -1
100
AcDbLine
 10
166
 20
68
 11
181
 21
68
  0
LINE
  5
1A8
100
AcDbEntity
  8
Server mit LDAP
  6
ByLayer
 62
  256
370
   -1
100
AcDbLine
 10
181
 20
60
 11
166
 21
60
  0
LINE
  5
1A9
100
AcDbEntity
  8
Server mit LDAP
  6
ByLayer
 62
  256
370
   -1
100
AcDbLine
 10
166
 20
60
 11
166
 21
68
  0
LINE
  5
1AA
100
AcDbEntity
  8
Server mit LDAP
  6
ByLayer
 62
  256
370
   -1
100
AcDbLine
 10
181
 20
68
 11
181
 21
60
  0
LINE
  5
1AB
100
AcDbEntity
  8
Server mit LDAP
  6
ByLayer
 62
  256
370
   -1
100
AcDbLine
 10
186
 20
80
 11
186
 21
60
  0
LINE
  5
1AC
100
AcDbEntity
  8
Server mit LDAP
  6
ByLayer
 62
  256
370
   -1
100
AcDbLine
 10
181
 20
76
 11
186
 21
76
  0
LINE
  5
1AD
100
AcDbEntity
  8
Server mit LDAP
  6
ByLayer
 62
  256
370
   -1
100
AcDbLine
 10
210
 20
60
 11
210
 21
80
  0
MTEXT
  5
1AE
100
AcDbEntity
  8
Server mit LDAP
  6
ByLayer
 62
  256
370
   -1
100
AcDbMText
 10
198
 20
70
 30
0
 40
3
 41
19
 71
    5
 72
    1
  1
NextCloud
  7
iso
210
0
220
0
230
1
 50
0
 73
    2
 44
1
  0
LINE
  5
1AF
100
AcDbEntity
  8
Server mit LDAP
  6
ByLayer
 62
  256
370
   -1
100
AcDbLine
 10
210
 20
80
 11
186
 21
80
  0
LINE
  5
1B0
100
AcDbEntity
  8
Server mit LDAP
  6
ByLayer
 62
  256
370
   -1
100
AcDbLine
 10
186
 20
60
 11
210
 21
60
  0
LINE
  5
1B1
100
AcDbEntity
  8
Server mit LDAP
  6
ByLayer
 62
  256
370
   -1
100
AcDbLine
 10
166
 20
64
 11
164
 21
64
  0
LINE
  5
1B2
100
AcDbEntity
  8
Server mit LDAP
  6
ByLayer
 62
  256
370
   -1
100
AcDbLine
 10
163
 20
64
 11
161
 21
64
  0
LINE
  5
1B3
100
AcDbEntity
  8
Server mit LDAP
  6
ByLayer
 62
  256
370
   -1
100
AcDbLine
 10
160
 20
64
 11
158
 21
64
  0
LINE
  5
1B4
100
AcDbEntity
  8
Server mit LDAP
  6
ByLayer
 62
  256
370
   -1
100
AcDbLine
 10
157
 20
64
 11
155
 21
64
  0
LINE
  5
1B5
100
AcDbEntity
  8
Server mit LDAP
  6
ByLayer
 62
  256
370
   -1
100
AcDbLine
 10
154
 20
64
 11
152
 21
64
  0
LINE
  5
1B6
100
AcDbEntity
  8
Server mit LDAP
  6
ByLayer
 62
  256
370
   -1
100
AcDbLine
 10
151
 20
64
 11
149
 21
64
  0
LINE
  5
1B7
100
AcDbEntity
  8
Server mit LDAP
  6
ByLayer
 62
  256
370
   -1
100
AcDbLine
 10
181
 20
64
 11
183
 21
64
  0
LINE
  5
1B8
100
AcDbEntity
  8
Server mit LDAP
  6
ByLayer
 62
  256
370
   -1
100
AcDbLine
 10
184
 20
64
 11
186
 21
64
  0
LINE
  5
1B9
100
AcDbEntity
  8
Server mit LDAP
  6
ByLayer
 62
  256
370
   -1
100
AcDbLine
 10
186
 20
108
 11
186
 21
88
  0
LINE
  5
1BA
100
AcDbEntity
  8
Server mit LDAP
  6
ByLayer
 62
  256
370
   -1
100
AcDbLine
 10
210
 20
88
 11
210
 21
108
  0
LINE
  5
1BB
100
AcDbEntity
  8
Server mit LDAP
  6
ByLayer
 62
  256
370
   -1
100
AcDbLine
 10
210
 20
108
 11
186
 21
108
  0
LINE
  5
1BC
100
AcDbEntity
  8
Server mit LDAP
  6
ByLayer
 62
  256
370
   -1
100
AcDbLine
 10
186
 20
88
 11
210
 21
88
  0
LINE
  5
1BD
100
AcDbEntity
  8
Server mit LDAP
  6
ByLayer
 62
  256
370
   -1
100
AcDbLine
 10
186
 20
136
 11
186
 21
116
  0
LINE
  5
1BE
100
AcDbEntity
  8
Server mit LDAP
  6
ByLayer
 62
  256
370
   -1
100
AcDbLine
 10
210
 20
116
 11
210
 21
136
  0
LINE
  5
1BF
100
AcDbEntity
  8
Server mit LDAP
  6
ByLayer
 62
  256
370
   -1
100
AcDbLine
 10
210
 20
136
 11
186
 21
136
  0
LINE
  5
1C0
100
AcDbEntity
  8
Server mit LDAP
  6
ByLayer
 62
  256
370
   -1
100
AcDbLine
 10
186
 20
116
 11
210
 21
116
  0
LINE
  5
1C1
100
AcDbEntity
  8
Server mit LDAP
  6
ByLayer
 62
  256
370
   -1
100
AcDbLine
 10
122
 20
76
 11
125
 21
77
  0
LINE
  5
1C2
100
AcDbEntity
  8
Server mit LDAP
  6
ByLayer
 62
  256
370
   -1
100
AcDbLine
 10
125
 20
77
 11
125
 21
75
  0
LINE
  5
1C3
100
AcDbEntity
  8
Server mit LDAP
  6
ByLayer
 62
  256
370
   -1
100
AcDbLine
 10
125
 20
75
 11
122
 21
76
  0
LINE
  5
1C4
100
AcDbEntity
  8
Server mit LDAP
  6
ByLayer
 62
  256
370
   -1
100
AcDbLine
 10
122
 20
64
 11
125
 21
65
  0
LINE
  5
1C5
100
AcDbEntity
  8
Server mit LDAP
  6
ByLayer
 62
  256
370
   -1
100
AcDbLine
 10
125
 20
65
 11
125
 21
63
  0
LINE
  5
1C6
100
AcDbEntity
  8
Server mit LDAP
  6
ByLayer
 62
  256
370
   -1
100
AcDbLine
 10
125
 20
63
 11
122
 21
64
  0
LINE
  5
1C7
100
AcDbEntity
  8
Server mit LDAP
  6
ByLayer
 62
  256
370
   -1
100
AcDbLine
 10
166
 20
76
 11
125
 21
76
  0
LINE
  5
1C8
100
AcDbEntity
  8
Server mit LDAP
  6
ByLayer
 62
  256
370
   -1
100
AcDbLine
 10
148
 20
64
 11
146
 21
64
  0
LINE
  5
1C9
100
AcDbEntity
  8
Server mit LDAP
  6
ByLayer
 62
  256
370
   -1
100
AcDbLine
 10
145
 20
64
 11
143
 21
64
  0
LINE
  5
1CA
100
AcDbEntity
  8
Server mit LDAP
  6
ByLayer
 62
  256
370
   -1
100
AcDbLine
 10
142
 20
64
 11
140
 21
64
  0
LINE
  5
1CB
100
AcDbEntity
  8
Server mit LDAP
  6
ByLayer
 62
  256
370
   -1
100
AcDbLine
 10
139
 20
64
 11
137
 21
64
  0
LINE
  5
1CC
100
AcDbEntity
  8
Server mit LDAP
  6
ByLayer
 62
  256
370
   -1
100
AcDbLine
 10
136
 20
64
 11
134
 21
64
  0
LINE
  5
1CD
100
AcDbEntity
  8
Server mit LDAP
  6
ByLayer
 62
  256
370
   -1
100
AcDbLine
 10
133
 20
64
 11
131
 21
64
  0
LINE
  5
1CE
100
AcDbEntity
  8
Server mit LDAP
  6
ByLayer
 62
  256
370
   -1
100
AcDbLine
 10
130
 20
64
 11
128
 21
64
  0
LINE
  5
1CF
100
AcDbEntity
  8
Server mit LDAP
  6
ByLayer
 62
  256
370
   -1
100
AcDbLine
 10
127
 20
64
 11
125
 21
64
  0
MTEXT
  5
1D0
100
AcDbEntity
  8
Server mit LDAP
  6
ByLayer
 62
  256
370
   -1
100
AcDbMText
 10
198
 20
126
 30
0
 40
3
 41
18.33333333333352
 71
    5
 72
    1
  1
Dokuwiki/\PSchul-\Pportfolio
  7
iso
210
0
220
0
230
1
 50
0
 73
    2
 44
1
  0
MTEXT
  5
1D1
100
AcDbEntity
  8
Server mit LDAP
  6
ByLayer
 62
  256
370
   -1
100
AcDbMText
 10
198
 20
98
 30
0
 40
3
 41
16.33333333333361
 71
    5
 72
    1
  1
Moodle\PLern-\Pplatform
  7
iso
210
0
220
0
230
1
 50
0
 73
    2
 44
1
  0
LINE
  5
1D2
100
AcDbEntity
  8
Server mit LDAP
  6
ByLayer
 62
  256
370
   -1
100
AcDbLine
 10
122
 20
103
 11
125
 21
104
  0
LINE
  5
1D3
100
AcDbEntity
  8
Server mit LDAP
  6
ByLayer
 62
  256
370
   -1
100
AcDbLine
 10
125
 20
104
 11
125
 21
102
  0
LINE
  5
1D4
100
AcDbEntity
  8
Server mit LDAP
  6
ByLayer
 62
  256
370
   -1
100
AcDbLine
 10
125
 20
102
 11
122
 21
103
  0
LINE
  5
1D5
100
AcDbEntity
  8
Server mit LDAP
  6
ByLayer
 62
  256
370
   -1
100
AcDbLine
 10
122
 20
126
 11
125
 21
127
  0
LINE
  5
1D6
100
AcDbEntity
  8
Server mit LDAP
  6
ByLayer
 62
  256
370
   -1
100
AcDbLine
 10
125
 20
127
 11
125
 21
125
  0
LINE
  5
1D7
100
AcDbEntity
  8
Server mit LDAP
  6
ByLayer
 62
  256
370
   -1
100
AcDbLine
 10
125
 20
125
 11
122
 21
126
  0
LINE
  5
1D8
100
AcDbEntity
  8
Server mit LDAP
  6
ByLayer
 62
  256
370
   -1
100
AcDbLine
 10
186
 20
126
 11
125
 21
126
  0
LINE
  5
1D9
100
AcDbEntity
  8
Server mit LDAP
  6
ByLayer
 62
  256
370
   -1
100
AcDbLine
 10
186
 20
103
 11
125
 21
103
  0
LINE
  5
1DA
100
AcDbEntity
  8
Server ohne LDAP2
  6
ByLayer
 62
  256
370
   -1
100
AcDbLine
 10
166
 20
179
 11
163
 21
180
  0
LINE
  5
1DB
100
AcDbEntity
  8
Server ohne LDAP2
  6
ByLayer
 62
  256
370
   -1
100
AcDbLine
 10
166
 20
179
 11
163
 21
178
  0
LINE
  5
1DC
100
AcDbEntity
  8
Server ohne LDAP2
  6
ByLayer
 62
  256
370
   -1
100
AcDbLine
 10
163
 20
178
 11
163
 21
180
  0
LINE
  5
1DD
100
AcDbEntity
  8
Server ohne LDAP2
  6
ByLayer
 62
  256
370
   -1
100
AcDbLine
 10
163
 20
179
 11
126
 21
179
  0
LINE
  5
1DE
100
AcDbEntity
  8
Server ohne LDAP2
  6
ByLayer
 62
  256
370
   -1
100
AcDbLine
 10
166
 20
167
 11
163
 21
168
  0
LINE
  5
1DF
100
AcDbEntity
  8
Server ohne LDAP2
  6
ByLayer
 62
  256
370
   -1
100
AcDbLine
 10
166
 20
167
 11
163
 21
166
  0
LINE
  5
1E0
100
AcDbEntity
  8
Server ohne LDAP2
  6
ByLayer
 62
  256
370
   -1
100
AcDbLine
 10
163
 20
166
 11
163
 21
168
  0
LINE
  5
1E1
100
AcDbEntity
  8
Server ohne LDAP2
  6
ByLayer
 62
  256
370
   -1
100
AcDbLine
 10
163
 20
167
 11
126
 21
167
  0
LINE
  5
1E2
100
AcDbEntity
  8
Server ohne LDAP2
  6
ByLayer
 62
  256
370
   -1
100
AcDbLine
 10
166
 20
161
 11
163
 21
162
  0
LINE
  5
1E3
100
AcDbEntity
  8
Server ohne LDAP2
  6
ByLayer
 62
  256
370
   -1
100
AcDbLine
 10
166
 20
161
 11
163
 21
160
  0
LINE
  5
1E4
100
AcDbEntity
  8
Server ohne LDAP2
  6
ByLayer
 62
  256
370
   -1
100
AcDbLine
 10
163
 20
160
 11
163
 21
162
  0
LINE
  5
1E5
100
AcDbEntity
  8
Server ohne LDAP2
  6
ByLayer
 62
  256
370
   -1
100
AcDbLine
 10
117
 20
144
 11
117
 21
155
  0
LINE
  5
1E6
100
AcDbEntity
  8
Server ohne LDAP2
  6
ByLayer
 62
  256
370
   -1
100
AcDbLine
 10
163
 20
161
 11
127
 21
161
  0
LINE
  5
1E7
100
AcDbEntity
  8
Server ohne LDAP2
  6
ByLayer
 62
  256
370
   -1
100
AcDbLine
 10
127
 20
155
 11
107
 21
155
  0
LINE
  5
1E8
100
AcDbEntity
  8
Server ohne LDAP2
  6
ByLayer
 62
  256
370
   -1
100
AcDbLine
 10
107
 20
163
 11
127
 21
163
  0
LINE
  5
1E9
100
AcDbEntity
  8
Server ohne LDAP2
  6
ByLayer
 62
  256
370
   -1
100
AcDbLine
 10
107
 20
163
 11
107
 21
155
  0
LINE
  5
1EA
100
AcDbEntity
  8
Server ohne LDAP2
  6
ByLayer
 62
  256
370
   -1
100
AcDbLine
 10
127
 20
163
 11
127
 21
155
  0
LINE
  5
1EB
100
AcDbEntity
  8
Server ohne LDAP2
  6
ByLayer
 62
  256
370
   -1
100
AcDbLine
 10
-75
 20
116
 11
-75
 21
194
  0
LINE
  5
1EC
100
AcDbEntity
  8
Server ohne LDAP2
  6
ByLayer
 62
  256
370
   -1
100
AcDbLine
 10
166
 20
194
 11
163
 21
195
  0
LINE
  5
1ED
100
AcDbEntity
  8
Server ohne LDAP2
  6
ByLayer
 62
  256
370
   -1
100
AcDbLine
 10
163
 20
195
 11
163
 21
193
  0
LINE
  5
1EE
100
AcDbEntity
  8
Server ohne LDAP2
  6
ByLayer
 62
  256
370
   -1
100
AcDbLine
 10
163
 20
193
 11
166
 21
194
  0
LINE
  5
1EF
100
AcDbEntity
  8
Server ohne LDAP2
  6
ByLayer
 62
  256
370
   -1
100
AcDbLine
 10
163
 20
194
 11
-75
 21
194
  0
LINE
  5
1F0
100
AcDbEntity
  8
Server ohne LDAP2
  6
ByLayer
 62
  256
370
   -1
100
AcDbLine
 10
-76
 20
194
 11
-78
 21
194
  0
LINE
  5
1F1
100
AcDbEntity
  8
Server ohne LDAP2
  6
ByLayer
 62
  256
370
   -1
100
AcDbLine
 10
-79
 20
194
 11
-81
 21
194
  0
LINE
  5
1F2
100
AcDbEntity
  8
Server ohne LDAP2
  6
ByLayer
 62
  256
370
   -1
100
AcDbLine
 10
-82
 20
194
 11
-84
 21
194
  0
LINE
  5
1F3
100
AcDbEntity
  8
Server ohne LDAP2
  6
ByLayer
 62
  256
370
   -1
100
AcDbLine
 10
-85
 20
194
 11
-87
 21
194
  0
LINE
  5
1F4
100
AcDbEntity
  8
Server ohne LDAP2
  6
ByLayer
 62
  256
370
   -1
100
AcDbLine
 10
-88
 20
194
 11
-90
 21
194
  0
LINE
  5
1F5
100
AcDbEntity
  8
Server ohne LDAP2
  6
ByLayer
 62
  256
370
   -1
100
AcDbLine
 10
-91
 20
194
 11
-93
 21
194
  0
LINE
  5
1F6
100
AcDbEntity
  8
Server ohne LDAP2
  6
ByLayer
 62
  256
370
   -1
100
AcDbLine
 10
-94
 20
194
 11
-96
 21
194
  0
LINE
  5
1F7
100
AcDbEntity
  8
Server ohne LDAP2
  6
ByLayer
 62
  256
370
   -1
100
AcDbLine
 10
-97
 20
194
 11
-99
 21
194
  0
LINE
  5
1F8
100
AcDbEntity
  8
Server ohne LDAP2
  6
ByLayer
 62
  256
370
   -1
100
AcDbLine
 10
-100
 20
194
 11
-102
 21
194
  0
LINE
  5
1F9
100
AcDbEntity
  8
Server ohne LDAP2
  6
ByLayer
 62
  256
370
   -1
100
AcDbLine
 10
-103
 20
194
 11
-105
 21
194
  0
LINE
  5
1FA
100
AcDbEntity
  8
Server ohne LDAP2
  6
ByLayer
 62
  256
370
   -1
100
AcDbLine
 10
-105
 20
129
 11
-105
 21
131
  0
LINE
  5
1FB
100
AcDbEntity
  8
Server ohne LDAP2
  6
ByLayer
 62
  256
370
   -1
100
AcDbLine
 10
-105
 20
132
 11
-105
 21
134
  0
LINE
  5
1FC
100
AcDbEntity
  8
Server ohne LDAP2
  6
ByLayer
 62
  256
370
   -1
100
AcDbLine
 10
-105
 20
135
 11
-105
 21
137
  0
LINE
  5
1FD
100
AcDbEntity
  8
Server ohne LDAP2
  6
ByLayer
 62
  256
370
   -1
100
AcDbLine
 10
-105
 20
138
 11
-105
 21
140
  0
LINE
  5
1FE
100
AcDbEntity
  8
Server ohne LDAP2
  6
ByLayer
 62
  256
370
   -1
100
AcDbLine
 10
-105
 20
141
 11
-105
 21
143
  0
LINE
  5
1FF
100
AcDbEntity
  8
Server ohne LDAP2
  6
ByLayer
 62
  256
370
   -1
100
AcDbLine
 10
-105
 20
144
 11
-105
 21
146
  0
LINE
  5
200
100
AcDbEntity
  8
Server ohne LDAP2
  6
ByLayer
 62
  256
370
   -1
100
AcDbLine
 10
-105
 20
147
 11
-105
 21
149
  0
LINE
  5
201
100
AcDbEntity
  8
Server ohne LDAP2
  6
ByLayer
 62
  256
370
   -1
100
AcDbLine
 10
-105
 20
150
 11
-105
 21
152
  0
LINE
  5
202
100
AcDbEntity
  8
Server ohne LDAP2
  6
ByLayer
 62
  256
370
   -1
100
AcDbLine
 10
-105
 20
168
 11
-105
 21
170
  0
LINE
  5
203
100
AcDbEntity
  8
Server ohne LDAP2
  6
ByLayer
 62
  256
370
   -1
100
AcDbLine
 10
-105
 20
171
 11
-105
 21
173
  0
LINE
  5
204
100
AcDbEntity
  8
Server ohne LDAP2
  6
ByLayer
 62
  256
370
   -1
100
AcDbLine
 10
-105
 20
174
 11
-105
 21
176
  0
LINE
  5
205
100
AcDbEntity
  8
Server ohne LDAP2
  6
ByLayer
 62
  256
370
   -1
100
AcDbLine
 10
-105
 20
177
 11
-105
 21
179
  0
LINE
  5
206
100
AcDbEntity
  8
Server ohne LDAP2
  6
ByLayer
 62
  256
370
   -1
100
AcDbLine
 10
-105
 20
180
 11
-105
 21
182
  0
LINE
  5
207
100
AcDbEntity
  8
Server ohne LDAP2
  6
ByLayer
 62
  256
370
   -1
100
AcDbLine
 10
-105
 20
183
 11
-105
 21
185
  0
LINE
  5
208
100
AcDbEntity
  8
Server ohne LDAP2
  6
ByLayer
 62
  256
370
   -1
100
AcDbLine
 10
-105
 20
186
 11
-105
 21
188
  0
LINE
  5
209
100
AcDbEntity
  8
Server ohne LDAP2
  6
ByLayer
 62
  256
370
   -1
100
AcDbLine
 10
-105
 20
189
 11
-105
 21
191
  0
LINE
  5
20A
100
AcDbEntity
  8
Server ohne LDAP2
  6
ByLayer
 62
  256
370
   -1
100
AcDbLine
 10
-105
 20
192
 11
-105
 21
194
  0
LINE
  5
20B
100
AcDbEntity
  8
SVP-Export
  6
ByLayer
 62
  256
370
   -1
100
AcDbLine
 10
-93
 20
31
 11
-117
 21
31
  0
LINE
  5
20C
100
AcDbEntity
  8
SVP-Export
  6
ByLayer
 62
  256
370
   -1
100
AcDbLine
 10
-117
 20
31
 11
-117
 21
76
  0
LINE
  5
20D
100
AcDbEntity
  8
SVP-Export
  6
ByLayer
 62
  256
370
   -1
100
AcDbLine
 10
-117
 20
76
 11
-93
 21
76
  0
LINE
  5
20E
100
AcDbEntity
  8
SVP-Export
  6
ByLayer
 62
  256
370
   -1
100
AcDbLine
 10
-93
 20
76
 11
-93
 21
31
  0
LINE
  5
20F
100
AcDbEntity
  8
SVP-Export
  6
ByLayer
 62
  256
370
   -1
100
AcDbLine
 10
-85
 20
47
 11
-88
 21
48
  0
LINE
  5
210
100
AcDbEntity
  8
SVP-Export
  6
ByLayer
 62
  256
370
   -1
100
AcDbLine
 10
-88
 20
48
 11
-88
 21
46
  0
LINE
  5
211
100
AcDbEntity
  8
SVP-Export
  6
ByLayer
 62
  256
370
   -1
100
AcDbLine
 10
-88
 20
46
 11
-85
 21
47
  0
LINE
  5
212
100
AcDbEntity
  8
SVP-Export
  6
ByLayer
 62
  256
370
   -1
100
AcDbLine
 10
-88
 20
47
 11
-93
 21
47
  0
MTEXT
  5
213
100
AcDbEntity
  8
SVP-Export
  6
ByLayer
 62
  256
370
   -1
100
AcDbMText
 10
-82
 20
48
 30
0
 40
2
 41
1.333333333333333
 71
    4
 72
    1
  1
...
  7
iso
210
0
220
0
230
1
 50
0
 73
    2
 44
1
  0
MTEXT
  5
214
100
AcDbEntity
  8
Server ohne LDAP2
  6
ByLayer
 62
  256
370
   35
100
AcDbMText
 10
-105
 20
160
 30
0
 40
2
 41
14.88888888888898
 71
    5
 72
    1
  1
Exportdatei\Pfr\PDigitales\PTagebuch
  7
iso
210
0
220
0
230
1
 50
0
 73
    2
 44
1
  0
LINE
  5
215
100
AcDbEntity
  8
Server ohne LDAP2
  6
ByLayer
 62
  256
370
   -1
100
AcDbLine
 10
-114
 20
168
 11
-96
 21
168
  0
LINE
  5
216
100
AcDbEntity
  8
Server ohne LDAP2
  6
ByLayer
 62
  256
370
   -1
100
AcDbLine
 10
-114
 20
152
 11
-96
 21
152
  0
LINE
  5
217
100
AcDbEntity
  8
Server ohne LDAP2
  6
ByLayer
 62
  256
370
   -1
100
AcDbLine
 10
-114
 20
168
 11
-114
 21
152
  0
LINE
  5
218
100
AcDbEntity
  8
Server ohne LDAP2
  6
ByLayer
 62
  256
370
   -1
100
AcDbLine
 10
-96
 20
168
 11
-96
 21
152
  0
MTEXT
  5
219
100
AcDbEntity
  8
Server ohne LDAP2
  6
ByLayer
 62
  256
370
   35
100
AcDbMText
 10
-103
 20
176
 30
0
 40
2
 41
21.72222222222259
 71
    4
 72
    1
  1
Nicht empfohlen:\Panderer Export \Pwie fr \Psamba AD
  7
iso
210
0
220
0
230
1
 50
0
 73
    2
 44
1
  0
MTEXT
  5
21A
100
AcDbEntity
  8
Server ohne LDAP2
  6
ByLayer
 62
  256
370
   35
100
AcDbMText
 10
-73
 20
176
 30
0
 40
2
 41
20.16666666666694
 71
    4
 72
    1
  1
Empfohlen:\Pgleicher Export \Pwie fr \Psamba AD
  7
iso
210
0
220
0
230
1
 50
0
 73
    2
 44
1
  0
MTEXT
  5
21B
100
AcDbEntity
  8
Server ohne LDAP2
  6
ByLayer
 62
  256
370
   35
100
AcDbMText
 10
-56
 20
191
 30
0
 40
2
 41
20.83333436190813
 71
    5
 72
    1
  1
Datei einspielen
  7
iso
210
0
220
0
230
1
 50
0
 73
    2
 44
1
  0
MTEXT
  5
21C
100
AcDbEntity
  8
Server ohne LDAP2
  6
ByLayer
 62
  256
370
   35
100
AcDbMText
 10
125
 20
167
 30
0
 40
2
 41
12.44444547301903
 71
    6
 72
    1
  1
Manuelles \Peintragen
  7
iso
210
0
220
0
230
1
 50
0
 73
    2
 44
1
  0
MTEXT
  5
21D
100
AcDbEntity
  8
Server ohne LDAP2
  6
ByLayer
 62
  256
370
   35
100
AcDbMText
 10
125
 20
179
 30
0
 40
2
 41
12.44444547301903
 71
    6
 72
    1
  1
Manuelles \Peintragen
  7
iso
210
0
220
0
230
1
 50
0
 73
    2
 44
1
  0
MTEXT
  5
21E
100
AcDbEntity
  8
Server ohne LDAP2
  6
ByLayer
 62
  256
370
   35
100
AcDbMText
 10
117
 20
160
 30
0
 40
2
 41
16.66666666666688
 71
    5
 72
    1
  1
Datei-Export
  7
iso
210
0
220
0
230
1
 50
0
 73
    2
 44
1
  0
MTEXT
  5
21F
100
AcDbEntity
  8
Server ohne LDAP2
  6
ByLayer
 62
  256
370
   -1
100
AcDbMText
 10
188
 20
164
 30
0
 40
3
 41
9.000000000000279
 71
    5
 72
    1
  1
Email
  7
iso
210
0
220
0
230
1
 50
0
 73
    2
 44
1
  0
MTEXT
  5
220
100
AcDbEntity
  8
Server ohne LDAP2
  6
ByLayer
 62
  256
370
   -1
100
AcDbMText
 10
188
 20
194
 30
0
 40
3
 41
37.25000154286262
 71
    5
 72
    1
  1
Digitales Tagebuch
  7
iso
210
0
220
0
230
1
 50
0
 73
    2
 44
1
  0
MTEXT
  5
221
100
AcDbEntity
  8
Server ohne LDAP2
  6
ByLayer
 62
  256
370
   -1
100
AcDbMText
 10
188
 20
179
 30
0
 40
3
 41
38.25000000000102
 71
    5
 72
    1
  1
MDM - Mobile \PDevice Management
  7
iso
210
0
220
0
230
1
 50
0
 73
    2
 44
1
  0
MTEXT
  5
222
100
AcDbEntity
  8
Server mit LDAP
  6
ByLayer
 62
  256
370
   35
100
AcDbMText
 10
174
 20
76
 30
0
 40
2
 41
7.111112139685507
 71
    5
 72
    1
  1
User-\PFilter
  7
iso
210
0
220
0
230
1
 50
0
 73
    2
 44
1
  0
MTEXT
  5
223
100
AcDbEntity
  8
Server mit LDAP
  6
ByLayer
 62
  256
370
   35
100
AcDbMText
 10
174
 20
64
 30
0
 40
2
 41
11.77777777777799
 71
    5
 72
    1
  1
Gruppen-\PFilter
  7
iso
210
0
220
0
230
1
 50
0
 73
    2
 44
1
  0
MTEXT
  5
224
100
AcDbEntity
  8
Server mit LDAP
  6
ByLayer
 62
  256
370
   35
100
AcDbMText
 10
138
 20
128
 30
0
 40
2
 41
18.88888888888929
 71
    5
 72
    1
  1
LDAP-Abfrage
  7
iso
210
0
220
0
230
1
 50
0
 73
    2
 44
1
  0
MTEXT
  5
225
100
AcDbEntity
  8
Server mit LDAP
  6
ByLayer
 62
  256
370
   35
100
AcDbMText
 10
138
 20
105
 30
0
 40
2
 41
18.88888888888929
 71
    5
 72
    1
  1
LDAP-Abfrage
  7
iso
210
0
220
0
230
1
 50
0
 73
    2
 44
1
  0
MTEXT
  5
226
100
AcDbEntity
  8
Server mit LDAP
  6
ByLayer
 62
  256
370
   35
100
AcDbMText
 10
138
 20
78
 30
0
 40
2
 41
18.88888888888929
 71
    5
 72
    1
  1
LDAP-Abfrage
  7
iso
210
0
220
0
230
1
 50
0
 73
    2
 44
1
  0
MTEXT
  5
227
100
AcDbEntity
  8
Server mit LDAP
  6
ByLayer
 62
  256
370
   35
100
AcDbMText
 10
138
 20
66
 30
0
 40
2
 41
18.88888888888929
 71
    5
 72
    1
  1
LDAP-Abfrage
  7
iso
210
0
220
0
230
1
 50
0
 73
    2
 44
1
  0
MTEXT
  5
228
100
AcDbEntity
  8
Firewall
  6
ByLayer
 62
  256
370
   -1
100
AcDbMText
 10
150
 20
147
 30
0
 40
3
 41
17.99999933333375
 71
    6
 72
    1
  1
Schule\P(Intranet)
  7
iso
210
0
220
0
230
1
 50
0
 73
    2
 44
1
  0
MTEXT
  5
229
100
AcDbEntity
  8
SVP-Export
  6
ByLayer
 62
  256
370
   35
100
AcDbMText
 10
-75
 20
100
 30
0
 40
2
 41
14.88888888888898
 71
    5
 72
    1
  1
SVP\PExportdatei\Pcsv-Format\PDatum im\PDateinamen
  7
iso
210
0
220
0
230
1
 50
0
 73
    2
 44
1
  0
MTEXT
  5
22A
100
AcDbEntity
  8
SVP-Export
  6
ByLayer
 62
  256
370
   35
100
AcDbMText
 10
-55
 20
109
 30
0
 40
2
 41
19.49999955555592
 71
    5
 72
    1
  1
webui upload\P(+human filter)
  7
iso
210
0
220
0
230
1
 50
0
 73
    2
 44
1
  0
MTEXT
  5
22B
100
AcDbEntity
  8
SVP-Export
  6
ByLayer
 62
  256
370
   35
100
AcDbMText
 10
-55
 20
96
 30
0
 40
2
 41
16.83333333333352
 71
    5
 72
    1
  1
webui upload\P(copy only)
  7
iso
210
0
220
0
230
1
 50
0
 73
    2
 44
1
  0
MTEXT
  5
22C
100
AcDbEntity
  8
SVP-Export
  6
ByLayer
 62
  256
370
   35
100
AcDbMText
 10
-55
 20
85
 30
0
 40
2
 41
12.11187305516052
 71
    5
 72
    1
  1
scp o. h
  7
iso
210
0
220
0
230
1
 50
0
 73
    2
 44
1
  0
MTEXT
  5
22D
100
AcDbEntity
  8
SVP-Export
  6
ByLayer
 62
  256
370
   -1
100
AcDbMText
 10
-105
 20
116
 30
0
 40
3
 41
19.33333487619534
 71
    5
 72
    1
  1
SVP\PSchulver-\Pwaltungs-\Pprogramm
  7
iso
210
0
220
0
230
1
 50
0
 73
    2
 44
1
  0
MTEXT
  5
22E
100
AcDbEntity
  8
SVP-Export
  6
ByLayer
 62
  256
370
   -1
100
AcDbMText
 10
-105
 20
63
 30
0
 40
3
 41
11.99999936399369
 71
    5
 72
    1
  1
SVP\PSchule\P"ltg"
  7
iso
210
0
220
0
230
1
 50
0
 73
    2
 44
1
  0
ENDSEC
  0
SECTION
  2
OBJECTS
  0
DICTIONARY
  5
C
330
0
100
AcDbDictionary
281
    1
  3
ACAD_GROUP
350
D
  0
DICTIONARY
  5
D
330
C
100
AcDbDictionary
281
    1
  0
ENDSEC
  0
EOF
