999
dxfrw 0.5.10
0
SECTION
2
HEADER
9
$ACADVER
1
AC1021
9
$HANDSEED
5
20000
9
$DWGCODEPAGE
3
ANSI_1252
9
$INSBASE
10
0
20
0
30
0
9
$EXTMIN
10
-84
20
22
30
0
9
$EXTMAX
10
122
20
149.25
30
0
9
$LIMMIN
10
0
20
0
9
$LIMMAX
10
420
20
297
9
$ORTHOMODE
70
0
9
$LTSCALE
40
1
9
$TEXTSTYLE
7
STANDARD
9
$CLAYER
8
Schulen
9
$DIMASZ
40
2.5
9
$DIMLFAC
40
1
9
$DIMSCALE
40
1
9
$DIMEXO
40
0.625
9
$DIMEXE
40
1.25
9
$DIMTXT
40
2.5
9
$DIMTSZ
40
0
9
$DIMAUNIT
70
0
9
$DIMADEC
70
2
9
$DIMLUNIT
70
2
9
$DIMSTYLE
2
STANDARD
9
$DIMGAP
40
0.625
9
$DIMTIH
70
0
9
$LUNITS
70
2
9
$LUPREC
70
4
9
$AUNITS
70
0
9
$AUPREC
70
2
9
$SPLINESEGS
70
8
9
$GRIDMODE
70
1
9
$SNAPSTYLE
70
0
9
$GRIDUNIT
10
0
20
0
9
$PINSBASE
10
69.1902669271
20
-11.8594292535
30
0
9
$PLIMMIN
10
0
20
0
9
$PLIMMAX
10
297
20
210
9
$INSUNITS
70
4
9
$PSVPSCALE
40
1.25
0
ENDSEC
0
SECTION
2
CLASSES
0
ENDSEC
0
SECTION
2
TABLES
0
TABLE
2
VPORT
5
8
330
0
100
AcDbSymbolTable
70
1
0
VPORT
5
31
330
2
100
AcDbSymbolTableRecord
100
AcDbViewportTableRecord
2
*ACTIVE
70
0
10
0
20
0
11
1
21
1
12
71.6648863636
22
75.1931818182
13
0
23
0
14
10
24
10
15
10
25
10
16
0
26
0
36
1
17
0
27
0
37
0
40
129.563636364
41
1.91785714286
42
50
43
0
44
0
50
0
51
0
71
0
72
100
73
1
74
3
75
0
76
1
77
0
78
0
281
0
65
1
110
0
120
0
130
0
111
1
121
0
131
0
112
0
122
1
132
0
79
0
146
0
348
10020
60
7
61
5
292
1
282
1
141
0
142
0
63
250
421
3358443
0
ENDTAB
0
TABLE
2
LTYPE
5
5
330
0
100
AcDbSymbolTable
70
4
0
LTYPE
5
14
330
5
100
AcDbSymbolTableRecord
100
AcDbLinetypeTableRecord
2
ByBlock
70
0
3

72
65
73
0
40
0
0
LTYPE
5
15
330
5
100
AcDbSymbolTableRecord
100
AcDbLinetypeTableRecord
2
ByLayer
70
0
3

72
65
73
0
40
0
0
LTYPE
5
16
330
5
100
AcDbSymbolTableRecord
100
AcDbLinetypeTableRecord
2
Continuous
70
0
3
Solid line
72
65
73
0
40
0
0
LTYPE
5
32
330
5
100
AcDbSymbolTableRecord
100
AcDbLinetypeTableRecord
2
DOT
70
0
3
Dot . . . . . . . . . . . . . . . . . . . . . .
72
65
73
2
40
6.35
49
0
74
0
49
-6.35
74
0
0
LTYPE
5
33
330
5
100
AcDbSymbolTableRecord
100
AcDbLinetypeTableRecord
2
DOT2
70
0
3
Dot (.5x) .....................................
72
65
73
2
40
3.175
49
0
74
0
49
-3.175
74
0
0
LTYPE
5
34
330
5
100
AcDbSymbolTableRecord
100
AcDbLinetypeTableRecord
2
DOTX2
70
0
3
Dot (2x) .  .  .  .  .  .  .  .  .  .  .  .  .
72
65
73
2
40
12.7
49
0
74
0
49
-12.7
74
0
0
LTYPE
5
35
330
5
100
AcDbSymbolTableRecord
100
AcDbLinetypeTableRecord
2
DASHED
70
0
3
Dot . . . . . . . . . . . . . . . . . . . . . .
72
65
73
2
40
19.05
49
12.7
74
0
49
-6.35
74
0
0
LTYPE
5
36
330
5
100
AcDbSymbolTableRecord
100
AcDbLinetypeTableRecord
2
DASHED2
70
0
3
Dashed (.5x) _ _ _ _ _ _ _ _ _ _ _ _ _ _ _ _ _
72
65
73
2
40
9.525
49
6.35
74
0
49
-3.175
74
0
0
LTYPE
5
37
330
5
100
AcDbSymbolTableRecord
100
AcDbLinetypeTableRecord
2
DASHEDX2
70
0
3
Dashed (2x) ____  ____  ____  ____  ____  ___
72
65
73
2
40
38.1
49
25.4
74
0
49
-12.7
74
0
0
LTYPE
5
38
330
5
100
AcDbSymbolTableRecord
100
AcDbLinetypeTableRecord
2
DASHDOT
70
0
3
Dash dot __ . __ . __ . __ . __ . __ . __ . __
72
65
73
4
40
25.4
49
12.7
74
0
49
-6.35
74
0
49
0
74
0
49
-6.35
74
0
0
LTYPE
5
39
330
5
100
AcDbSymbolTableRecord
100
AcDbLinetypeTableRecord
2
DASHDOT2
70
0
3
Dash dot (.5x) _._._._._._._._._._._._._._._.
72
65
73
4
40
12.7
49
6.35
74
0
49
-3.175
74
0
49
0
74
0
49
-3.175
74
0
0
LTYPE
5
3A
330
5
100
AcDbSymbolTableRecord
100
AcDbLinetypeTableRecord
2
DASHDOTX2
70
0
3
Dash dot (2x) ____  .  ____  .  ____  .  ___
72
65
73
4
40
50.8
49
25.4
74
0
49
-12.7
74
0
49
0
74
0
49
-12.7
74
0
0
LTYPE
5
3B
330
5
100
AcDbSymbolTableRecord
100
AcDbLinetypeTableRecord
2
DIVIDE
70
0
3
Divide ____ . . ____ . . ____ . . ____ . . ____
72
65
73
6
40
31.75
49
12.7
74
0
49
-6.35
74
0
49
0
74
0
49
-6.35
74
0
49
0
74
0
49
-6.35
74
0
0
LTYPE
5
3C
330
5
100
AcDbSymbolTableRecord
100
AcDbLinetypeTableRecord
2
DIVIDE2
70
0
3
Divide (.5x) __..__..__..__..__..__..__..__.._
72
65
73
6
40
15.875
49
6.35
74
0
49
-3.175
74
0
49
0
74
0
49
-3.175
74
0
49
0
74
0
49
-3.175
74
0
0
LTYPE
5
3D
330
5
100
AcDbSymbolTableRecord
100
AcDbLinetypeTableRecord
2
DIVIDEX2
70
0
3
Divide (2x) ________  .  .  ________  .  .  _
72
65
73
6
40
63.5
49
25.4
74
0
49
-12.7
74
0
49
0
74
0
49
-12.7
74
0
49
0
74
0
49
-12.7
74
0
0
LTYPE
5
3E
330
5
100
AcDbSymbolTableRecord
100
AcDbLinetypeTableRecord
2
BORDER
70
0
3
Border __ __ . __ __ . __ __ . __ __ . __ __ .
72
65
73
6
40
44.45
49
12.7
74
0
49
-6.35
74
0
49
12.7
74
0
49
-6.35
74
0
49
0
74
0
49
-6.35
74
0
0
LTYPE
5
3F
330
5
100
AcDbSymbolTableRecord
100
AcDbLinetypeTableRecord
2
BORDER2
70
0
3
Border (.5x) __.__.__.__.__.__.__.__.__.__.__.
72
65
73
6
40
22.225
49
6.35
74
0
49
-3.175
74
0
49
6.35
74
0
49
-3.175
74
0
49
0
74
0
49
-3.175
74
0
0
LTYPE
5
40
330
5
100
AcDbSymbolTableRecord
100
AcDbLinetypeTableRecord
2
BORDERX2
70
0
3
Border (2x) ____  ____  .  ____  ____  .  ___
72
65
73
6
40
88.9
49
25.4
74
0
49
-12.7
74
0
49
25.4
74
0
49
-12.7
74
0
49
0
74
0
49
-12.7
74
0
0
LTYPE
5
41
330
5
100
AcDbSymbolTableRecord
100
AcDbLinetypeTableRecord
2
CENTER
70
0
3
Center ____ _ ____ _ ____ _ ____ _ ____ _ ____
72
65
73
4
40
50.8
49
31.75
74
0
49
-6.35
74
0
49
6.35
74
0
49
-6.35
74
0
0
LTYPE
5
42
330
5
100
AcDbSymbolTableRecord
100
AcDbLinetypeTableRecord
2
CENTER2
70
0
3
Center (.5x) ___ _ ___ _ ___ _ ___ _ ___ _ ___
72
65
73
4
40
28.575
49
19.05
74
0
49
-3.175
74
0
49
3.175
74
0
49
-3.175
74
0
0
LTYPE
5
43
330
5
100
AcDbSymbolTableRecord
100
AcDbLinetypeTableRecord
2
CENTERX2
70
0
3
Center (2x) ________  __  ________  __  _____
72
65
73
4
40
101.6
49
63.5
74
0
49
-12.7
74
0
49
12.7
74
0
49
-12.7
74
0
0
ENDTAB
0
TABLE
2
LAYER
5
2
330
0
100
AcDbSymbolTable
70
1
0
LAYER
5
10
330
2
100
AcDbSymbolTableRecord
100
AcDbLayerTableRecord
2
0
70
0
62
7
6
CONTINUOUS
370
0
390
F
0
LAYER
5
44
330
2
100
AcDbSymbolTableRecord
100
AcDbLayerTableRecord
2
Dateien_etc
70
0
62
1
6
CONTINUOUS
370
35
390
F
0
LAYER
5
45
330
2
100
AcDbSymbolTableRecord
100
AcDbLayerTableRecord
2
sophomorix-check
70
0
62
96
420
32768
6
CONTINUOUS
370
35
390
F
0
LAYER
5
46
330
2
100
AcDbSymbolTableRecord
100
AcDbLayerTableRecord
2
check-result
70
0
62
6
6
CONTINUOUS
370
35
390
F
0
LAYER
5
47
330
2
100
AcDbSymbolTableRecord
100
AcDbLayerTableRecord
2
Schulen
70
0
62
2
6
CONTINUOUS
370
50
390
F
0
LAYER
5
48
330
2
100
AcDbSymbolTableRecord
100
AcDbLayerTableRecord
2
Samba-AD - System
70
0
62
4
6
CONTINUOUS
370
50
390
F
0
LAYER
5
49
330
2
100
AcDbSymbolTableRecord
100
AcDbLayerTableRecord
2
sophomorix-device
70
0
62
3
6
CONTINUOUS
370
35
390
F
0
LAYER
5
4A
330
2
100
AcDbSymbolTableRecord
100
AcDbLayerTableRecord
2
update-add-move-kill
70
0
62
1
6
CONTINUOUS
370
35
390
F
0
LAYER
5
4B
330
2
100
AcDbSymbolTableRecord
100
AcDbLayerTableRecord
2
sophomorix-newfile
70
0
62
6
6
CONTINUOUS
370
35
390
F
0
LAYER
5
4C
330
2
100
AcDbSymbolTableRecord
100
AcDbLayerTableRecord
2
SVP-Export
70
0
62
4
6
CONTINUOUS
370
35
390
F
0
ENDTAB
0
TABLE
2
STYLE
5
3
330
0
100
AcDbSymbolTable
70
3
0
STYLE
5
4D
330
2
100
AcDbSymbolTableRecord
100
AcDbTextStyleTableRecord
2
iso
70
0
40
0
41
1
50
0
71
0
42
1
3
iso
4

0
STYLE
5
4E
330
2
100
AcDbSymbolTableRecord
100
AcDbTextStyleTableRecord
2
Standard
70
0
40
0
41
1
50
0
71
0
42
1
3
txt
4

0
ENDTAB
0
TABLE
2
VIEW
5
6
330
0
100
AcDbSymbolTable
70
0
0
ENDTAB
0
TABLE
2
UCS
5
7
330
0
100
AcDbSymbolTable
70
0
0
ENDTAB
0
TABLE
2
APPID
5
9
330
0
100
AcDbSymbolTable
70
1
0
APPID
5
12
330
9
100
AcDbSymbolTableRecord
100
AcDbRegAppTableRecord
2
ACAD
70
0
0
ENDTAB
0
TABLE
2
DIMSTYLE
5
A
330
0
100
AcDbSymbolTable
70
1
100
AcDbDimStyleTable
71
1
0
DIMSTYLE
105
4F
330
A
100
AcDbSymbolTableRecord
100
AcDbDimStyleTableRecord
2
Standard
70
0
40
1
41
2.5
42
0.625
43
0.38
44
1.25
45
0
46
0
47
0
48
0
140
2.5
141
0.09
142
0
143
25.4
144
1
145
0
146
1
147
0.625
148
0
71
0
72
0
73
0
74
1
75
0
76
0
77
0
78
0
79
0
170
0
171
2
172
0
173
0
174
0
175
0
176
0
177
0
178
0
179
0
271
4
272
4
273
2
274
2
275
0
276
0
277
2
278
46
279
0
280
0
281
0
282
0
283
1
284
0
285
0
286
0
288
0
289
3
340
Standard
341

371
-2
372
-2
0
ENDTAB
0
TABLE
2
BLOCK_RECORD
5
1
330
0
100
AcDbSymbolTable
70
2
0
BLOCK_RECORD
5
1F
330
1
100
AcDbSymbolTableRecord
100
AcDbBlockTableRecord
2
*Model_Space
70
0
280
1
281
0
0
BLOCK_RECORD
5
1E
330
1
100
AcDbSymbolTableRecord
100
AcDbBlockTableRecord
2
*Paper_Space
70
0
280
1
281
0
0
ENDTAB
0
ENDSEC
0
SECTION
2
BLOCKS
0
BLOCK
5
20
330
1F
100
AcDbEntity
8
0
100
AcDbBlockBegin
2
*Model_Space
70
0
10
0
20
0
30
0
3
*Model_Space
1

0
ENDBLK
5
21
330
1F
100
AcDbEntity
8
0
100
AcDbBlockEnd
0
BLOCK
5
1C
330
1B
100
AcDbEntity
8
0
100
AcDbBlockBegin
2
*Paper_Space
70
0
10
0
20
0
30
0
3
*Paper_Space
1

0
ENDBLK
5
1D
330
1F
100
AcDbEntity
8
0
100
AcDbBlockEnd
0
ENDSEC
0
SECTION
2
ENTITIES
0
LINE
5
50
100
AcDbEntity
8
Dateien_etc
6
ByLayer
62
256
370
-1
100
AcDbLine
10
5
20
126
11
35
21
126
0
LINE
5
51
100
AcDbEntity
8
Dateien_etc
6
ByLayer
62
256
370
-1
100
AcDbLine
10
5
20
120
11
35
21
120
0
LINE
5
52
100
AcDbEntity
8
Dateien_etc
6
ByLayer
62
256
370
-1
100
AcDbLine
10
5
20
120
11
5
21
126
0
LINE
5
53
100
AcDbEntity
8
Dateien_etc
6
ByLayer
62
256
370
-1
100
AcDbLine
10
35
20
126
11
35
21
120
0
LINE
5
54
100
AcDbEntity
8
Dateien_etc
6
ByLayer
62
256
370
-1
100
AcDbLine
10
5
20
118
11
35
21
118
0
LINE
5
55
100
AcDbEntity
8
Dateien_etc
6
ByLayer
62
256
370
-1
100
AcDbLine
10
5
20
112
11
35
21
112
0
LINE
5
56
100
AcDbEntity
8
Dateien_etc
6
ByLayer
62
256
370
-1
100
AcDbLine
10
5
20
112
11
5
21
118
0
LINE
5
57
100
AcDbEntity
8
Dateien_etc
6
ByLayer
62
256
370
-1
100
AcDbLine
10
35
20
118
11
35
21
112
0
LINE
5
58
100
AcDbEntity
8
Dateien_etc
6
ByLayer
62
256
370
-1
100
AcDbLine
10
5
20
110
11
35
21
110
0
LINE
5
59
100
AcDbEntity
8
Dateien_etc
6
ByLayer
62
256
370
-1
100
AcDbLine
10
5
20
104
11
35
21
104
0
LINE
5
5A
100
AcDbEntity
8
Dateien_etc
6
ByLayer
62
256
370
-1
100
AcDbLine
10
5
20
104
11
5
21
110
0
LINE
5
5B
100
AcDbEntity
8
Dateien_etc
6
ByLayer
62
256
370
-1
100
AcDbLine
10
35
20
110
11
35
21
104
0
LINE
5
5C
100
AcDbEntity
8
Dateien_etc
6
ByLayer
62
256
370
-1
100
AcDbLine
10
5
20
102
11
35
21
102
0
LINE
5
5D
100
AcDbEntity
8
Dateien_etc
6
ByLayer
62
256
370
-1
100
AcDbLine
10
5
20
96
11
35
21
96
0
LINE
5
5E
100
AcDbEntity
8
Dateien_etc
6
ByLayer
62
256
370
-1
100
AcDbLine
10
5
20
96
11
5
21
102
0
LINE
5
5F
100
AcDbEntity
8
Dateien_etc
6
ByLayer
62
256
370
-1
100
AcDbLine
10
35
20
102
11
35
21
96
0
LINE
5
60
100
AcDbEntity
8
Dateien_etc
6
ByLayer
62
256
370
-1
100
AcDbLine
10
0
20
134
11
35
21
134
0
LINE
5
61
100
AcDbEntity
8
Dateien_etc
6
ByLayer
62
256
370
-1
100
AcDbLine
10
35
20
134
11
35
21
128
0
LINE
5
62
100
AcDbEntity
8
Dateien_etc
6
ByLayer
62
256
370
-1
100
AcDbLine
10
35
20
128
11
0
21
128
0
LINE
5
63
100
AcDbEntity
8
Dateien_etc
6
ByLayer
62
256
370
-1
100
AcDbLine
10
0
20
128
11
0
21
134
0
LINE
5
64
100
AcDbEntity
8
Dateien_etc
6
ByLayer
62
256
370
-1
100
AcDbLine
10
35
20
144
11
35
21
138
0
LINE
5
65
100
AcDbEntity
8
Schulen
6
ByLayer
62
256
370
-1
100
AcDbLine
10
-3
20
141
11
-3
21
141
0
MTEXT
5
66
100
AcDbEntity
8
Dateien_etc
6
ByLayer
62
256
370
-1
100
AcDbMText
10
20
20
123
30
0
40
2
41
16.4452084456
71
5
72
1
1
students.csv
7
iso
210
0
220
0
230
1
50
0
73
2
44
1
0
MTEXT
5
67
100
AcDbEntity
8
Dateien_etc
6
ByLayer
62
256
370
-1
100
AcDbMText
10
20
20
115
30
0
40
2
41
16.2222242794
71
5
72
1
1
teachers.csv
7
iso
210
0
220
0
230
1
50
0
73
2
44
1
0
MTEXT
5
68
100
AcDbEntity
8
Dateien_etc
6
ByLayer
62
256
370
-1
100
AcDbMText
10
20
20
107
30
0
40
2
41
23.7777808635
71
5
72
1
1
extrastudents.csv
7
iso
210
0
220
0
230
1
50
0
73
2
44
1
0
MTEXT
5
69
100
AcDbEntity
8
Dateien_etc
6
ByLayer
62
256
370
-1
100
AcDbMText
10
20
20
99
30
0
40
2
41
21.7777818921
71
5
72
1
1
extraclasses.csv
7
iso
210
0
220
0
230
1
50
0
73
2
44
1
0
LINE
5
6A
100
AcDbEntity
8
Dateien_etc
6
ByLayer
62
256
370
-1
100
AcDbLine
10
5
20
94
11
35
21
94
0
LINE
5
6B
100
AcDbEntity
8
Dateien_etc
6
ByLayer
62
256
370
-1
100
AcDbLine
10
5
20
88
11
35
21
88
0
LINE
5
6C
100
AcDbEntity
8
Dateien_etc
6
ByLayer
62
256
370
-1
100
AcDbLine
10
5
20
88
11
5
21
94
0
LINE
5
6D
100
AcDbEntity
8
Dateien_etc
6
ByLayer
62
256
370
-1
100
AcDbLine
10
35
20
94
11
35
21
88
0
MTEXT
5
6E
100
AcDbEntity
8
Dateien_etc
6
ByLayer
62
256
370
-1
100
AcDbMText
10
20
20
91
30
0
40
2
41
14.2222242794
71
5
72
1
1
devices.csv
7
iso
210
0
220
0
230
1
50
0
73
2
44
1
0
LINE
5
6F
100
AcDbEntity
8
Dateien_etc
6
ByLayer
62
256
370
-1
100
AcDbLine
10
0
20
84
11
35
21
84
0
LINE
5
70
100
AcDbEntity
8
Dateien_etc
6
ByLayer
62
256
370
-1
100
AcDbLine
10
35
20
84
11
35
21
78
0
LINE
5
71
100
AcDbEntity
8
Dateien_etc
6
ByLayer
62
256
370
-1
100
AcDbLine
10
35
20
78
11
0
21
78
0
LINE
5
72
100
AcDbEntity
8
Dateien_etc
6
ByLayer
62
256
370
-1
100
AcDbLine
10
0
20
78
11
0
21
84
0
LINE
5
73
100
AcDbEntity
8
Dateien_etc
6
ByLayer
62
256
370
-1
100
AcDbLine
10
5
20
76
11
35
21
76
0
LINE
5
74
100
AcDbEntity
8
Dateien_etc
6
ByLayer
62
256
370
-1
100
AcDbLine
10
5
20
70
11
35
21
70
0
LINE
5
75
100
AcDbEntity
8
Dateien_etc
6
ByLayer
62
256
370
-1
100
AcDbLine
10
5
20
70
11
5
21
76
0
LINE
5
76
100
AcDbEntity
8
Dateien_etc
6
ByLayer
62
256
370
-1
100
AcDbLine
10
35
20
76
11
35
21
70
0
LINE
5
77
100
AcDbEntity
8
Dateien_etc
6
ByLayer
62
256
370
-1
100
AcDbLine
10
5
20
68
11
35
21
68
0
LINE
5
78
100
AcDbEntity
8
Dateien_etc
6
ByLayer
62
256
370
-1
100
AcDbLine
10
5
20
62
11
35
21
62
0
LINE
5
79
100
AcDbEntity
8
Dateien_etc
6
ByLayer
62
256
370
-1
100
AcDbLine
10
5
20
62
11
5
21
68
0
LINE
5
7A
100
AcDbEntity
8
Dateien_etc
6
ByLayer
62
256
370
-1
100
AcDbLine
10
35
20
68
11
35
21
62
0
LINE
5
7B
100
AcDbEntity
8
Dateien_etc
6
ByLayer
62
256
370
-1
100
AcDbLine
10
5
20
60
11
35
21
60
0
LINE
5
7C
100
AcDbEntity
8
Dateien_etc
6
ByLayer
62
256
370
-1
100
AcDbLine
10
5
20
54
11
35
21
54
0
LINE
5
7D
100
AcDbEntity
8
Dateien_etc
6
ByLayer
62
256
370
-1
100
AcDbLine
10
5
20
54
11
5
21
60
0
LINE
5
7E
100
AcDbEntity
8
Dateien_etc
6
ByLayer
62
256
370
-1
100
AcDbLine
10
35
20
60
11
35
21
54
0
LINE
5
7F
100
AcDbEntity
8
Dateien_etc
6
ByLayer
62
256
370
-1
100
AcDbLine
10
5
20
52
11
35
21
52
0
LINE
5
80
100
AcDbEntity
8
Dateien_etc
6
ByLayer
62
256
370
-1
100
AcDbLine
10
5
20
46
11
35
21
46
0
LINE
5
81
100
AcDbEntity
8
Dateien_etc
6
ByLayer
62
256
370
-1
100
AcDbLine
10
5
20
46
11
5
21
52
0
LINE
5
82
100
AcDbEntity
8
Dateien_etc
6
ByLayer
62
256
370
-1
100
AcDbLine
10
35
20
52
11
35
21
46
0
LINE
5
83
100
AcDbEntity
8
Schulen
6
ByLayer
62
256
370
-1
100
AcDbLine
10
36
20
85
11
36
21
85
0
LINE
5
84
100
AcDbEntity
8
Schulen
6
ByLayer
62
256
370
-1
100
AcDbLine
10
36
20
45
11
36
21
45
0
LINE
5
85
100
AcDbEntity
8
Schulen
6
ByLayer
62
256
370
-1
100
AcDbLine
10
36
20
45
11
36
21
85
0
MTEXT
5
86
100
AcDbEntity
8
Dateien_etc
6
ByLayer
62
256
370
-1
100
AcDbMText
10
20
20
73
30
0
40
2
41
20.8888919746
71
5
72
1
1
ltg.students.csv
7
iso
210
0
220
0
230
1
50
0
73
2
44
1
0
MTEXT
5
87
100
AcDbEntity
8
Dateien_etc
6
ByLayer
62
256
370
-1
100
AcDbMText
10
20
20
65
30
0
40
2
41
20.6666687238
71
5
72
1
1
ltg.teachers.csv
7
iso
210
0
220
0
230
1
50
0
73
2
44
1
0
MTEXT
5
88
100
AcDbEntity
8
Dateien_etc
6
ByLayer
62
256
370
-1
100
AcDbMText
10
20
20
57
30
0
40
2
41
28.2222253079
71
5
72
1
1
ltg.extrastudents.csv
7
iso
210
0
220
0
230
1
50
0
73
2
44
1
0
MTEXT
5
89
100
AcDbEntity
8
Dateien_etc
6
ByLayer
62
256
370
-1
100
AcDbMText
10
20
20
49
30
0
40
2
41
26.2222263365
71
5
72
1
1
ltg.extraclasses.csv
7
iso
210
0
220
0
230
1
50
0
73
2
44
1
0
MTEXT
5
8A
100
AcDbEntity
8
Dateien_etc
6
ByLayer
62
256
370
-1
100
AcDbMText
10
18
20
81
30
0
40
2
41
18.6666676952
71
5
72
1
1
ltg.school.conf
7
iso
210
0
220
0
230
1
50
0
73
2
44
1
0
LINE
5
8B
100
AcDbEntity
8
Dateien_etc
6
ByLayer
62
256
370
-1
100
AcDbLine
10
5
20
44
11
35
21
44
0
LINE
5
8C
100
AcDbEntity
8
Dateien_etc
6
ByLayer
62
256
370
-1
100
AcDbLine
10
5
20
38
11
35
21
38
0
LINE
5
8D
100
AcDbEntity
8
Dateien_etc
6
ByLayer
62
256
370
-1
100
AcDbLine
10
5
20
38
11
5
21
44
0
LINE
5
8E
100
AcDbEntity
8
Dateien_etc
6
ByLayer
62
256
370
-1
100
AcDbLine
10
35
20
44
11
35
21
38
0
LINE
5
8F
100
AcDbEntity
8
Schulen
6
ByLayer
62
256
370
-1
100
AcDbLine
10
36
20
85
11
36
21
37
0
LINE
5
90
100
AcDbEntity
8
Schulen
6
ByLayer
62
256
370
-1
100
AcDbLine
10
36
20
135
11
36
21
87
0
MTEXT
5
91
100
AcDbEntity
8
Dateien_etc
6
ByLayer
62
256
370
-1
100
AcDbMText
10
18
20
131
30
0
40
2
41
14.2229841663
71
5
72
1
1
school.conf
7
iso
210
0
220
0
230
1
50
0
73
2
44
1
0
MTEXT
5
92
100
AcDbEntity
8
Dateien_etc
6
ByLayer
62
256
370
-1
100
AcDbMText
10
11
20
141
30
0
40
2
41
20.6674286107
71
5
72
1
1
sophomorix.conf
7
iso
210
0
220
0
230
1
50
0
73
2
44
1
0
MTEXT
5
93
100
AcDbEntity
8
Schulen
6
ByLayer
62
256
370
35
100
AcDbMText
10
-2
20
91
30
0
40
2
41
22.6111111111
71
4
72
1
1
Definiert Dateien
7
iso
210
0
220
0
230
1
50
90
73
2
44
1
0
MTEXT
5
94
100
AcDbEntity
8
Schulen
6
ByLayer
62
256
370
35
100
AcDbMText
10
-2
20
41
30
0
40
2
41
22.6111111111
71
4
72
1
1
Definiert Dateien
7
iso
210
0
220
0
230
1
50
90
73
2
44
1
0
LINE
5
95
100
AcDbEntity
8
sophomorix-device
6
ByLayer
62
256
370
-1
100
AcDbLine
10
40
20
134
11
40
21
128
0
LINE
5
96
100
AcDbEntity
8
sophomorix-device
6
ByLayer
62
256
370
-1
100
AcDbLine
10
40
20
126
11
40
21
121
0
LINE
5
97
100
AcDbEntity
8
sophomorix-device
6
ByLayer
62
256
370
-1
100
AcDbLine
10
40
20
91
11
36
21
91
0
LINE
5
98
100
AcDbEntity
8
sophomorix-device
6
ByLayer
62
256
370
-1
100
AcDbLine
10
40
20
41
11
36
21
41
0
LINE
5
99
100
AcDbEntity
8
sophomorix-check
6
ByLayer
62
256
370
-1
100
AcDbLine
10
38
20
49
11
36
21
49
0
LINE
5
9A
100
AcDbEntity
8
sophomorix-check
6
ByLayer
62
256
370
-1
100
AcDbLine
10
38
20
57
11
36
21
57
0
LINE
5
9B
100
AcDbEntity
8
sophomorix-check
6
ByLayer
62
256
370
-1
100
AcDbLine
10
36
20
73
11
38
21
73
0
LINE
5
9C
100
AcDbEntity
8
sophomorix-check
6
ByLayer
62
256
370
-1
100
AcDbLine
10
35
20
99
11
38
21
99
0
LINE
5
9D
100
AcDbEntity
8
sophomorix-check
6
ByLayer
62
256
370
-1
100
AcDbLine
10
35
20
107
11
38
21
107
0
LINE
5
9E
100
AcDbEntity
8
sophomorix-check
6
ByLayer
62
256
370
-1
100
AcDbLine
10
35
20
115
11
38
21
115
0
LINE
5
9F
100
AcDbEntity
8
sophomorix-check
6
ByLayer
62
256
370
-1
100
AcDbLine
10
35
20
123
11
38
21
123
0
LINE
5
A0
100
AcDbEntity
8
sophomorix-check
6
ByLayer
62
256
370
-1
100
AcDbLine
10
38
20
90
11
38
21
49
0
LINE
5
A1
100
AcDbEntity
8
sophomorix-check
6
ByLayer
62
256
370
-1
100
AcDbLine
10
38
20
92
11
38
21
127
0
LINE
5
A2
100
AcDbEntity
8
sophomorix-check
6
ByLayer
62
256
370
-1
100
AcDbLine
10
38
20
65
11
36
21
65
0
MTEXT
5
A3
100
AcDbEntity
8
Dateien_etc
6
ByLayer
62
256
370
-1
100
AcDbMText
10
20
20
41
30
0
40
2
41
18.6666687238
71
5
72
1
1
ltg.devices.csv
7
iso
210
0
220
0
230
1
50
0
73
2
44
1
0
LINE
5
A4
100
AcDbEntity
8
Dateien_etc
6
ByLayer
62
256
370
-1
100
AcDbLine
10
-5
20
144
11
-5
21
138
0
LINE
5
A5
100
AcDbEntity
8
Schulen
6
ByLayer
62
256
370
-1
100
AcDbLine
10
-5
20
141
11
-10
21
141
0
LINE
5
A6
100
AcDbEntity
8
Dateien_etc
6
ByLayer
62
256
370
-1
100
AcDbLine
10
-5
20
144
11
35
21
144
0
LINE
5
A7
100
AcDbEntity
8
Dateien_etc
6
ByLayer
62
256
370
-1
100
AcDbLine
10
-5
20
138
11
35
21
138
0
LINE
5
A8
100
AcDbEntity
8
Schulen
6
ByLayer
62
256
370
-1
100
AcDbLine
10
-6
20
135
11
36
21
135
0
LINE
5
A9
100
AcDbEntity
8
Schulen
6
ByLayer
62
256
370
-1
100
AcDbLine
10
36
20
87
11
-6
21
87
0
LINE
5
AA
100
AcDbEntity
8
Schulen
6
ByLayer
62
256
370
-1
100
AcDbLine
10
-6
20
85
11
36
21
85
0
LINE
5
AB
100
AcDbEntity
8
Schulen
6
ByLayer
62
256
370
-1
100
AcDbLine
10
36
20
37
11
-6
21
37
0
MTEXT
5
AC
100
AcDbEntity
8
Dateien_etc
6
ByLayer
62
256
370
-1
100
AcDbMText
10
14
20
148
30
0
40
2.5
41
31.8055555556
71
5
72
1
1
Dateien unter /etc
7
iso
210
0
220
0
230
1
50
0
73
2
44
1
0
MTEXT
5
AD
100
AcDbEntity
8
Schulen
6
ByLayer
62
256
370
35
100
AcDbMText
10
-13
20
102
30
0
40
2
41
22.8333329093
71
6
72
1
1
Definiert Schulen
7
iso
210
0
220
0
230
1
50
90
73
2
44
1
0
LINE
5
AE
100
AcDbEntity
8
Schulen
6
ByLayer
62
256
370
-1
100
AcDbLine
10
-10
20
111
11
-6
21
111
0
LINE
5
AF
100
AcDbEntity
8
Schulen
6
ByLayer
62
256
370
-1
100
AcDbLine
10
-10
20
61
11
-6
21
61
0
MTEXT
5
B0
100
AcDbEntity
8
Schulen
6
ByLayer
62
256
370
35
100
AcDbMText
10
-12
20
111
30
0
40
2
41
19.1111121397
71
6
72
1
1
default-school
7
iso
210
0
220
0
230
1
50
0
73
2
44
1
0
MTEXT
5
B1
100
AcDbEntity
8
Schulen
6
ByLayer
62
256
370
35
100
AcDbMText
10
-12
20
61
30
0
40
2
41
16.1666662427
71
6
72
1
1
Schule "ltg"
7
iso
210
0
220
0
230
1
50
0
73
2
44
1
0
LINE
5
B2
100
AcDbEntity
8
sophomorix-check
6
ByLayer
62
256
370
-1
100
AcDbLine
10
59
20
38
11
51
21
38
0
LINE
5
B3
100
AcDbEntity
8
sophomorix-check
6
ByLayer
62
256
370
-1
100
AcDbLine
10
51
20
108
11
59
21
108
0
LINE
5
B4
100
AcDbEntity
8
sophomorix-check
6
ByLayer
62
256
370
-1
100
AcDbLine
10
51
20
38
11
51
21
108
0
LINE
5
B5
100
AcDbEntity
8
sophomorix-check
6
ByLayer
62
256
370
-1
100
AcDbLine
10
59
20
38
11
59
21
108
0
MTEXT
5
B6
100
AcDbEntity
8
sophomorix-check
6
ByLayer
62
256
370
-1
100
AcDbMText
10
45
20
31
30
0
40
2.5
41
20.5555555556
71
5
72
1
1
report.office
7
iso
210
0
220
0
230
1
50
0
73
2
44
1
0
LINE
5
B7
100
AcDbEntity
8
check-result
6
ByLayer
62
256
370
-1
100
AcDbLine
10
71
20
108
11
106
21
108
0
LINE
5
B8
100
AcDbEntity
8
check-result
6
ByLayer
62
256
370
-1
100
AcDbLine
10
106
20
108
11
106
21
102
0
LINE
5
B9
100
AcDbEntity
8
check-result
6
ByLayer
62
256
370
-1
100
AcDbLine
10
106
20
102
11
71
21
102
0
LINE
5
BA
100
AcDbEntity
8
check-result
6
ByLayer
62
256
370
-1
100
AcDbLine
10
71
20
102
11
71
21
108
0
LINE
5
BB
100
AcDbEntity
8
check-result
6
ByLayer
62
256
370
-1
100
AcDbLine
10
71
20
90
11
106
21
90
0
LINE
5
BC
100
AcDbEntity
8
check-result
6
ByLayer
62
256
370
-1
100
AcDbLine
10
106
20
90
11
106
21
84
0
LINE
5
BD
100
AcDbEntity
8
check-result
6
ByLayer
62
256
370
-1
100
AcDbLine
10
106
20
84
11
71
21
84
0
LINE
5
BE
100
AcDbEntity
8
check-result
6
ByLayer
62
256
370
-1
100
AcDbLine
10
71
20
84
11
71
21
90
0
LINE
5
BF
100
AcDbEntity
8
check-result
6
ByLayer
62
256
370
-1
100
AcDbLine
10
71
20
72
11
106
21
72
0
LINE
5
C0
100
AcDbEntity
8
check-result
6
ByLayer
62
256
370
-1
100
AcDbLine
10
106
20
72
11
106
21
66
0
LINE
5
C1
100
AcDbEntity
8
check-result
6
ByLayer
62
256
370
-1
100
AcDbLine
10
106
20
66
11
71
21
66
0
LINE
5
C2
100
AcDbEntity
8
check-result
6
ByLayer
62
256
370
-1
100
AcDbLine
10
71
20
66
11
71
21
72
0
LINE
5
C3
100
AcDbEntity
8
check-result
6
ByLayer
62
256
370
-1
100
AcDbLine
10
71
20
54
11
106
21
54
0
LINE
5
C4
100
AcDbEntity
8
check-result
6
ByLayer
62
256
370
-1
100
AcDbLine
10
106
20
54
11
106
21
48
0
LINE
5
C5
100
AcDbEntity
8
check-result
6
ByLayer
62
256
370
-1
100
AcDbLine
10
106
20
48
11
71
21
48
0
LINE
5
C6
100
AcDbEntity
8
check-result
6
ByLayer
62
256
370
-1
100
AcDbLine
10
71
20
48
11
71
21
54
0
MTEXT
5
C7
100
AcDbEntity
8
check-result
6
ByLayer
62
256
370
-1
100
AcDbMText
10
89
20
51
30
0
40
2.5
41
23.6120635412
71
5
72
1
1
sophomorix.kill
7
iso
210
0
220
0
230
1
50
0
73
2
44
1
0
MTEXT
5
C8
100
AcDbEntity
8
check-result
6
ByLayer
62
256
370
-1
100
AcDbMText
10
89
20
69
30
0
40
2.5
41
26.9453968745
71
5
72
1
1
sophomorix.move
7
iso
210
0
220
0
230
1
50
0
73
2
44
1
0
MTEXT
5
C9
100
AcDbEntity
8
check-result
6
ByLayer
62
256
370
-1
100
AcDbMText
10
89
20
87
30
0
40
2.5
41
24.4453968745
71
5
72
1
1
sophomorix.add
7
iso
210
0
220
0
230
1
50
0
73
2
44
1
0
MTEXT
5
CA
100
AcDbEntity
8
check-result
6
ByLayer
62
256
370
-1
100
AcDbMText
10
89
20
105
30
0
40
2.5
41
30.0009524301
71
5
72
1
1
sophomorix.update
7
iso
210
0
220
0
230
1
50
0
73
2
44
1
0
LINE
5
CB
100
AcDbEntity
8
sophomorix-check
6
ByLayer
62
256
370
-1
100
AcDbLine
10
45
20
35
11
44
21
38
0
LINE
5
CC
100
AcDbEntity
8
sophomorix-check
6
ByLayer
62
256
370
-1
100
AcDbLine
10
44
20
38
11
46
21
38
0
LINE
5
CD
100
AcDbEntity
8
sophomorix-check
6
ByLayer
62
256
370
-1
100
AcDbLine
10
46
20
38
11
45
21
35
0
LINE
5
CE
100
AcDbEntity
8
sophomorix-check
6
ByLayer
62
256
370
-1
100
AcDbLine
10
71
20
105
11
61
21
105
0
LINE
5
CF
100
AcDbEntity
8
sophomorix-check
6
ByLayer
62
256
370
-1
100
AcDbLine
10
71
20
105
11
68
21
106
0
LINE
5
D0
100
AcDbEntity
8
sophomorix-check
6
ByLayer
62
256
370
-1
100
AcDbLine
10
68
20
106
11
68
21
104
0
LINE
5
D1
100
AcDbEntity
8
sophomorix-check
6
ByLayer
62
256
370
-1
100
AcDbLine
10
68
20
104
11
71
21
105
0
LINE
5
D2
100
AcDbEntity
8
sophomorix-check
6
ByLayer
62
256
370
-1
100
AcDbLine
10
71
20
87
11
61
21
87
0
LINE
5
D3
100
AcDbEntity
8
sophomorix-check
6
ByLayer
62
256
370
-1
100
AcDbLine
10
71
20
87
11
68
21
88
0
LINE
5
D4
100
AcDbEntity
8
sophomorix-check
6
ByLayer
62
256
370
-1
100
AcDbLine
10
68
20
88
11
68
21
86
0
LINE
5
D5
100
AcDbEntity
8
sophomorix-check
6
ByLayer
62
256
370
-1
100
AcDbLine
10
68
20
86
11
71
21
87
0
LINE
5
D6
100
AcDbEntity
8
sophomorix-check
6
ByLayer
62
256
370
-1
100
AcDbLine
10
71
20
69
11
61
21
69
0
LINE
5
D7
100
AcDbEntity
8
sophomorix-check
6
ByLayer
62
256
370
-1
100
AcDbLine
10
71
20
69
11
68
21
70
0
LINE
5
D8
100
AcDbEntity
8
sophomorix-check
6
ByLayer
62
256
370
-1
100
AcDbLine
10
68
20
70
11
68
21
68
0
LINE
5
D9
100
AcDbEntity
8
sophomorix-check
6
ByLayer
62
256
370
-1
100
AcDbLine
10
68
20
68
11
71
21
69
0
LINE
5
DA
100
AcDbEntity
8
sophomorix-check
6
ByLayer
62
256
370
-1
100
AcDbLine
10
71
20
51
11
61
21
51
0
LINE
5
DB
100
AcDbEntity
8
sophomorix-check
6
ByLayer
62
256
370
-1
100
AcDbLine
10
71
20
51
11
68
21
52
0
LINE
5
DC
100
AcDbEntity
8
sophomorix-check
6
ByLayer
62
256
370
-1
100
AcDbLine
10
68
20
52
11
68
21
50
0
LINE
5
DD
100
AcDbEntity
8
sophomorix-check
6
ByLayer
62
256
370
-1
100
AcDbLine
10
68
20
50
11
71
21
51
0
MTEXT
5
DE
100
AcDbEntity
8
sophomorix-check
6
ByLayer
62
256
370
-1
100
AcDbMText
10
65
20
68
30
0
40
2.5
41
26.5277777778
71
5
72
1
1
Abgleich mit AD
7
iso
210
0
220
0
230
1
50
90
73
2
44
1
0
LINE
5
DF
100
AcDbEntity
8
sophomorix-check
6
ByLayer
62
256
370
-1
100
AcDbLine
10
88
20
127
11
85
21
128
0
LINE
5
E0
100
AcDbEntity
8
sophomorix-check
6
ByLayer
62
256
370
-1
100
AcDbLine
10
85
20
128
11
85
21
126
0
LINE
5
E1
100
AcDbEntity
8
sophomorix-check
6
ByLayer
62
256
370
-1
100
AcDbLine
10
85
20
126
11
88
21
127
0
LINE
5
E2
100
AcDbEntity
8
Samba-AD - System
6
ByLayer
62
256
370
-1
100
AcDbLine
10
122
20
37
11
112
21
37
0
MTEXT
5
E3
100
AcDbEntity
8
Samba-AD - System
6
ByLayer
62
256
370
-1
100
AcDbMText
10
117
20
98
30
0
40
3
41
35.8333336042
71
5
72
1
1
Samba4 - System
7
iso
210
0
220
0
230
1
50
90
73
2
44
1
0
MTEXT
5
E4
100
AcDbEntity
8
update-add-move-kill
6
ByLayer
62
256
370
-1
100
AcDbMText
10
106
20
99
30
0
40
2
41
24.8896508329
71
6
72
1
1
sophomorix-update
7
iso
210
0
220
0
230
1
50
0
73
2
44
1
0
MTEXT
5
E5
100
AcDbEntity
8
update-add-move-kill
6
ByLayer
62
256
370
-1
100
AcDbMText
10
106
20
81
30
0
40
2
41
20.4452063885
71
6
72
1
1
sophomorix-add
7
iso
210
0
220
0
230
1
50
0
73
2
44
1
0
MTEXT
5
E6
100
AcDbEntity
8
update-add-move-kill
6
ByLayer
62
256
370
-1
100
AcDbMText
10
106
20
63
30
0
40
2
41
22.4452063885
71
6
72
1
1
sophomorix-move
7
iso
210
0
220
0
230
1
50
0
73
2
44
1
0
MTEXT
5
E7
100
AcDbEntity
8
update-add-move-kill
6
ByLayer
62
256
370
-1
100
AcDbMText
10
106
20
45
30
0
40
2
41
19.7785397218
71
6
72
1
1
sophomorix-kill
7
iso
210
0
220
0
230
1
50
0
73
2
44
1
0
LINE
5
E8
100
AcDbEntity
8
update-add-move-kill
6
ByLayer
62
256
370
-1
100
AcDbLine
10
112
20
99
11
109
21
100
0
LINE
5
E9
100
AcDbEntity
8
update-add-move-kill
6
ByLayer
62
256
370
-1
100
AcDbLine
10
109
20
100
11
109
21
98
0
LINE
5
EA
100
AcDbEntity
8
update-add-move-kill
6
ByLayer
62
256
370
-1
100
AcDbLine
10
109
20
98
11
112
21
99
0
LINE
5
EB
100
AcDbEntity
8
update-add-move-kill
6
ByLayer
62
256
370
-1
100
AcDbLine
10
112
20
81
11
109
21
82
0
LINE
5
EC
100
AcDbEntity
8
update-add-move-kill
6
ByLayer
62
256
370
-1
100
AcDbLine
10
109
20
82
11
109
21
80
0
LINE
5
ED
100
AcDbEntity
8
update-add-move-kill
6
ByLayer
62
256
370
-1
100
AcDbLine
10
109
20
80
11
112
21
81
0
LINE
5
EE
100
AcDbEntity
8
update-add-move-kill
6
ByLayer
62
256
370
-1
100
AcDbLine
10
112
20
63
11
109
21
64
0
LINE
5
EF
100
AcDbEntity
8
update-add-move-kill
6
ByLayer
62
256
370
-1
100
AcDbLine
10
109
20
64
11
109
21
62
0
LINE
5
F0
100
AcDbEntity
8
update-add-move-kill
6
ByLayer
62
256
370
-1
100
AcDbLine
10
109
20
62
11
112
21
63
0
LINE
5
F1
100
AcDbEntity
8
update-add-move-kill
6
ByLayer
62
256
370
-1
100
AcDbLine
10
112
20
45
11
109
21
46
0
LINE
5
F2
100
AcDbEntity
8
update-add-move-kill
6
ByLayer
62
256
370
-1
100
AcDbLine
10
109
20
46
11
109
21
44
0
LINE
5
F3
100
AcDbEntity
8
update-add-move-kill
6
ByLayer
62
256
370
-1
100
AcDbLine
10
109
20
44
11
112
21
45
0
LINE
5
F4
100
AcDbEntity
8
update-add-move-kill
6
ByLayer
62
256
370
-1
100
AcDbLine
10
107
20
63
11
112
21
63
0
LINE
5
F5
100
AcDbEntity
8
update-add-move-kill
6
ByLayer
62
256
370
-1
100
AcDbLine
10
107
20
81
11
112
21
81
0
LINE
5
F6
100
AcDbEntity
8
update-add-move-kill
6
ByLayer
62
256
370
-1
100
AcDbLine
10
107
20
99
11
112
21
99
0
LINE
5
F7
100
AcDbEntity
8
update-add-move-kill
6
ByLayer
62
256
370
-1
100
AcDbLine
10
107
20
45
11
112
21
45
0
LINE
5
F8
100
AcDbEntity
8
update-add-move-kill
6
ByLayer
62
256
370
-1
100
AcDbLine
10
80
20
99
11
78
21
99
0
LINE
5
F9
100
AcDbEntity
8
update-add-move-kill
6
ByLayer
62
256
370
-1
100
AcDbLine
10
78
20
99
11
78
21
102
0
LINE
5
FA
100
AcDbEntity
8
update-add-move-kill
6
ByLayer
62
256
370
-1
100
AcDbLine
10
78
20
84
11
78
21
81
0
LINE
5
FB
100
AcDbEntity
8
update-add-move-kill
6
ByLayer
62
256
370
-1
100
AcDbLine
10
78
20
81
11
84
21
81
0
LINE
5
FC
100
AcDbEntity
8
update-add-move-kill
6
ByLayer
62
256
370
-1
100
AcDbLine
10
82
20
63
11
78
21
63
0
LINE
5
FD
100
AcDbEntity
8
update-add-move-kill
6
ByLayer
62
256
370
-1
100
AcDbLine
10
78
20
63
11
78
21
66
0
LINE
5
FE
100
AcDbEntity
8
update-add-move-kill
6
ByLayer
62
256
370
-1
100
AcDbLine
10
85
20
45
11
78
21
45
0
LINE
5
FF
100
AcDbEntity
8
update-add-move-kill
6
ByLayer
62
256
370
-1
100
AcDbLine
10
78
20
45
11
78
21
48
0
LINE
5
100
100
AcDbEntity
8
sophomorix-device
6
ByLayer
62
256
370
-1
100
AcDbLine
10
112
20
134
11
109
21
135
0
LINE
5
101
100
AcDbEntity
8
sophomorix-device
6
ByLayer
62
256
370
-1
100
AcDbLine
10
109
20
135
11
109
21
133
0
LINE
5
102
100
AcDbEntity
8
sophomorix-device
6
ByLayer
62
256
370
-1
100
AcDbLine
10
109
20
133
11
112
21
134
0
LINE
5
103
100
AcDbEntity
8
Samba-AD - System
6
ByLayer
62
256
370
-1
100
AcDbLine
10
112
20
144
11
122
21
144
0
LINE
5
104
100
AcDbEntity
8
Samba-AD - System
6
ByLayer
62
256
370
-1
100
AcDbLine
10
112
20
37
11
112
21
144
0
LINE
5
105
100
AcDbEntity
8
Samba-AD - System
6
ByLayer
62
256
370
-1
100
AcDbLine
10
122
20
144
11
122
21
37
0
MTEXT
5
106
100
AcDbEntity
8
sophomorix-check
6
ByLayer
62
256
370
-1
100
AcDbMText
10
45
20
85
30
0
40
2.5
41
46.0416692381
71
5
72
1
1
Plausibilitätetest,  -> utf8
7
iso
210
0
220
0
230
1
50
90
73
2
44
1
0
LINE
5
107
100
AcDbEntity
8
sophomorix-check
6
ByLayer
62
256
370
-1
100
AcDbLine
10
51
20
94
11
48
21
95
0
LINE
5
108
100
AcDbEntity
8
sophomorix-check
6
ByLayer
62
256
370
-1
100
AcDbLine
10
48
20
95
11
48
21
93
0
LINE
5
109
100
AcDbEntity
8
sophomorix-check
6
ByLayer
62
256
370
-1
100
AcDbLine
10
48
20
93
11
51
21
94
0
LINE
5
10A
100
AcDbEntity
8
sophomorix-check
6
ByLayer
62
256
370
-1
100
AcDbLine
10
51
20
60
11
48
21
61
0
LINE
5
10B
100
AcDbEntity
8
sophomorix-check
6
ByLayer
62
256
370
-1
100
AcDbLine
10
48
20
61
11
48
21
59
0
LINE
5
10C
100
AcDbEntity
8
sophomorix-check
6
ByLayer
62
256
370
-1
100
AcDbLine
10
48
20
59
11
51
21
60
0
LINE
5
10D
100
AcDbEntity
8
sophomorix-check
6
ByLayer
62
256
370
-1
100
AcDbLine
10
45
20
58
11
45
21
35
0
LINE
5
10E
100
AcDbEntity
8
sophomorix-check
6
ByLayer
62
256
370
-1
100
AcDbLine
10
38
20
94
11
51
21
94
0
LINE
5
10F
100
AcDbEntity
8
sophomorix-check
6
ByLayer
62
256
370
-1
100
AcDbLine
10
38
20
60
11
51
21
60
0
MTEXT
5
110
100
AcDbEntity
8
sophomorix-check
6
ByLayer
62
256
370
-1
100
AcDbMText
10
41
20
123
30
0
40
2
41
12.6666666667
71
4
72
1
1
--analyze
7
iso
210
0
220
0
230
1
50
0
73
2
44
1
0
MTEXT
5
111
100
AcDbEntity
8
sophomorix-check
6
ByLayer
62
256
370
-1
100
AcDbMText
10
41
20
130
30
0
40
2
41
23.1118730552
71
4
72
1
1
sophomorix-check
7
iso
210
0
220
0
230
1
50
0
73
2
44
1
0
MTEXT
5
112
100
AcDbEntity
8
sophomorix-device
6
ByLayer
62
256
370
-1
100
AcDbMText
10
41
20
137
30
0
40
2
41
24.000761944
71
4
72
1
1
sophomorix-device
7
iso
210
0
220
0
230
1
50
0
73
2
44
1
0
LINE
5
113
100
AcDbEntity
8
sophomorix-check
6
ByLayer
62
256
370
-1
100
AcDbLine
10
38
20
127
11
88
21
127
0
LINE
5
114
100
AcDbEntity
8
sophomorix-device
6
ByLayer
62
256
370
-1
100
AcDbLine
10
40
20
134
11
112
21
134
0
LINE
5
115
100
AcDbEntity
8
Schulen
6
ByLayer
62
256
370
-1
100
AcDbLine
10
1
20
78
11
1
21
41
0
LINE
5
116
100
AcDbEntity
8
Schulen
6
ByLayer
62
256
370
-1
100
AcDbLine
10
1
20
128
11
1
21
91
0
LINE
5
117
100
AcDbEntity
8
Schulen
6
ByLayer
62
256
370
-1
100
AcDbLine
10
1
20
123
11
5
21
123
0
LINE
5
118
100
AcDbEntity
8
Schulen
6
ByLayer
62
256
370
-1
100
AcDbLine
10
5
20
115
11
1
21
115
0
LINE
5
119
100
AcDbEntity
8
Schulen
6
ByLayer
62
256
370
-1
100
AcDbLine
10
5
20
107
11
1
21
107
0
LINE
5
11A
100
AcDbEntity
8
Schulen
6
ByLayer
62
256
370
-1
100
AcDbLine
10
5
20
99
11
1
21
99
0
LINE
5
11B
100
AcDbEntity
8
Schulen
6
ByLayer
62
256
370
-1
100
AcDbLine
10
1
20
91
11
5
21
91
0
LINE
5
11C
100
AcDbEntity
8
Schulen
6
ByLayer
62
256
370
-1
100
AcDbLine
10
5
20
73
11
1
21
73
0
LINE
5
11D
100
AcDbEntity
8
Schulen
6
ByLayer
62
256
370
-1
100
AcDbLine
10
5
20
65
11
1
21
65
0
LINE
5
11E
100
AcDbEntity
8
Schulen
6
ByLayer
62
256
370
-1
100
AcDbLine
10
5
20
57
11
1
21
57
0
LINE
5
11F
100
AcDbEntity
8
Schulen
6
ByLayer
62
256
370
-1
100
AcDbLine
10
5
20
49
11
1
21
49
0
LINE
5
120
100
AcDbEntity
8
Schulen
6
ByLayer
62
256
370
-1
100
AcDbLine
10
1
20
41
11
5
21
41
0
LINE
5
121
100
AcDbEntity
8
sophomorix-newfile
6
ByLayer
62
256
370
-1
100
AcDbLine
10
5
20
125
11
2
21
126
0
LINE
5
122
100
AcDbEntity
8
sophomorix-newfile
6
ByLayer
62
256
370
-1
100
AcDbLine
10
2
20
126
11
2
21
124
0
LINE
5
123
100
AcDbEntity
8
sophomorix-newfile
6
ByLayer
62
256
370
-1
100
AcDbLine
10
2
20
124
11
5
21
125
0
LINE
5
124
100
AcDbEntity
8
sophomorix-newfile
6
ByLayer
62
256
370
-1
100
AcDbLine
10
5
20
75
11
2
21
76
0
LINE
5
125
100
AcDbEntity
8
sophomorix-newfile
6
ByLayer
62
256
370
-1
100
AcDbLine
10
2
20
76
11
2
21
74
0
LINE
5
126
100
AcDbEntity
8
sophomorix-newfile
6
ByLayer
62
256
370
-1
100
AcDbLine
10
2
20
74
11
5
21
75
0
LINE
5
127
100
AcDbEntity
8
sophomorix-device
6
ByLayer
62
256
370
-1
100
AcDbLine
10
40
20
93
11
40
21
91
0
LINE
5
128
100
AcDbEntity
8
sophomorix-device
6
ByLayer
62
256
370
-1
100
AcDbLine
10
40
20
119
11
40
21
95
0
LINE
5
129
100
AcDbEntity
8
sophomorix-device
6
ByLayer
62
256
370
-1
100
AcDbLine
10
40
20
91
11
40
21
61
0
LINE
5
12A
100
AcDbEntity
8
sophomorix-device
6
ByLayer
62
256
370
-1
100
AcDbLine
10
40
20
59
11
40
21
41
0
LINE
5
12B
100
AcDbEntity
8
check-result
6
ByLayer
62
256
370
-1
100
AcDbLine
10
88
20
129
11
88
21
108
0
LINE
5
12C
100
AcDbEntity
8
check-result
6
ByLayer
62
256
370
-1
100
AcDbLine
10
88
20
97
11
88
21
90
0
LINE
5
12D
100
AcDbEntity
8
check-result
6
ByLayer
62
256
370
-1
100
AcDbLine
10
88
20
78
11
88
21
72
0
LINE
5
12E
100
AcDbEntity
8
check-result
6
ByLayer
62
256
370
-1
100
AcDbLine
10
88
20
60
11
88
21
54
0
MTEXT
5
12F
100
AcDbEntity
8
check-result
6
ByLayer
62
256
370
-1
100
AcDbMText
10
91
20
119
30
0
40
2
41
16.444445473
71
5
72
1
1
check-result
7
iso
210
0
220
0
230
1
50
90
73
2
44
1
0
LINE
5
130
100
AcDbEntity
8
sophomorix-check
6
ByLayer
62
256
370
-1
100
AcDbLine
10
55
20
122
11
55
21
108
0
LINE
5
131
100
AcDbEntity
8
sophomorix-check
6
ByLayer
62
256
370
-1
100
AcDbLine
10
55
20
120
11
52
21
121
0
LINE
5
132
100
AcDbEntity
8
sophomorix-check
6
ByLayer
62
256
370
-1
100
AcDbLine
10
52
20
121
11
52
21
119
0
LINE
5
133
100
AcDbEntity
8
sophomorix-check
6
ByLayer
62
256
370
-1
100
AcDbLine
10
52
20
119
11
55
21
120
0
LINE
5
134
100
AcDbEntity
8
sophomorix-check
6
ByLayer
62
256
370
-1
100
AcDbLine
10
38
20
120
11
55
21
120
0
MTEXT
5
135
100
AcDbEntity
8
sophomorix-newfile
6
ByLayer
62
256
370
-1
100
AcDbMText
10
-13
20
127
30
0
40
2
41
25.3340952774
71
5
72
1
1
sophomorix-newfile
7
iso
210
0
220
0
230
1
50
0
73
2
44
1
0
MTEXT
5
136
100
AcDbEntity
8
sophomorix-newfile
6
ByLayer
62
256
370
-1
100
AcDbMText
10
-13
20
77
30
0
40
2
41
25.3340952774
71
5
72
1
1
sophomorix-newfile
7
iso
210
0
220
0
230
1
50
0
73
2
44
1
0
MTEXT
5
137
100
AcDbEntity
8
sophomorix-newfile
6
ByLayer
62
256
370
-1
100
AcDbMText
10
-16
20
123
30
0
40
2
41
18.5555555556
71
5
72
1
1
cp oder Filter
7
iso
210
0
220
0
230
1
50
0
73
2
44
1
0
MTEXT
5
138
100
AcDbEntity
8
sophomorix-newfile
6
ByLayer
62
256
370
-1
100
AcDbMText
10
-16
20
73
30
0
40
2
41
18.5555555556
71
5
72
1
1
cp oder Filter
7
iso
210
0
220
0
230
1
50
0
73
2
44
1
0
LINE
5
139
100
AcDbEntity
8
sophomorix-newfile
6
ByLayer
62
256
370
-1
100
AcDbLine
10
-57
20
126
11
-27
21
126
0
LINE
5
13A
100
AcDbEntity
8
sophomorix-newfile
6
ByLayer
62
256
370
-1
100
AcDbLine
10
-57
20
120
11
-27
21
120
0
LINE
5
13B
100
AcDbEntity
8
sophomorix-newfile
6
ByLayer
62
256
370
-1
100
AcDbLine
10
-57
20
120
11
-57
21
126
0
LINE
5
13C
100
AcDbEntity
8
sophomorix-newfile
6
ByLayer
62
256
370
-1
100
AcDbLine
10
-27
20
126
11
-27
21
120
0
MTEXT
5
13D
100
AcDbEntity
8
sophomorix-newfile
6
ByLayer
62
256
370
-1
100
AcDbMText
10
-42
20
123
30
0
40
2
41
16.4452084456
71
5
72
1
1
students.csv
7
iso
210
0
220
0
230
1
50
0
73
2
44
1
0
LINE
5
13E
100
AcDbEntity
8
sophomorix-newfile
6
ByLayer
62
256
370
-1
100
AcDbLine
10
-57
20
76
11
-27
21
76
0
LINE
5
13F
100
AcDbEntity
8
sophomorix-newfile
6
ByLayer
62
256
370
-1
100
AcDbLine
10
-57
20
70
11
-27
21
70
0
LINE
5
140
100
AcDbEntity
8
sophomorix-newfile
6
ByLayer
62
256
370
-1
100
AcDbLine
10
-57
20
70
11
-57
21
76
0
LINE
5
141
100
AcDbEntity
8
sophomorix-newfile
6
ByLayer
62
256
370
-1
100
AcDbLine
10
-27
20
76
11
-27
21
70
0
MTEXT
5
142
100
AcDbEntity
8
sophomorix-newfile
6
ByLayer
62
256
370
-1
100
AcDbMText
10
-42
20
73
30
0
40
2
41
20.8888919746
71
5
72
1
1
ltg.students.csv
7
iso
210
0
220
0
230
1
50
0
73
2
44
1
0
LINE
5
143
100
AcDbEntity
8
sophomorix-newfile
6
ByLayer
62
256
370
-1
100
AcDbLine
10
-27
20
125
11
5
21
125
0
LINE
5
144
100
AcDbEntity
8
sophomorix-newfile
6
ByLayer
62
256
370
-1
100
AcDbLine
10
-27
20
75
11
5
21
75
0
LINE
5
145
100
AcDbEntity
8
SVP-Export
6
ByLayer
62
256
370
-1
100
AcDbLine
10
-37
20
98
11
-37
21
120
0
LINE
5
146
100
AcDbEntity
8
SVP-Export
6
ByLayer
62
256
370
-1
100
AcDbLine
10
-37
20
98
11
-37
21
76
0
LINE
5
147
100
AcDbEntity
8
SVP-Export
6
ByLayer
62
256
370
-1
100
AcDbLine
10
-37
20
120
11
-38
21
117
0
LINE
5
148
100
AcDbEntity
8
SVP-Export
6
ByLayer
62
256
370
-1
100
AcDbLine
10
-38
20
117
11
-36
21
117
0
LINE
5
149
100
AcDbEntity
8
SVP-Export
6
ByLayer
62
256
370
-1
100
AcDbLine
10
-36
20
117
11
-37
21
120
0
LINE
5
14A
100
AcDbEntity
8
SVP-Export
6
ByLayer
62
256
370
-1
100
AcDbLine
10
-37
20
76
11
-38
21
79
0
LINE
5
14B
100
AcDbEntity
8
SVP-Export
6
ByLayer
62
256
370
-1
100
AcDbLine
10
-38
20
79
11
-36
21
79
0
LINE
5
14C
100
AcDbEntity
8
SVP-Export
6
ByLayer
62
256
370
-1
100
AcDbLine
10
-36
20
79
11
-37
21
76
0
LINE
5
14D
100
AcDbEntity
8
SVP-Export
6
ByLayer
62
256
370
-1
100
AcDbLine
10
-64
20
101
11
-64
21
95
0
MTEXT
5
14E
100
AcDbEntity
8
SVP-Export
6
ByLayer
62
256
370
-1
100
AcDbMText
10
-74
20
98
30
0
40
2
41
14.8888888889
71
5
72
1
1
Exportdatei
7
iso
210
0
220
0
230
1
50
0
73
2
44
1
0
LINE
5
14F
100
AcDbEntity
8
SVP-Export
6
ByLayer
62
256
370
-1
100
AcDbLine
10
-84
20
95
11
-84
21
101
0
LINE
5
150
100
AcDbEntity
8
SVP-Export
6
ByLayer
62
256
370
-1
100
AcDbLine
10
-84
20
101
11
-64
21
101
0
LINE
5
151
100
AcDbEntity
8
SVP-Export
6
ByLayer
62
256
370
-1
100
AcDbLine
10
-84
20
95
11
-64
21
95
0
MTEXT
5
152
100
AcDbEntity
8
SVP-Export
6
ByLayer
62
256
370
-1
100
AcDbMText
10
-54
20
94
30
0
40
2
41
16.8333333333
71
5
72
1
1
webui upload\P(copy)
7
iso
210
0
220
0
230
1
50
0
73
2
44
1
0
LINE
5
153
100
AcDbEntity
8
SVP-Export
6
ByLayer
62
256
370
-1
100
AcDbLine
10
-64
20
86
11
-64
21
80
0
MTEXT
5
154
100
AcDbEntity
8
SVP-Export
6
ByLayer
62
256
370
-1
100
AcDbMText
10
-74
20
83
30
0
40
2
41
14.8888888889
71
5
72
1
1
Exportdatei
7
iso
210
0
220
0
230
1
50
0
73
2
44
1
0
LINE
5
155
100
AcDbEntity
8
SVP-Export
6
ByLayer
62
256
370
-1
100
AcDbLine
10
-84
20
80
11
-84
21
86
0
LINE
5
156
100
AcDbEntity
8
SVP-Export
6
ByLayer
62
256
370
-1
100
AcDbLine
10
-84
20
86
11
-64
21
86
0
LINE
5
157
100
AcDbEntity
8
SVP-Export
6
ByLayer
62
256
370
-1
100
AcDbLine
10
-84
20
80
11
-64
21
80
0
MTEXT
5
158
100
AcDbEntity
8
SVP-Export
6
ByLayer
62
256
370
-1
100
AcDbMText
10
-54
20
81
30
0
40
2
41
12.1118730552
71
5
72
1
1
scp o. äh
7
iso
210
0
220
0
230
1
50
0
73
2
44
1
0
LINE
5
159
100
AcDbEntity
8
SVP-Export
6
ByLayer
62
256
370
-1
100
AcDbLine
10
-64
20
83
11
-43
21
83
0
LINE
5
15A
100
AcDbEntity
8
SVP-Export
6
ByLayer
62
256
370
-1
100
AcDbLine
10
-64
20
116
11
-64
21
110
0
MTEXT
5
15B
100
AcDbEntity
8
SVP-Export
6
ByLayer
62
256
370
-1
100
AcDbMText
10
-74
20
113
30
0
40
2
41
14.8888888889
71
5
72
1
1
Exportdatei
7
iso
210
0
220
0
230
1
50
0
73
2
44
1
0
LINE
5
15C
100
AcDbEntity
8
SVP-Export
6
ByLayer
62
256
370
-1
100
AcDbLine
10
-84
20
110
11
-84
21
116
0
LINE
5
15D
100
AcDbEntity
8
SVP-Export
6
ByLayer
62
256
370
-1
100
AcDbLine
10
-84
20
116
11
-64
21
116
0
LINE
5
15E
100
AcDbEntity
8
SVP-Export
6
ByLayer
62
256
370
-1
100
AcDbLine
10
-84
20
110
11
-64
21
110
0
MTEXT
5
15F
100
AcDbEntity
8
SVP-Export
6
ByLayer
62
256
370
-1
100
AcDbMText
10
-54
20
109
30
0
40
2
41
17.944444
71
5
72
1
1
webui upload\P(human filter)
7
iso
210
0
220
0
230
1
50
0
73
2
44
1
0
LINE
5
160
100
AcDbEntity
8
SVP-Export
6
ByLayer
62
256
370
-1
100
AcDbLine
10
-64
20
113
11
-43
21
113
0
LINE
5
161
100
AcDbEntity
8
SVP-Export
6
ByLayer
62
256
370
-1
100
AcDbLine
10
-43
20
113
11
-43
21
83
0
LINE
5
162
100
AcDbEntity
8
SVP-Export
6
ByLayer
62
256
370
-1
100
AcDbLine
10
-64
20
98
11
-37
21
98
0
LINE
5
163
100
AcDbEntity
8
SVP-Export
6
ByLayer
62
256
370
-1
100
AcDbLine
10
-38
20
98
11
-41
21
99
0
LINE
5
164
100
AcDbEntity
8
SVP-Export
6
ByLayer
62
256
370
-1
100
AcDbLine
10
-41
20
99
11
-41
21
97
0
LINE
5
165
100
AcDbEntity
8
SVP-Export
6
ByLayer
62
256
370
-1
100
AcDbLine
10
-41
20
97
11
-38
21
98
0
MTEXT
5
166
100
AcDbEntity
8
sophomorix-newfile
6
ByLayer
62
256
370
-1
100
AcDbMText
10
-42
20
148
30
0
40
2.5
41
19.7222222222
71
5
72
1
1
tmp-Dateien
7
iso
210
0
220
0
230
1
50
0
73
2
44
1
0
MTEXT
5
167
100
AcDbEntity
8
SVP-Export
6
ByLayer
62
256
370
-1
100
AcDbMText
10
-74
20
148
30
0
40
2.5
41
17.7777790635
71
5
72
1
1
csv-Export
7
iso
210
0
220
0
230
1
50
0
73
2
44
1
0
MTEXT
5
168
100
AcDbEntity
8
sophomorix-newfile
6
ByLayer
62
256
370
-1
100
AcDbMText
10
-56
20
145
30
0
40
2
41
34.7777773538
71
1
72
1
1
- Spalten-Reihenfolge OK\P- Felder-Anzahl OK
7
iso
210
0
220
0
230
1
50
0
73
2
44
1
0
MTEXT
5
169
100
AcDbEntity
8
SVP-Export
6
ByLayer
62
256
370
-1
100
AcDbMText
10
-83
20
145
30
0
40
2
41
20.5555561601
71
1
72
1
1
- Aus Schulver\P  waltungs-\P  programm
7
iso
210
0
220
0
230
1
50
0
73
2
44
1
0
MTEXT
5
16A
100
AcDbEntity
8
Dateien_etc
6
ByLayer
62
256
370
-1
100
AcDbMText
10
-3
20
28
30
0
40
2
41
37.5000051429
71
4
72
1
1
Obsolete: \P  quota.txt, mailquota.txt, \P   class.map, sperrklassen.txt,\P   entfernen.txt
7
iso
210
0
220
0
230
1
50
0
73
2
44
1
0
LINE
5
16B
100
AcDbEntity
8
sophomorix-newfile
6
ByLayer
62
256
370
-1
100
AcDbLine
10
-19
20
35
11
-19
21
70
0
LINE
5
16C
100
AcDbEntity
8
sophomorix-newfile
6
ByLayer
62
256
370
-1
100
AcDbLine
10
-19
20
35
11
-20
21
38
0
LINE
5
16D
100
AcDbEntity
8
sophomorix-newfile
6
ByLayer
62
256
370
-1
100
AcDbLine
10
-20
20
38
11
-18
21
38
0
LINE
5
16E
100
AcDbEntity
8
sophomorix-newfile
6
ByLayer
62
256
370
-1
100
AcDbLine
10
-18
20
38
11
-19
21
35
0
LINE
5
16F
100
AcDbEntity
8
sophomorix-newfile
6
ByLayer
62
256
370
-1
100
AcDbLine
10
-19
20
79
11
-19
21
109
0
LINE
5
170
100
AcDbEntity
8
sophomorix-newfile
6
ByLayer
62
256
370
-1
100
AcDbLine
10
-19
20
113
11
-19
21
121
0
MTEXT
5
171
100
AcDbEntity
8
sophomorix-newfile
6
ByLayer
62
256
370
-1
100
AcDbMText
10
-19
20
31
30
0
40
2.5
41
23.6111123968
71
5
72
1
1
../log/newfiles
7
iso
210
0
220
0
230
1
50
0
73
2
44
1
0
MTEXT
5
172
100
AcDbEntity
8
sophomorix-check
6
ByLayer
62
256
370
-1
100
AcDbMText
10
55
20
73
30
0
40
2.5
41
34.1666679524
71
5
72
1
1
<dateiname>.csv.utf8
7
iso
210
0
220
0
230
1
50
90
73
2
44
1
0
LINE
5
173
100
AcDbEntity
8
Schulen
6
ByLayer
62
256
370
-1
100
AcDbLine
10
-6
20
37
11
-6
21
71
0
LINE
5
174
100
AcDbEntity
8
Schulen
6
ByLayer
62
256
370
-1
100
AcDbLine
10
-10
20
61
11
-10
21
71
0
LINE
5
175
100
AcDbEntity
8
Schulen
6
ByLayer
62
256
370
-1
100
AcDbLine
10
-6
20
121
11
-6
21
87
0
LINE
5
176
100
AcDbEntity
8
Schulen
6
ByLayer
62
256
370
-1
100
AcDbLine
10
-10
20
141
11
-10
21
128.5
0
LINE
5
177
100
AcDbEntity
8
Schulen
6
ByLayer
62
256
370
-1
100
AcDbLine
10
-6
20
135
11
-6
21
128.5
0
LINE
5
178
100
AcDbEntity
8
Schulen
6
ByLayer
62
256
370
-1
100
AcDbLine
10
-10
20
121
11
-10
21
78.5
0
LINE
5
179
100
AcDbEntity
8
Schulen
6
ByLayer
62
256
370
-1
100
AcDbLine
10
-6
20
85
11
-6
21
78.5
0
ENDSEC
0
SECTION
2
OBJECTS
0
DICTIONARY
5
C
330
0
100
AcDbDictionary
281
1
3
ACAD_GROUP
350
D
0
DICTIONARY
5
D
330
C
100
AcDbDictionary
281
1
0
ENDSEC
0
EOF
