999
dxfrw 0.5.10
0
SECTION
2
HEADER
9
$ACADVER
1
AC1021
9
$HANDSEED
5
20000
9
$DWGCODEPAGE
3
ANSI_1252
9
$INSBASE
10
0
20
0
30
0
9
$EXTMIN
10
50
20
100
30
0
9
$EXTMAX
10
272.055562756
20
210
30
0
9
$LIMMIN
10
0
20
0
9
$LIMMAX
10
420
20
297
9
$ORTHOMODE
70
0
9
$LTSCALE
40
1
9
$TEXTSTYLE
7
STANDARD
9
$CLAYER
8
--kill-adminclasses-1-do
9
$DIMASZ
40
2.5
9
$DIMLFAC
40
1
9
$DIMSCALE
40
1
9
$DIMEXO
40
0.625
9
$DIMEXE
40
1.25
9
$DIMTXT
40
2.5
9
$DIMTSZ
40
0
9
$DIMAUNIT
70
0
9
$DIMADEC
70
0
9
$DIMLUNIT
70
2
9
$DIMSTYLE
2
STANDARD
9
$DIMGAP
40
0.625
9
$DIMTIH
70
0
9
$LUNITS
70
2
9
$LUPREC
70
4
9
$AUNITS
70
0
9
$AUPREC
70
2
9
$SPLINESEGS
70
8
9
$GRIDMODE
70
1
9
$SNAPSTYLE
70
0
9
$PINSBASE
10
0
20
0
30
0
9
$PLIMMIN
10
0
20
0
9
$PLIMMAX
10
297
20
210
9
$INSUNITS
70
4
9
$PSVPSCALE
40
1
0
ENDSEC
0
SECTION
2
CLASSES
0
ENDSEC
0
SECTION
2
TABLES
0
TABLE
2
VPORT
5
8
330
0
100
AcDbSymbolTable
70
1
0
VPORT
5
31
330
2
100
AcDbSymbolTableRecord
100
AcDbViewportTableRecord
2
*ACTIVE
70
0
10
0
20
0
11
1
21
1
12
136.541214223
22
108.053822948
13
0
23
0
14
10
24
10
15
10
25
10
16
0
26
0
36
1
17
0
27
0
37
0
40
122.401868004
41
1.83120204604
42
50
43
0
44
0
50
0
51
0
71
0
72
100
73
1
74
3
75
0
76
1
77
0
78
0
281
0
65
1
110
0
120
0
130
0
111
1
121
0
131
0
112
0
122
1
132
0
79
0
146
0
348
10020
60
7
61
5
292
1
282
1
141
0
142
0
63
250
421
3358443
0
ENDTAB
0
TABLE
2
LTYPE
5
5
330
0
100
AcDbSymbolTable
70
4
0
LTYPE
5
14
330
5
100
AcDbSymbolTableRecord
100
AcDbLinetypeTableRecord
2
ByBlock
70
0
3

72
65
73
0
40
0
0
LTYPE
5
15
330
5
100
AcDbSymbolTableRecord
100
AcDbLinetypeTableRecord
2
ByLayer
70
0
3

72
65
73
0
40
0
0
LTYPE
5
16
330
5
100
AcDbSymbolTableRecord
100
AcDbLinetypeTableRecord
2
Continuous
70
0
3
Solid line
72
65
73
0
40
0
0
LTYPE
5
32
330
5
100
AcDbSymbolTableRecord
100
AcDbLinetypeTableRecord
2
DOT
70
0
3
Dot . . . . . . . . . . . . . . . . . . . . . .
72
65
73
2
40
6.35
49
0
74
0
49
-6.35
74
0
0
LTYPE
5
33
330
5
100
AcDbSymbolTableRecord
100
AcDbLinetypeTableRecord
2
DOT2
70
0
3
Dot (.5x) .....................................
72
65
73
2
40
3.175
49
0
74
0
49
-3.175
74
0
0
LTYPE
5
34
330
5
100
AcDbSymbolTableRecord
100
AcDbLinetypeTableRecord
2
DOTX2
70
0
3
Dot (2x) .  .  .  .  .  .  .  .  .  .  .  .  .
72
65
73
2
40
12.7
49
0
74
0
49
-12.7
74
0
0
LTYPE
5
35
330
5
100
AcDbSymbolTableRecord
100
AcDbLinetypeTableRecord
2
DASHED
70
0
3
Dot . . . . . . . . . . . . . . . . . . . . . .
72
65
73
2
40
19.05
49
12.7
74
0
49
-6.35
74
0
0
LTYPE
5
36
330
5
100
AcDbSymbolTableRecord
100
AcDbLinetypeTableRecord
2
DASHED2
70
0
3
Dashed (.5x) _ _ _ _ _ _ _ _ _ _ _ _ _ _ _ _ _
72
65
73
2
40
9.525
49
6.35
74
0
49
-3.175
74
0
0
LTYPE
5
37
330
5
100
AcDbSymbolTableRecord
100
AcDbLinetypeTableRecord
2
DASHEDX2
70
0
3
Dashed (2x) ____  ____  ____  ____  ____  ___
72
65
73
2
40
38.1
49
25.4
74
0
49
-12.7
74
0
0
LTYPE
5
38
330
5
100
AcDbSymbolTableRecord
100
AcDbLinetypeTableRecord
2
DASHDOT
70
0
3
Dash dot __ . __ . __ . __ . __ . __ . __ . __
72
65
73
4
40
25.4
49
12.7
74
0
49
-6.35
74
0
49
0
74
0
49
-6.35
74
0
0
LTYPE
5
39
330
5
100
AcDbSymbolTableRecord
100
AcDbLinetypeTableRecord
2
DASHDOT2
70
0
3
Dash dot (.5x) _._._._._._._._._._._._._._._.
72
65
73
4
40
12.7
49
6.35
74
0
49
-3.175
74
0
49
0
74
0
49
-3.175
74
0
0
LTYPE
5
3A
330
5
100
AcDbSymbolTableRecord
100
AcDbLinetypeTableRecord
2
DASHDOTX2
70
0
3
Dash dot (2x) ____  .  ____  .  ____  .  ___
72
65
73
4
40
50.8
49
25.4
74
0
49
-12.7
74
0
49
0
74
0
49
-12.7
74
0
0
LTYPE
5
3B
330
5
100
AcDbSymbolTableRecord
100
AcDbLinetypeTableRecord
2
DIVIDE
70
0
3
Divide ____ . . ____ . . ____ . . ____ . . ____
72
65
73
6
40
31.75
49
12.7
74
0
49
-6.35
74
0
49
0
74
0
49
-6.35
74
0
49
0
74
0
49
-6.35
74
0
0
LTYPE
5
3C
330
5
100
AcDbSymbolTableRecord
100
AcDbLinetypeTableRecord
2
DIVIDE2
70
0
3
Divide (.5x) __..__..__..__..__..__..__..__.._
72
65
73
6
40
15.875
49
6.35
74
0
49
-3.175
74
0
49
0
74
0
49
-3.175
74
0
49
0
74
0
49
-3.175
74
0
0
LTYPE
5
3D
330
5
100
AcDbSymbolTableRecord
100
AcDbLinetypeTableRecord
2
DIVIDEX2
70
0
3
Divide (2x) ________  .  .  ________  .  .  _
72
65
73
6
40
63.5
49
25.4
74
0
49
-12.7
74
0
49
0
74
0
49
-12.7
74
0
49
0
74
0
49
-12.7
74
0
0
LTYPE
5
3E
330
5
100
AcDbSymbolTableRecord
100
AcDbLinetypeTableRecord
2
BORDER
70
0
3
Border __ __ . __ __ . __ __ . __ __ . __ __ .
72
65
73
6
40
44.45
49
12.7
74
0
49
-6.35
74
0
49
12.7
74
0
49
-6.35
74
0
49
0
74
0
49
-6.35
74
0
0
LTYPE
5
3F
330
5
100
AcDbSymbolTableRecord
100
AcDbLinetypeTableRecord
2
BORDER2
70
0
3
Border (.5x) __.__.__.__.__.__.__.__.__.__.__.
72
65
73
6
40
22.225
49
6.35
74
0
49
-3.175
74
0
49
6.35
74
0
49
-3.175
74
0
49
0
74
0
49
-3.175
74
0
0
LTYPE
5
40
330
5
100
AcDbSymbolTableRecord
100
AcDbLinetypeTableRecord
2
BORDERX2
70
0
3
Border (2x) ____  ____  .  ____  ____  .  ___
72
65
73
6
40
88.9
49
25.4
74
0
49
-12.7
74
0
49
25.4
74
0
49
-12.7
74
0
49
0
74
0
49
-12.7
74
0
0
LTYPE
5
41
330
5
100
AcDbSymbolTableRecord
100
AcDbLinetypeTableRecord
2
CENTER
70
0
3
Center ____ _ ____ _ ____ _ ____ _ ____ _ ____
72
65
73
4
40
50.8
49
31.75
74
0
49
-6.35
74
0
49
6.35
74
0
49
-6.35
74
0
0
LTYPE
5
42
330
5
100
AcDbSymbolTableRecord
100
AcDbLinetypeTableRecord
2
CENTER2
70
0
3
Center (.5x) ___ _ ___ _ ___ _ ___ _ ___ _ ___
72
65
73
4
40
28.575
49
19.05
74
0
49
-3.175
74
0
49
3.175
74
0
49
-3.175
74
0
0
LTYPE
5
43
330
5
100
AcDbSymbolTableRecord
100
AcDbLinetypeTableRecord
2
CENTERX2
70
0
3
Center (2x) ________  __  ________  __  _____
72
65
73
4
40
101.6
49
63.5
74
0
49
-12.7
74
0
49
12.7
74
0
49
-12.7
74
0
0
ENDTAB
0
TABLE
2
LAYER
5
2
330
0
100
AcDbSymbolTable
70
1
0
LAYER
5
10
330
2
100
AcDbSymbolTableRecord
100
AcDbLayerTableRecord
2
0
70
0
62
7
6
CONTINUOUS
370
0
390
F
0
LAYER
5
44
330
2
100
AcDbSymbolTableRecord
100
AcDbLayerTableRecord
2
Matrix
70
0
62
1
6
CONTINUOUS
370
50
390
F
0
LAYER
5
45
330
2
100
AcDbSymbolTableRecord
100
AcDbLayerTableRecord
2
--add-do
70
0
62
1
6
CONTINUOUS
370
25
390
F
0
LAYER
5
46
330
2
100
AcDbSymbolTableRecord
100
AcDbLayerTableRecord
2
--modify-1-do
70
0
62
96
420
32768
6
CONTINUOUS
370
25
390
F
0
LAYER
5
47
330
2
100
AcDbSymbolTableRecord
100
AcDbLayerTableRecord
2
--modify-2-do
70
0
62
3
6
CONTINUOUS
370
25
390
F
0
LAYER
5
48
330
2
100
AcDbSymbolTableRecord
100
AcDbLayerTableRecord
2
--modify-3-do
70
0
62
6
6
CONTINUOUS
370
25
390
F
0
LAYER
5
49
330
2
100
AcDbSymbolTableRecord
100
AcDbLayerTableRecord
2
--modify-4-do
70
0
62
56
420
8421376
6
CONTINUOUS
370
25
390
F
0
LAYER
5
4A
330
2
100
AcDbSymbolTableRecord
100
AcDbLayerTableRecord
2
--modify-5-do
70
0
62
4
6
CONTINUOUS
370
25
390
F
0
LAYER
5
4B
330
2
100
AcDbSymbolTableRecord
100
AcDbLayerTableRecord
2
--modify-6-do
70
0
62
5
6
CONTINUOUS
370
25
390
F
0
LAYER
5
4C
330
2
100
AcDbSymbolTableRecord
100
AcDbLayerTableRecord
2
--workflow-10-do
70
0
62
136
420
32896
6
CONTINUOUS
370
25
390
F
0
LAYER
5
4D
330
2
100
AcDbSymbolTableRecord
100
AcDbLayerTableRecord
2
--workflow-11-do
70
0
62
216
420
8388736
6
CONTINUOUS
370
25
390
F
0
LAYER
5
4E
330
2
100
AcDbSymbolTableRecord
100
AcDbLayerTableRecord
2
--workflow-12-do
70
0
62
16
420
8388608
6
CONTINUOUS
370
25
390
F
0
LAYER
5
4F
330
2
100
AcDbSymbolTableRecord
100
AcDbLayerTableRecord
2
--workflow-13-do
70
0
62
3
6
CONTINUOUS
370
25
390
F
0
LAYER
5
50
330
2
100
AcDbSymbolTableRecord
100
AcDbLayerTableRecord
2
--workflow-14-do
70
0
62
4
6
CONTINUOUS
370
25
390
F
0
LAYER
5
51
330
2
100
AcDbSymbolTableRecord
100
AcDbLayerTableRecord
2
--workflow-15-do
70
0
62
5
6
CONTINUOUS
370
25
390
F
0
LAYER
5
52
330
2
100
AcDbSymbolTableRecord
100
AcDbLayerTableRecord
2
--workflow-16-do
70
0
62
6
6
CONTINUOUS
370
25
390
F
0
LAYER
5
53
330
2
100
AcDbSymbolTableRecord
100
AcDbLayerTableRecord
2
--workflow-17-do
70
0
62
56
420
8421376
6
CONTINUOUS
370
25
390
F
0
LAYER
5
54
330
2
100
AcDbSymbolTableRecord
100
AcDbLayerTableRecord
2
--workflow-18-do
70
0
62
6
6
CONTINUOUS
370
25
390
F
0
LAYER
5
55
330
2
100
AcDbSymbolTableRecord
100
AcDbLayerTableRecord
2
--workflow-19-do
70
0
62
56
420
8421376
6
CONTINUOUS
370
25
390
F
0
LAYER
5
56
330
2
100
AcDbSymbolTableRecord
100
AcDbLayerTableRecord
2
--workflow-20-do
70
0
62
6
6
CONTINUOUS
370
25
390
F
0
LAYER
5
57
330
2
100
AcDbSymbolTableRecord
100
AcDbLayerTableRecord
2
--workflow-21-do
70
0
62
56
420
8421376
6
CONTINUOUS
370
25
390
F
0
LAYER
5
58
330
2
100
AcDbSymbolTableRecord
100
AcDbLayerTableRecord
2
--kill-adminclasses-1-do
70
0
62
6
6
CONTINUOUS
370
25
390
F
0
LAYER
5
59
330
2
100
AcDbSymbolTableRecord
100
AcDbLayerTableRecord
2
--kill-adminclasses-2-do
70
0
62
56
420
8421376
6
CONTINUOUS
370
25
390
F
0
ENDTAB
0
TABLE
2
STYLE
5
3
330
0
100
AcDbSymbolTable
70
3
0
STYLE
5
5A
330
2
100
AcDbSymbolTableRecord
100
AcDbTextStyleTableRecord
2
iso
70
0
40
0
41
1
50
0
71
0
42
1
3
iso
4

0
STYLE
5
5B
330
2
100
AcDbSymbolTableRecord
100
AcDbTextStyleTableRecord
2
Standard
70
0
40
0
41
1
50
0
71
0
42
1
3
txt
4

0
ENDTAB
0
TABLE
2
VIEW
5
6
330
0
100
AcDbSymbolTable
70
0
0
ENDTAB
0
TABLE
2
UCS
5
7
330
0
100
AcDbSymbolTable
70
0
0
ENDTAB
0
TABLE
2
APPID
5
9
330
0
100
AcDbSymbolTable
70
1
0
APPID
5
12
330
9
100
AcDbSymbolTableRecord
100
AcDbRegAppTableRecord
2
ACAD
70
0
0
ENDTAB
0
TABLE
2
DIMSTYLE
5
A
330
0
100
AcDbSymbolTable
70
1
100
AcDbDimStyleTable
71
1
0
DIMSTYLE
105
5C
330
A
100
AcDbSymbolTableRecord
100
AcDbDimStyleTableRecord
2
Standard
70
0
40
1
41
2.5
42
0.625
43
0.38
44
1.25
45
0
46
0
47
0
48
0
140
2.5
141
0.09
142
0
143
25.4
144
1
145
0
146
1
147
0.625
148
0
71
0
72
0
73
0
74
1
75
0
76
0
77
0
78
0
79
0
170
0
171
2
172
0
173
0
174
0
175
0
176
0
177
0
178
0
179
0
271
4
272
4
273
2
274
2
275
0
276
0
277
2
278
46
279
0
280
0
281
0
282
0
283
1
284
0
285
0
286
0
288
0
289
3
340
Standard
341

371
-2
372
-2
0
ENDTAB
0
TABLE
2
BLOCK_RECORD
5
1
330
0
100
AcDbSymbolTable
70
2
0
BLOCK_RECORD
5
1F
330
1
100
AcDbSymbolTableRecord
100
AcDbBlockTableRecord
2
*Model_Space
70
0
280
1
281
0
0
BLOCK_RECORD
5
1E
330
1
100
AcDbSymbolTableRecord
100
AcDbBlockTableRecord
2
*Paper_Space
70
0
280
1
281
0
0
ENDTAB
0
ENDSEC
0
SECTION
2
BLOCKS
0
BLOCK
5
20
330
1F
100
AcDbEntity
8
0
100
AcDbBlockBegin
2
*Model_Space
70
0
10
0
20
0
30
0
3
*Model_Space
1

0
ENDBLK
5
21
330
1F
100
AcDbEntity
8
0
100
AcDbBlockEnd
0
BLOCK
5
1C
330
1B
100
AcDbEntity
8
0
100
AcDbBlockBegin
2
*Paper_Space
70
0
10
0
20
0
30
0
3
*Paper_Space
1

0
ENDBLK
5
1D
330
1F
100
AcDbEntity
8
0
100
AcDbBlockEnd
0
ENDSEC
0
SECTION
2
ENTITIES
0
LINE
5
5D
100
AcDbEntity
8
Matrix
6
ByLayer
62
256
370
-1
100
AcDbLine
10
80
20
210
11
80
21
100
0
LINE
5
5E
100
AcDbEntity
8
Matrix
6
ByLayer
62
256
370
-1
100
AcDbLine
10
120
20
210
11
120
21
100
0
LINE
5
5F
100
AcDbEntity
8
Matrix
6
ByLayer
62
256
370
-1
100
AcDbLine
10
160
20
210
11
160
21
100
0
LINE
5
60
100
AcDbEntity
8
Matrix
6
ByLayer
62
256
370
-1
100
AcDbLine
10
200
20
210
11
200
21
100
0
LINE
5
61
100
AcDbEntity
8
Matrix
6
ByLayer
62
256
370
-1
100
AcDbLine
10
200
20
190
11
50
21
190
0
LINE
5
62
100
AcDbEntity
8
Matrix
6
ByLayer
62
256
370
-1
100
AcDbLine
10
80
20
190
11
50
21
210
0
MTEXT
5
63
100
AcDbEntity
8
Matrix
6
ByLayer
62
256
370
-1
100
AcDbMText
10
180
20
200
30
0
40
3
41
4.66666666667
71
5
72
1
1
uni
7
iso
210
0
220
0
230
1
50
0
73
2
44
1
0
MTEXT
5
64
100
AcDbEntity
8
Matrix
6
ByLayer
62
256
370
-1
100
AcDbMText
10
140
20
200
30
0
40
3
41
6.00000154286
71
5
72
1
1
bsz
7
iso
210
0
220
0
230
1
50
0
73
2
44
1
0
MTEXT
5
65
100
AcDbEntity
8
Matrix
6
ByLayer
62
256
370
-1
100
AcDbMText
10
71
20
206
30
0
40
3
41
11.6678095827
71
5
72
1
1
school
7
iso
210
0
220
0
230
1
50
0
73
2
44
1
0
MTEXT
5
66
100
AcDbEntity
8
Matrix
6
ByLayer
62
256
370
-1
100
AcDbMText
10
57
20
196
30
0
40
3
41
7
71
5
72
1
1
role
7
iso
210
0
220
0
230
1
50
0
73
2
44
1
0
LINE
5
67
100
AcDbEntity
8
Matrix
6
ByLayer
62
256
370
-1
100
AcDbLine
10
50
20
150
11
200
21
150
0
LINE
5
68
100
AcDbEntity
8
Matrix
6
ByLayer
62
256
370
-1
100
AcDbLine
10
50
20
110
11
200
21
110
0
MTEXT
5
69
100
AcDbEntity
8
Matrix
6
ByLayer
62
256
370
-1
100
AcDbMText
10
100
20
200
30
0
40
3
41
28.6666682095
71
5
72
1
1
default-school
7
iso
210
0
220
0
230
1
50
0
73
2
44
1
0
LINE
5
6A
100
AcDbEntity
8
Matrix
6
ByLayer
62
256
370
-1
100
AcDbLine
10
50
20
172
11
200
21
172
0
MTEXT
5
6B
100
AcDbEntity
8
--add-do
6
ByLayer
62
256
370
-1
100
AcDbMText
10
130
20
187
30
0
40
2
41
9.33333333333
71
5
72
1
1
b-wu24
7
iso
210
0
220
0
230
1
50
0
73
2
44
1
0
MTEXT
5
6C
100
AcDbEntity
8
--add-do
6
ByLayer
62
256
370
-1
100
AcDbMText
10
150
20
187
30
0
40
2
41
8.88888888889
71
5
72
1
1
b-oe24
7
iso
210
0
220
0
230
1
50
0
73
2
44
1
0
MTEXT
5
6D
100
AcDbEntity
8
--add-do
6
ByLayer
62
256
370
-1
100
AcDbMText
10
150
20
147
30
0
40
2
41
10.4444444444
71
2
72
1
1
muelleju\P\P\P\P\Pmaieran
7
iso
210
0
220
0
230
1
50
0
73
2
44
1
0
MTEXT
5
6E
100
AcDbEntity
8
--add-do
6
ByLayer
62
256
370
-1
100
AcDbMText
10
90
20
187
30
0
40
2
41
6.22222222222
71
5
72
1
1
wu24
7
iso
210
0
220
0
230
1
50
0
73
2
44
1
0
MTEXT
5
6F
100
AcDbEntity
8
--add-do
6
ByLayer
62
256
370
-1
100
AcDbMText
10
110
20
187
30
0
40
2
41
5.77777777778
71
5
72
1
1
oe24
7
iso
210
0
220
0
230
1
50
0
73
2
44
1
0
MTEXT
5
70
100
AcDbEntity
8
--add-do
6
ByLayer
62
256
370
-1
100
AcDbMText
10
130
20
147
30
0
40
2
41
10.6674286107
71
1
72
1
1
stefanol\P\P\P\P\Pperezhu
7
iso
210
0
220
0
230
1
50
0
73
2
44
1
0
MTEXT
5
71
100
AcDbEntity
8
--add-do
6
ByLayer
62
256
370
-1
100
AcDbMText
10
110
20
147
30
0
40
2
41
11.5555555556
71
2
72
1
1
muelleju1\P\P\P\P\Pmaieran1
7
iso
210
0
220
0
230
1
50
0
73
2
44
1
0
MTEXT
5
72
100
AcDbEntity
8
--add-do
6
ByLayer
62
256
370
-1
100
AcDbMText
10
90
20
147
30
0
40
2
41
11.7785397218
71
2
72
1
1
stefanol1\P\P\P\P\Pperezhu1
7
iso
210
0
220
0
230
1
50
0
73
2
44
1
0
MTEXT
5
73
100
AcDbEntity
8
--modify-3-do
6
ByLayer
62
256
370
-1
100
AcDbMText
10
150
20
143
30
0
40
2
41
11.6666666667
71
5
72
1
1
7a -> 7b
7
iso
210
0
220
0
230
1
50
0
73
2
44
1
0
LINE
5
74
100
AcDbEntity
8
--modify-3-do
6
ByLayer
62
256
370
-1
100
AcDbLine
10
135
20
148
11
135
21
175
0
LINE
5
75
100
AcDbEntity
8
--modify-3-do
6
ByLayer
62
256
370
-1
100
AcDbLine
10
135
20
175
11
134
21
173
0
LINE
5
76
100
AcDbEntity
8
--modify-3-do
6
ByLayer
62
256
370
-1
100
AcDbLine
10
134
20
173
11
136
21
173
0
LINE
5
77
100
AcDbEntity
8
--modify-3-do
6
ByLayer
62
256
370
-1
100
AcDbLine
10
136
20
173
11
135
21
175
0
MTEXT
5
78
100
AcDbEntity
8
--modify-3-do
6
ByLayer
62
256
370
-1
100
AcDbMText
10
150
20
126
30
0
40
2
41
12.7777777778
71
5
72
1
1
8a -> 10a
7
iso
210
0
220
0
230
1
50
0
73
2
44
1
0
MTEXT
5
79
100
AcDbEntity
8
--modify-4-do
6
ByLayer
62
256
370
-1
100
AcDbMText
10
106
20
143
30
0
40
2
41
11.6666666667
71
5
72
1
1
7a -> 7b
7
iso
210
0
220
0
230
1
50
0
73
2
44
1
0
LINE
5
7A
100
AcDbEntity
8
--modify-4-do
6
ByLayer
62
256
370
-1
100
AcDbLine
10
91
20
148
11
91
21
175
0
LINE
5
7B
100
AcDbEntity
8
--modify-4-do
6
ByLayer
62
256
370
-1
100
AcDbLine
10
91
20
175
11
90
21
173
0
LINE
5
7C
100
AcDbEntity
8
--modify-4-do
6
ByLayer
62
256
370
-1
100
AcDbLine
10
90
20
173
11
92
21
173
0
LINE
5
7D
100
AcDbEntity
8
--modify-4-do
6
ByLayer
62
256
370
-1
100
AcDbLine
10
92
20
173
11
91
21
175
0
LINE
5
7E
100
AcDbEntity
8
--modify-4-do
6
ByLayer
62
256
370
-1
100
AcDbLine
10
83
20
124
11
82
21
126
0
LINE
5
7F
100
AcDbEntity
8
--modify-4-do
6
ByLayer
62
256
370
-1
100
AcDbLine
10
82
20
126
11
84
21
126
0
LINE
5
80
100
AcDbEntity
8
--modify-4-do
6
ByLayer
62
256
370
-1
100
AcDbLine
10
84
20
126
11
83
21
124
0
MTEXT
5
81
100
AcDbEntity
8
--modify-4-do
6
ByLayer
62
256
370
-1
100
AcDbMText
10
106
20
126
30
0
40
2
41
12.7777777778
71
5
72
1
1
8a -> 10a
7
iso
210
0
220
0
230
1
50
0
73
2
44
1
0
MTEXT
5
82
100
AcDbEntity
8
--modify-4-do
6
ByLayer
62
256
370
-1
100
AcDbMText
10
89
20
121
30
0
40
2
41
13.722222
71
5
72
1
1
wu24 (10a)
7
iso
210
0
220
0
230
1
50
0
73
2
44
1
0
MTEXT
5
83
100
AcDbEntity
8
--modify-3-do
6
ByLayer
62
256
370
-1
100
AcDbMText
10
131
20
121
30
0
40
2
41
16.8333331111
71
5
72
1
1
b-wu24 (10a)
7
iso
210
0
220
0
230
1
50
0
73
2
44
1
0
MTEXT
5
84
100
AcDbEntity
8
Matrix
6
ByLayer
62
256
370
-1
100
AcDbMText
10
52
20
181
30
0
40
3
41
24.3333364191
71
4
72
1
1
teacher\Pteachers.csv
7
iso
210
0
220
0
230
1
50
0
73
2
44
1
0
MTEXT
5
85
100
AcDbEntity
8
Matrix
6
ByLayer
62
256
370
-1
100
AcDbMText
10
52
20
141
30
0
40
3
41
24.6678126685
71
4
72
1
1
student\Pstudents.csv
7
iso
210
0
220
0
230
1
50
0
73
2
44
1
0
MTEXT
5
86
100
AcDbEntity
8
Matrix
6
ByLayer
62
256
370
-1
100
AcDbMText
10
52
20
160
30
0
40
2
41
23.7777808635
71
4
72
1
1
student\Pextrastudents.csv
7
iso
210
0
220
0
230
1
50
0
73
2
44
1
0
LINE
5
87
100
AcDbEntity
8
--modify-5-do
6
ByLayer
62
256
370
-1
100
AcDbLine
10
138
20
131
11
138
21
158
0
LINE
5
88
100
AcDbEntity
8
--modify-5-do
6
ByLayer
62
256
370
-1
100
AcDbLine
10
138
20
158
11
145
21
158
0
LINE
5
89
100
AcDbEntity
8
--modify-5-do
6
ByLayer
62
256
370
-1
100
AcDbLine
10
145
20
158
11
145
21
162
0
LINE
5
8A
100
AcDbEntity
8
--modify-5-do
6
ByLayer
62
256
370
-1
100
AcDbLine
10
145
20
162
11
144
21
160
0
LINE
5
8B
100
AcDbEntity
8
--modify-5-do
6
ByLayer
62
256
370
-1
100
AcDbLine
10
144
20
160
11
146
21
160
0
LINE
5
8C
100
AcDbEntity
8
--modify-5-do
6
ByLayer
62
256
370
-1
100
AcDbLine
10
146
20
160
11
145
21
162
0
MTEXT
5
8D
100
AcDbEntity
8
--modify-5-do
6
ByLayer
62
256
370
-1
100
AcDbMText
10
149
20
169
30
0
40
2
41
20.3888886667
71
5
72
1
1
b-oe24 (alumni)
7
iso
210
0
220
0
230
1
50
0
73
2
44
1
0
MTEXT
5
8E
100
AcDbEntity
8
--modify-5-do
6
ByLayer
62
256
370
-1
100
AcDbMText
10
145
20
164
30
0
40
2
41
18.3888886667
71
5
72
1
1
perezhu (web)
7
iso
210
0
220
0
230
1
50
0
73
2
44
1
0
LINE
5
8F
100
AcDbEntity
8
--modify-6-do
6
ByLayer
62
256
370
-1
100
AcDbLine
10
105
20
158
11
105
21
162
0
LINE
5
90
100
AcDbEntity
8
--modify-6-do
6
ByLayer
62
256
370
-1
100
AcDbLine
10
105
20
162
11
104
21
160
0
LINE
5
91
100
AcDbEntity
8
--modify-6-do
6
ByLayer
62
256
370
-1
100
AcDbLine
10
104
20
160
11
106
21
160
0
LINE
5
92
100
AcDbEntity
8
--modify-6-do
6
ByLayer
62
256
370
-1
100
AcDbLine
10
106
20
160
11
105
21
162
0
LINE
5
93
100
AcDbEntity
8
--modify-6-do
6
ByLayer
62
256
370
-1
100
AcDbLine
10
93
20
131
11
93
21
158
0
LINE
5
94
100
AcDbEntity
8
--modify-6-do
6
ByLayer
62
256
370
-1
100
AcDbLine
10
93
20
158
11
105
21
158
0
MTEXT
5
95
100
AcDbEntity
8
--modify-6-do
6
ByLayer
62
256
370
-1
100
AcDbMText
10
109
20
169
30
0
40
2
41
17.2777775556
71
5
72
1
1
oe24 (alumni)
7
iso
210
0
220
0
230
1
50
0
73
2
44
1
0
MTEXT
5
96
100
AcDbEntity
8
--modify-6-do
6
ByLayer
62
256
370
-1
100
AcDbMText
10
105
20
164
30
0
40
2
41
19.4999997778
71
5
72
1
1
perezhu1 (web)
7
iso
210
0
220
0
230
1
50
0
73
2
44
1
0
LINE
5
97
100
AcDbEntity
8
--workflow-10-do
6
ByLayer
62
256
370
-1
100
AcDbLine
10
135
20
166
11
156
21
166
0
LINE
5
98
100
AcDbEntity
8
--workflow-10-do
6
ByLayer
62
256
370
-1
100
AcDbLine
10
156
20
166
11
156
21
162
0
LINE
5
99
100
AcDbEntity
8
--workflow-10-do
6
ByLayer
62
256
370
-1
100
AcDbLine
10
156
20
162
11
135
21
162
0
LINE
5
9A
100
AcDbEntity
8
--workflow-10-do
6
ByLayer
62
256
370
-1
100
AcDbLine
10
135
20
162
11
135
21
166
0
LINE
5
9B
100
AcDbEntity
8
--workflow-10-do
6
ByLayer
62
256
370
-1
100
AcDbLine
10
135
20
166
11
156
21
162
0
LINE
5
9C
100
AcDbEntity
8
--workflow-10-do
6
ByLayer
62
256
370
-1
100
AcDbLine
10
156
20
165
11
135
21
162
0
LINE
5
9D
100
AcDbEntity
8
--workflow-10-do
6
ByLayer
62
256
370
-1
100
AcDbLine
10
138
20
171
11
138
21
167
0
LINE
5
9E
100
AcDbEntity
8
--workflow-10-do
6
ByLayer
62
256
370
-1
100
AcDbLine
10
138
20
167
11
160
21
167
0
LINE
5
9F
100
AcDbEntity
8
--workflow-10-do
6
ByLayer
62
256
370
-1
100
AcDbLine
10
160
20
167
11
160
21
171
0
LINE
5
A0
100
AcDbEntity
8
--workflow-10-do
6
ByLayer
62
256
370
-1
100
AcDbLine
10
160
20
171
11
138
21
171
0
LINE
5
A1
100
AcDbEntity
8
--workflow-10-do
6
ByLayer
62
256
370
-1
100
AcDbLine
10
138
20
171
11
160
21
167
0
LINE
5
A2
100
AcDbEntity
8
--workflow-10-do
6
ByLayer
62
256
370
-1
100
AcDbLine
10
160
20
171
11
138
21
167
0
LINE
5
A3
100
AcDbEntity
8
--workflow-10-do
6
ByLayer
62
256
370
-1
100
AcDbLine
10
144
20
148
11
144
21
144
0
LINE
5
A4
100
AcDbEntity
8
--workflow-10-do
6
ByLayer
62
256
370
-1
100
AcDbLine
10
144
20
144
11
156
21
144
0
LINE
5
A5
100
AcDbEntity
8
--workflow-10-do
6
ByLayer
62
256
370
-1
100
AcDbLine
10
156
20
144
11
156
21
148
0
LINE
5
A6
100
AcDbEntity
8
--workflow-10-do
6
ByLayer
62
256
370
-1
100
AcDbLine
10
156
20
148
11
144
21
148
0
LINE
5
A7
100
AcDbEntity
8
--workflow-10-do
6
ByLayer
62
256
370
-1
100
AcDbLine
10
144
20
148
11
156
21
144
0
LINE
5
A8
100
AcDbEntity
8
--workflow-10-do
6
ByLayer
62
256
370
-1
100
AcDbLine
10
156
20
148
11
144
21
144
0
LINE
5
A9
100
AcDbEntity
8
--workflow-10-do
6
ByLayer
62
256
370
-1
100
AcDbLine
10
144
20
131
11
144
21
127
0
LINE
5
AA
100
AcDbEntity
8
--workflow-10-do
6
ByLayer
62
256
370
-1
100
AcDbLine
10
144
20
127
11
156
21
127
0
LINE
5
AB
100
AcDbEntity
8
--workflow-10-do
6
ByLayer
62
256
370
-1
100
AcDbLine
10
156
20
127
11
156
21
131
0
LINE
5
AC
100
AcDbEntity
8
--workflow-10-do
6
ByLayer
62
256
370
-1
100
AcDbLine
10
156
20
131
11
144
21
131
0
LINE
5
AD
100
AcDbEntity
8
--workflow-10-do
6
ByLayer
62
256
370
-1
100
AcDbLine
10
144
20
131
11
156
21
127
0
LINE
5
AE
100
AcDbEntity
8
--workflow-10-do
6
ByLayer
62
256
370
-1
100
AcDbLine
10
156
20
131
11
144
21
127
0
LINE
5
AF
100
AcDbEntity
8
--workflow-11-do
6
ByLayer
62
256
370
-1
100
AcDbLine
10
94
20
166
11
94
21
162
0
LINE
5
B0
100
AcDbEntity
8
--workflow-11-do
6
ByLayer
62
256
370
-1
100
AcDbLine
10
94
20
162
11
116
21
162
0
LINE
5
B1
100
AcDbEntity
8
--workflow-11-do
6
ByLayer
62
256
370
-1
100
AcDbLine
10
116
20
162
11
116
21
166
0
LINE
5
B2
100
AcDbEntity
8
--workflow-11-do
6
ByLayer
62
256
370
-1
100
AcDbLine
10
116
20
166
11
94
21
166
0
LINE
5
B3
100
AcDbEntity
8
--workflow-11-do
6
ByLayer
62
256
370
-1
100
AcDbLine
10
94
20
166
11
116
21
162
0
LINE
5
B4
100
AcDbEntity
8
--workflow-11-do
6
ByLayer
62
256
370
-1
100
AcDbLine
10
116
20
166
11
94
21
162
0
LINE
5
B5
100
AcDbEntity
8
--workflow-11-do
6
ByLayer
62
256
370
-1
100
AcDbLine
10
99
20
171
11
99
21
167
0
LINE
5
B6
100
AcDbEntity
8
--workflow-11-do
6
ByLayer
62
256
370
-1
100
AcDbLine
10
99
20
167
11
119
21
167
0
LINE
5
B7
100
AcDbEntity
8
--workflow-11-do
6
ByLayer
62
256
370
-1
100
AcDbLine
10
119
20
167
11
119
21
171
0
LINE
5
B8
100
AcDbEntity
8
--workflow-11-do
6
ByLayer
62
256
370
-1
100
AcDbLine
10
119
20
171
11
99
21
171
0
LINE
5
B9
100
AcDbEntity
8
--workflow-11-do
6
ByLayer
62
256
370
-1
100
AcDbLine
10
99
20
171
11
119
21
167
0
LINE
5
BA
100
AcDbEntity
8
--workflow-11-do
6
ByLayer
62
256
370
-1
100
AcDbLine
10
119
20
171
11
99
21
167
0
LINE
5
BB
100
AcDbEntity
8
--workflow-11-do
6
ByLayer
62
256
370
-1
100
AcDbLine
10
103
20
148
11
103
21
144
0
LINE
5
BC
100
AcDbEntity
8
--workflow-11-do
6
ByLayer
62
256
370
-1
100
AcDbLine
10
103
20
144
11
117
21
144
0
LINE
5
BD
100
AcDbEntity
8
--workflow-11-do
6
ByLayer
62
256
370
-1
100
AcDbLine
10
117
20
144
11
117
21
148
0
LINE
5
BE
100
AcDbEntity
8
--workflow-11-do
6
ByLayer
62
256
370
-1
100
AcDbLine
10
117
20
148
11
103
21
148
0
LINE
5
BF
100
AcDbEntity
8
--workflow-11-do
6
ByLayer
62
256
370
-1
100
AcDbLine
10
103
20
148
11
117
21
144
0
LINE
5
C0
100
AcDbEntity
8
--workflow-11-do
6
ByLayer
62
256
370
-1
100
AcDbLine
10
104
20
131
11
104
21
127
0
LINE
5
C1
100
AcDbEntity
8
--workflow-11-do
6
ByLayer
62
256
370
-1
100
AcDbLine
10
104
20
127
11
117
21
127
0
LINE
5
C2
100
AcDbEntity
8
--workflow-11-do
6
ByLayer
62
256
370
-1
100
AcDbLine
10
117
20
127
11
117
21
131
0
LINE
5
C3
100
AcDbEntity
8
--workflow-11-do
6
ByLayer
62
256
370
-1
100
AcDbLine
10
117
20
131
11
104
21
131
0
LINE
5
C4
100
AcDbEntity
8
--workflow-11-do
6
ByLayer
62
256
370
-1
100
AcDbLine
10
104
20
131
11
117
21
127
0
LINE
5
C5
100
AcDbEntity
8
--workflow-11-do
6
ByLayer
62
256
370
-1
100
AcDbLine
10
117
20
131
11
104
21
127
0
MTEXT
5
C6
100
AcDbEntity
8
--modify-3-do
6
ByLayer
62
256
370
-1
100
AcDbMText
10
135
20
177
30
0
40
2
41
10.6674286107
71
5
72
1
1
stefanol
7
iso
210
0
220
0
230
1
50
0
73
2
44
1
0
MTEXT
5
C7
100
AcDbEntity
8
--modify-4-do
6
ByLayer
62
256
370
-1
100
AcDbMText
10
91
20
177
30
0
40
2
41
11.7785397218
71
5
72
1
1
stefanol1
7
iso
210
0
220
0
230
1
50
0
73
2
44
1
0
LINE
5
C8
100
AcDbEntity
8
--workflow-10-do
6
ByLayer
62
256
370
-1
100
AcDbLine
10
129
20
179
11
129
21
175
0
LINE
5
C9
100
AcDbEntity
8
--workflow-10-do
6
ByLayer
62
256
370
-1
100
AcDbLine
10
129
20
175
11
142
21
175
0
LINE
5
CA
100
AcDbEntity
8
--workflow-10-do
6
ByLayer
62
256
370
-1
100
AcDbLine
10
142
20
175
11
142
21
179
0
LINE
5
CB
100
AcDbEntity
8
--workflow-10-do
6
ByLayer
62
256
370
-1
100
AcDbLine
10
142
20
179
11
129
21
179
0
LINE
5
CC
100
AcDbEntity
8
--workflow-10-do
6
ByLayer
62
256
370
-1
100
AcDbLine
10
129
20
179
11
142
21
175
0
LINE
5
CD
100
AcDbEntity
8
--workflow-10-do
6
ByLayer
62
256
370
-1
100
AcDbLine
10
142
20
179
11
129
21
175
0
LINE
5
CE
100
AcDbEntity
8
--workflow-11-do
6
ByLayer
62
256
370
-1
100
AcDbLine
10
84
20
179
11
84
21
175
0
LINE
5
CF
100
AcDbEntity
8
--workflow-11-do
6
ByLayer
62
256
370
-1
100
AcDbLine
10
84
20
175
11
99
21
175
0
LINE
5
D0
100
AcDbEntity
8
--workflow-11-do
6
ByLayer
62
256
370
-1
100
AcDbLine
10
99
20
175
11
99
21
179
0
LINE
5
D1
100
AcDbEntity
8
--workflow-11-do
6
ByLayer
62
256
370
-1
100
AcDbLine
10
99
20
179
11
84
21
179
0
LINE
5
D2
100
AcDbEntity
8
--workflow-11-do
6
ByLayer
62
256
370
-1
100
AcDbLine
10
84
20
179
11
99
21
175
0
LINE
5
D3
100
AcDbEntity
8
--workflow-11-do
6
ByLayer
62
256
370
-1
100
AcDbLine
10
99
20
179
11
84
21
175
0
LINE
5
D4
100
AcDbEntity
8
--modify-3-do
6
ByLayer
62
256
370
-1
100
AcDbLine
10
122
20
123
11
121
21
125
0
LINE
5
D5
100
AcDbEntity
8
--modify-3-do
6
ByLayer
62
256
370
-1
100
AcDbLine
10
121
20
125
11
123
21
125
0
LINE
5
D6
100
AcDbEntity
8
--modify-3-do
6
ByLayer
62
256
370
-1
100
AcDbLine
10
123
20
125
11
122
21
123
0
LINE
5
D7
100
AcDbEntity
8
--modify-5-do
6
ByLayer
62
256
370
-1
100
AcDbLine
10
154
20
185
11
154
21
171
0
LINE
5
D8
100
AcDbEntity
8
--modify-5-do
6
ByLayer
62
256
370
-1
100
AcDbLine
10
154
20
171
11
153
21
173
0
LINE
5
D9
100
AcDbEntity
8
--modify-5-do
6
ByLayer
62
256
370
-1
100
AcDbLine
10
153
20
173
11
155
21
173
0
LINE
5
DA
100
AcDbEntity
8
--modify-5-do
6
ByLayer
62
256
370
-1
100
AcDbLine
10
155
20
173
11
154
21
171
0
LINE
5
DB
100
AcDbEntity
8
--modify-6-do
6
ByLayer
62
256
370
-1
100
AcDbLine
10
112
20
185
11
112
21
171
0
LINE
5
DC
100
AcDbEntity
8
--modify-6-do
6
ByLayer
62
256
370
-1
100
AcDbLine
10
112
20
171
11
111
21
173
0
LINE
5
DD
100
AcDbEntity
8
--modify-6-do
6
ByLayer
62
256
370
-1
100
AcDbLine
10
111
20
173
11
113
21
173
0
LINE
5
DE
100
AcDbEntity
8
--modify-6-do
6
ByLayer
62
256
370
-1
100
AcDbLine
10
113
20
173
11
112
21
171
0
LINE
5
DF
100
AcDbEntity
8
--workflow-11-do
6
ByLayer
62
256
370
-1
100
AcDbLine
10
117
20
148
11
103
21
144
0
MTEXT
5
E0
100
AcDbEntity
8
--add-do
6
ByLayer
62
256
370
-1
100
AcDbMText
10
146
20
183
30
0
40
2
41
14.4444444444
71
5
72
1
1
b-bjarna24
7
iso
210
0
220
0
230
1
50
0
73
2
44
1
0
MTEXT
5
E1
100
AcDbEntity
8
--add-do
6
ByLayer
62
256
370
-1
100
AcDbMText
10
130
20
183
30
0
40
2
41
12.8888899175
71
5
72
1
1
b-skula24
7
iso
210
0
220
0
230
1
50
0
73
2
44
1
0
MTEXT
5
E2
100
AcDbEntity
8
--add-do
6
ByLayer
62
256
370
-1
100
AcDbMText
10
89
20
183
30
0
40
2
41
9.77853972183
71
5
72
1
1
skula24
7
iso
210
0
220
0
230
1
50
0
73
2
44
1
0
MTEXT
5
E3
100
AcDbEntity
8
--add-do
6
ByLayer
62
256
370
-1
100
AcDbMText
10
105
20
183
30
0
40
2
41
11.3333333333
71
5
72
1
1
bjarna24
7
iso
210
0
220
0
230
1
50
0
73
2
44
1
0
LINE
5
E4
100
AcDbEntity
8
--modify-3-do
6
ByLayer
62
256
370
-1
100
AcDbLine
10
129
20
146
11
142
21
146
0
LINE
5
E5
100
AcDbEntity
8
--modify-3-do
6
ByLayer
62
256
370
-1
100
AcDbLine
10
124
20
187
11
135
21
187
0
LINE
5
E6
100
AcDbEntity
8
--modify-4-do
6
ByLayer
62
256
370
-1
100
AcDbLine
10
84
20
146
11
97
21
146
0
LINE
5
E7
100
AcDbEntity
8
--modify-5-do
6
ByLayer
62
256
370
-1
100
AcDbLine
10
144
20
187
11
156
21
187
0
LINE
5
E8
100
AcDbEntity
8
--modify-5-do
6
ByLayer
62
256
370
-1
100
AcDbLine
10
129
20
129
11
141
21
129
0
LINE
5
E9
100
AcDbEntity
8
--modify-6-do
6
ByLayer
62
256
370
-1
100
AcDbLine
10
105
20
187
11
115
21
187
0
LINE
5
EA
100
AcDbEntity
8
--modify-6-do
6
ByLayer
62
256
370
-1
100
AcDbLine
10
83
20
129
11
97
21
129
0
MTEXT
5
EB
100
AcDbEntity
8
--add-do
6
ByLayer
62
256
370
-1
100
AcDbMText
10
105
20
177
30
0
40
2
41
9.11111111111
71
5
72
1
1
rukri24
7
iso
210
0
220
0
230
1
50
0
73
2
44
1
0
MTEXT
5
EC
100
AcDbEntity
8
--add-do
6
ByLayer
62
256
370
-1
100
AcDbMText
10
150
20
177
30
0
40
2
41
12.2222222222
71
5
72
1
1
b-rukri24
7
iso
210
0
220
0
230
1
50
0
73
2
44
1
0
LINE
5
ED
100
AcDbEntity
8
--workflow-10-do
6
ByLayer
62
256
370
-1
100
AcDbLine
10
143
20
179
11
143
21
175
0
LINE
5
EE
100
AcDbEntity
8
--workflow-10-do
6
ByLayer
62
256
370
-1
100
AcDbLine
10
143
20
175
11
157
21
175
0
LINE
5
EF
100
AcDbEntity
8
--workflow-10-do
6
ByLayer
62
256
370
-1
100
AcDbLine
10
157
20
175
11
157
21
179
0
LINE
5
F0
100
AcDbEntity
8
--workflow-10-do
6
ByLayer
62
256
370
-1
100
AcDbLine
10
157
20
179
11
143
21
179
0
LINE
5
F1
100
AcDbEntity
8
--workflow-10-do
6
ByLayer
62
256
370
-1
100
AcDbLine
10
143
20
179
11
157
21
175
0
LINE
5
F2
100
AcDbEntity
8
--workflow-10-do
6
ByLayer
62
256
370
-1
100
AcDbLine
10
157
20
179
11
143
21
175
0
LINE
5
F3
100
AcDbEntity
8
--workflow-10-do
6
ByLayer
62
256
370
-1
100
AcDbLine
10
138
20
185
11
138
21
181
0
LINE
5
F4
100
AcDbEntity
8
--workflow-10-do
6
ByLayer
62
256
370
-1
100
AcDbLine
10
138
20
181
11
155
21
181
0
LINE
5
F5
100
AcDbEntity
8
--workflow-10-do
6
ByLayer
62
256
370
-1
100
AcDbLine
10
155
20
181
11
155
21
185
0
LINE
5
F6
100
AcDbEntity
8
--workflow-10-do
6
ByLayer
62
256
370
-1
100
AcDbLine
10
155
20
185
11
138
21
185
0
LINE
5
F7
100
AcDbEntity
8
--workflow-10-do
6
ByLayer
62
256
370
-1
100
AcDbLine
10
138
20
185
11
155
21
181
0
LINE
5
F8
100
AcDbEntity
8
--workflow-10-do
6
ByLayer
62
256
370
-1
100
AcDbLine
10
155
20
185
11
138
21
181
0
LINE
5
F9
100
AcDbEntity
8
--workflow-10-do
6
ByLayer
62
256
370
-1
100
AcDbLine
10
137
20
181
11
137
21
185
0
LINE
5
FA
100
AcDbEntity
8
--modify-3-do
6
ByLayer
62
256
370
-1
100
AcDbLine
10
123
20
187
11
122
21
187
0
LINE
5
FB
100
AcDbEntity
8
--modify-3-do
6
ByLayer
62
256
370
-1
100
AcDbLine
10
122
20
187
11
122
21
123
0
LINE
5
FC
100
AcDbEntity
8
--workflow-10-do
6
ByLayer
62
256
370
-1
100
AcDbLine
10
123
20
185
11
123
21
181
0
LINE
5
FD
100
AcDbEntity
8
--workflow-10-do
6
ByLayer
62
256
370
-1
100
AcDbLine
10
137
20
185
11
123
21
185
0
LINE
5
FE
100
AcDbEntity
8
--workflow-10-do
6
ByLayer
62
256
370
-1
100
AcDbLine
10
123
20
181
11
137
21
181
0
LINE
5
FF
100
AcDbEntity
8
--workflow-10-do
6
ByLayer
62
256
370
-1
100
AcDbLine
10
123
20
185
11
137
21
181
0
LINE
5
100
100
AcDbEntity
8
--workflow-10-do
6
ByLayer
62
256
370
-1
100
AcDbLine
10
137
20
185
11
123
21
181
0
LINE
5
101
100
AcDbEntity
8
--workflow-10-do
6
ByLayer
62
256
370
-1
100
AcDbLine
10
122
20
123
11
141
21
123
0
LINE
5
102
100
AcDbEntity
8
--workflow-10-do
6
ByLayer
62
256
370
-1
100
AcDbLine
10
141
20
123
11
141
21
119
0
LINE
5
103
100
AcDbEntity
8
--workflow-10-do
6
ByLayer
62
256
370
-1
100
AcDbLine
10
141
20
119
11
122
21
119
0
LINE
5
104
100
AcDbEntity
8
--workflow-10-do
6
ByLayer
62
256
370
-1
100
AcDbLine
10
122
20
119
11
122
21
123
0
LINE
5
105
100
AcDbEntity
8
--workflow-11-do
6
ByLayer
62
256
370
-1
100
AcDbLine
10
81
20
123
11
81
21
119
0
LINE
5
106
100
AcDbEntity
8
--workflow-11-do
6
ByLayer
62
256
370
-1
100
AcDbLine
10
81
20
119
11
97
21
119
0
LINE
5
107
100
AcDbEntity
8
--workflow-11-do
6
ByLayer
62
256
370
-1
100
AcDbLine
10
97
20
119
11
97
21
123
0
LINE
5
108
100
AcDbEntity
8
--workflow-11-do
6
ByLayer
62
256
370
-1
100
AcDbLine
10
97
20
123
11
81
21
123
0
LINE
5
109
100
AcDbEntity
8
--workflow-11-do
6
ByLayer
62
256
370
-1
100
AcDbLine
10
98
20
181
11
111
21
181
0
LINE
5
10A
100
AcDbEntity
8
--workflow-11-do
6
ByLayer
62
256
370
-1
100
AcDbLine
10
111
20
181
11
111
21
185
0
LINE
5
10B
100
AcDbEntity
8
--workflow-11-do
6
ByLayer
62
256
370
-1
100
AcDbLine
10
111
20
185
11
98
21
185
0
LINE
5
10C
100
AcDbEntity
8
--workflow-11-do
6
ByLayer
62
256
370
-1
100
AcDbLine
10
98
20
185
11
111
21
181
0
LINE
5
10D
100
AcDbEntity
8
--workflow-11-do
6
ByLayer
62
256
370
-1
100
AcDbLine
10
111
20
185
11
98
21
181
0
LINE
5
10E
100
AcDbEntity
8
--workflow-11-do
6
ByLayer
62
256
370
-1
100
AcDbLine
10
100
20
179
11
100
21
175
0
LINE
5
10F
100
AcDbEntity
8
--workflow-11-do
6
ByLayer
62
256
370
-1
100
AcDbLine
10
100
20
175
11
111
21
175
0
LINE
5
110
100
AcDbEntity
8
--workflow-11-do
6
ByLayer
62
256
370
-1
100
AcDbLine
10
111
20
175
11
111
21
179
0
LINE
5
111
100
AcDbEntity
8
--workflow-11-do
6
ByLayer
62
256
370
-1
100
AcDbLine
10
111
20
179
11
100
21
179
0
LINE
5
112
100
AcDbEntity
8
--workflow-11-do
6
ByLayer
62
256
370
-1
100
AcDbLine
10
100
20
179
11
111
21
175
0
LINE
5
113
100
AcDbEntity
8
--workflow-11-do
6
ByLayer
62
256
370
-1
100
AcDbLine
10
111
20
179
11
100
21
175
0
LINE
5
114
100
AcDbEntity
8
--workflow-11-do
6
ByLayer
62
256
370
-1
100
AcDbLine
10
95
20
181
11
95
21
185
0
LINE
5
115
100
AcDbEntity
8
--modify-4-do
6
ByLayer
62
256
370
-1
100
AcDbLine
10
86
20
187
11
94
21
187
0
LINE
5
116
100
AcDbEntity
8
--modify-4-do
6
ByLayer
62
256
370
-1
100
AcDbLine
10
83
20
187
11
83
21
124
0
LINE
5
117
100
AcDbEntity
8
--modify-4-do
6
ByLayer
62
256
370
-1
100
AcDbLine
10
83
20
187
11
85
21
187
0
LINE
5
118
100
AcDbEntity
8
--workflow-11-do
6
ByLayer
62
256
370
-1
100
AcDbLine
10
84
20
185
11
95
21
181
0
LINE
5
119
100
AcDbEntity
8
--workflow-11-do
6
ByLayer
62
256
370
-1
100
AcDbLine
10
95
20
185
11
84
21
181
0
LINE
5
11A
100
AcDbEntity
8
--workflow-11-do
6
ByLayer
62
256
370
-1
100
AcDbLine
10
84
20
181
11
84
21
185
0
LINE
5
11B
100
AcDbEntity
8
--workflow-11-do
6
ByLayer
62
256
370
-1
100
AcDbLine
10
95
20
185
11
84
21
185
0
LINE
5
11C
100
AcDbEntity
8
--workflow-11-do
6
ByLayer
62
256
370
-1
100
AcDbLine
10
95
20
181
11
84
21
181
0
LINE
5
11D
100
AcDbEntity
8
--workflow-11-do
6
ByLayer
62
256
370
-1
100
AcDbLine
10
98
20
185
11
98
21
181
0
MTEXT
5
11E
100
AcDbEntity
8
--workflow-12-do
6
ByLayer
62
256
370
-1
100
AcDbMText
10
158
20
146
30
0
40
2
41
2.44444444444
71
5
72
1
1
7a
7
iso
210
0
220
0
230
1
50
0
73
2
44
1
0
LINE
5
11F
100
AcDbEntity
8
--workflow-12-do
6
ByLayer
62
256
370
-1
100
AcDbLine
10
156.5
20
143.5
11
156.5
21
148.5
0
LINE
5
120
100
AcDbEntity
8
--workflow-12-do
6
ByLayer
62
256
370
-1
100
AcDbLine
10
143.5
20
148.5
11
143.5
21
143.5
0
LINE
5
121
100
AcDbEntity
8
--workflow-12-do
6
ByLayer
62
256
370
-1
100
AcDbLine
10
156.5
20
148.5
11
143.5
21
148.5
0
LINE
5
122
100
AcDbEntity
8
--workflow-12-do
6
ByLayer
62
256
370
-1
100
AcDbLine
10
143.5
20
143.5
11
156.5
21
143.5
0
LINE
5
123
100
AcDbEntity
8
--workflow-12-do
6
ByLayer
62
256
370
-1
100
AcDbLine
10
155.5
20
180.5
11
155.5
21
185.5
0
LINE
5
124
100
AcDbEntity
8
--workflow-12-do
6
ByLayer
62
256
370
-1
100
AcDbLine
10
137.5
20
180.5
11
137.5
21
185.5
0
LINE
5
125
100
AcDbEntity
8
--workflow-12-do
6
ByLayer
62
256
370
-1
100
AcDbLine
10
155.5
20
185.5
11
137.5
21
185.5
0
LINE
5
126
100
AcDbEntity
8
--workflow-12-do
6
ByLayer
62
256
370
-1
100
AcDbLine
10
137.5
20
180.5
11
155.5
21
180.5
0
MTEXT
5
127
100
AcDbEntity
8
--workflow-13-do
6
ByLayer
62
256
370
-1
100
AcDbMText
10
117
20
142
30
0
40
2
41
2.44444444444
71
5
72
1
1
7a
7
iso
210
0
220
0
230
1
50
0
73
2
44
1
0
LINE
5
128
100
AcDbEntity
8
--workflow-13-do
6
ByLayer
62
256
370
-1
100
AcDbLine
10
117.5
20
143.5
11
117.5
21
148.5
0
LINE
5
129
100
AcDbEntity
8
--workflow-13-do
6
ByLayer
62
256
370
-1
100
AcDbLine
10
102.5
20
148.5
11
102.5
21
143.5
0
LINE
5
12A
100
AcDbEntity
8
--workflow-13-do
6
ByLayer
62
256
370
-1
100
AcDbLine
10
117.5
20
148.5
11
102.5
21
148.5
0
LINE
5
12B
100
AcDbEntity
8
--workflow-13-do
6
ByLayer
62
256
370
-1
100
AcDbLine
10
102.5
20
143.5
11
117.5
21
143.5
0
LINE
5
12C
100
AcDbEntity
8
--workflow-13-do
6
ByLayer
62
256
370
-1
100
AcDbLine
10
111.5
20
185.5
11
97.5
21
185.5
0
LINE
5
12D
100
AcDbEntity
8
--workflow-13-do
6
ByLayer
62
256
370
-1
100
AcDbLine
10
97.5
20
180.5
11
111.5
21
180.5
0
LINE
5
12E
100
AcDbEntity
8
--workflow-13-do
6
ByLayer
62
256
370
-1
100
AcDbLine
10
111.5
20
180.5
11
111.5
21
185.5
0
LINE
5
12F
100
AcDbEntity
8
--workflow-13-do
6
ByLayer
62
256
370
-1
100
AcDbLine
10
97.5
20
185.5
11
97.5
21
180.5
0
LINE
5
130
100
AcDbEntity
8
--workflow-14-do
6
ByLayer
62
256
370
-1
100
AcDbLine
10
129
20
148
11
142
21
148
0
LINE
5
131
100
AcDbEntity
8
--workflow-14-do
6
ByLayer
62
256
370
-1
100
AcDbLine
10
142
20
148
11
142
21
144
0
LINE
5
132
100
AcDbEntity
8
--workflow-14-do
6
ByLayer
62
256
370
-1
100
AcDbLine
10
142
20
144
11
129
21
144
0
LINE
5
133
100
AcDbEntity
8
--workflow-14-do
6
ByLayer
62
256
370
-1
100
AcDbLine
10
129
20
144
11
129
21
148
0
MTEXT
5
134
100
AcDbEntity
8
--workflow-14-do
6
ByLayer
62
256
370
-1
100
AcDbMText
10
126
20
147
30
0
40
2
41
3.55555555556
71
5
72
1
1
12a
7
iso
210
0
220
0
230
1
50
0
73
2
44
1
0
LINE
5
135
100
AcDbEntity
8
--workflow-14-do
6
ByLayer
62
256
370
-1
100
AcDbLine
10
131
20
174
11
131
21
149
0
LINE
5
136
100
AcDbEntity
8
--workflow-14-do
6
ByLayer
62
256
370
-1
100
AcDbLine
10
131
20
149
11
130
21
151
0
LINE
5
137
100
AcDbEntity
8
--workflow-14-do
6
ByLayer
62
256
370
-1
100
AcDbLine
10
130
20
151
11
132
21
151
0
LINE
5
138
100
AcDbEntity
8
--workflow-14-do
6
ByLayer
62
256
370
-1
100
AcDbLine
10
132
20
151
11
131
21
149
0
LINE
5
139
100
AcDbEntity
8
--workflow-15-do
6
ByLayer
62
256
370
-1
100
AcDbLine
10
84
20
148
11
84
21
144
0
LINE
5
13A
100
AcDbEntity
8
--workflow-15-do
6
ByLayer
62
256
370
-1
100
AcDbLine
10
84
20
144
11
97
21
144
0
LINE
5
13B
100
AcDbEntity
8
--workflow-15-do
6
ByLayer
62
256
370
-1
100
AcDbLine
10
97
20
144
11
97
21
148
0
LINE
5
13C
100
AcDbEntity
8
--workflow-15-do
6
ByLayer
62
256
370
-1
100
AcDbLine
10
97
20
148
11
84
21
148
0
LINE
5
13D
100
AcDbEntity
8
--workflow-15-do
6
ByLayer
62
256
370
-1
100
AcDbLine
10
86
20
175
11
86
21
148
0
LINE
5
13E
100
AcDbEntity
8
--workflow-15-do
6
ByLayer
62
256
370
-1
100
AcDbLine
10
86
20
148
11
85
21
150
0
LINE
5
13F
100
AcDbEntity
8
--workflow-15-do
6
ByLayer
62
256
370
-1
100
AcDbLine
10
85
20
150
11
87
21
150
0
LINE
5
140
100
AcDbEntity
8
--workflow-15-do
6
ByLayer
62
256
370
-1
100
AcDbLine
10
87
20
150
11
86
21
148
0
MTEXT
5
141
100
AcDbEntity
8
--workflow-15-do
6
ByLayer
62
256
370
-1
100
AcDbMText
10
87
20
142
30
0
40
2
41
3.55555555556
71
5
72
1
1
12a
7
iso
210
0
220
0
230
1
50
0
73
2
44
1
0
LINE
5
142
100
AcDbEntity
8
--workflow-15-do
6
ByLayer
62
256
370
-1
100
AcDbLine
10
95.5
20
180.5
11
95.5
21
185.5
0
LINE
5
143
100
AcDbEntity
8
--workflow-15-do
6
ByLayer
62
256
370
-1
100
AcDbLine
10
83.5
20
180.5
11
83.5
21
185.5
0
LINE
5
144
100
AcDbEntity
8
--workflow-15-do
6
ByLayer
62
256
370
-1
100
AcDbLine
10
95.5
20
185.5
11
83.5
21
185.5
0
LINE
5
145
100
AcDbEntity
8
--workflow-15-do
6
ByLayer
62
256
370
-1
100
AcDbLine
10
95.5
20
180.5
11
83.5
21
180.5
0
LINE
5
146
100
AcDbEntity
8
--workflow-14-do
6
ByLayer
62
256
370
-1
100
AcDbLine
10
137.5
20
185.5
11
122.5
21
185.5
0
LINE
5
147
100
AcDbEntity
8
--workflow-14-do
6
ByLayer
62
256
370
-1
100
AcDbLine
10
122.5
20
180.5
11
137.5
21
180.5
0
LINE
5
148
100
AcDbEntity
8
--workflow-14-do
6
ByLayer
62
256
370
-1
100
AcDbLine
10
122.5
20
185.5
11
122.5
21
180.5
0
LINE
5
149
100
AcDbEntity
8
--workflow-14-do
6
ByLayer
62
256
370
-1
100
AcDbLine
10
137.5
20
180.5
11
137.5
21
185.5
0
LINE
5
14A
100
AcDbEntity
8
--workflow-16-do
6
ByLayer
62
256
370
-1
100
AcDbLine
10
150
20
131
11
144
21
129
0
LINE
5
14B
100
AcDbEntity
8
--workflow-14-do
6
ByLayer
62
256
370
-1
100
AcDbLine
10
150
20
179
11
150
21
175
0
LINE
5
14C
100
AcDbEntity
8
--workflow-14-do
6
ByLayer
62
256
370
-1
100
AcDbLine
10
150
20
175
11
143
21
177
0
LINE
5
14D
100
AcDbEntity
8
--workflow-14-do
6
ByLayer
62
256
370
-1
100
AcDbLine
10
143
20
177
11
150
21
179
0
LINE
5
14E
100
AcDbEntity
8
--workflow-14-do
6
ByLayer
62
256
370
-1
100
AcDbLine
10
150
20
179
11
157
21
177
0
LINE
5
14F
100
AcDbEntity
8
--workflow-14-do
6
ByLayer
62
256
370
-1
100
AcDbLine
10
157
20
177
11
150
21
175
0
LINE
5
150
100
AcDbEntity
8
--workflow-14-do
6
ByLayer
62
256
370
-1
100
AcDbLine
10
143
20
177
11
157
21
177
0
LINE
5
151
100
AcDbEntity
8
--workflow-14-do
6
ByLayer
62
256
370
-1
100
AcDbLine
10
144
20
129
11
150
21
131
0
LINE
5
152
100
AcDbEntity
8
--workflow-14-do
6
ByLayer
62
256
370
-1
100
AcDbLine
10
150
20
131
11
150
21
127
0
LINE
5
153
100
AcDbEntity
8
--workflow-14-do
6
ByLayer
62
256
370
-1
100
AcDbLine
10
156
20
129
11
150
21
131
0
LINE
5
154
100
AcDbEntity
8
--workflow-14-do
6
ByLayer
62
256
370
-1
100
AcDbLine
10
144
20
129
11
150
21
127
0
LINE
5
155
100
AcDbEntity
8
--workflow-14-do
6
ByLayer
62
256
370
-1
100
AcDbLine
10
144
20
129
11
156
21
129
0
LINE
5
156
100
AcDbEntity
8
--workflow-14-do
6
ByLayer
62
256
370
-1
100
AcDbLine
10
156
20
129
11
150
21
127
0
LINE
5
157
100
AcDbEntity
8
--workflow-15-do
6
ByLayer
62
256
370
-1
100
AcDbLine
10
104
20
129
11
110
21
131
0
LINE
5
158
100
AcDbEntity
8
--workflow-15-do
6
ByLayer
62
256
370
-1
100
AcDbLine
10
110
20
131
11
117
21
129
0
LINE
5
159
100
AcDbEntity
8
--workflow-15-do
6
ByLayer
62
256
370
-1
100
AcDbLine
10
117
20
129
11
110
21
127
0
LINE
5
15A
100
AcDbEntity
8
--workflow-15-do
6
ByLayer
62
256
370
-1
100
AcDbLine
10
110
20
127
11
104
21
129
0
LINE
5
15B
100
AcDbEntity
8
--workflow-15-do
6
ByLayer
62
256
370
-1
100
AcDbLine
10
110
20
131
11
110
21
127
0
LINE
5
15C
100
AcDbEntity
8
--workflow-15-do
6
ByLayer
62
256
370
-1
100
AcDbLine
10
100
20
177
11
106
21
179
0
LINE
5
15D
100
AcDbEntity
8
--workflow-15-do
6
ByLayer
62
256
370
-1
100
AcDbLine
10
106
20
179
11
111
21
177
0
LINE
5
15E
100
AcDbEntity
8
--workflow-15-do
6
ByLayer
62
256
370
-1
100
AcDbLine
10
111
20
177
11
106
21
175
0
LINE
5
15F
100
AcDbEntity
8
--workflow-15-do
6
ByLayer
62
256
370
-1
100
AcDbLine
10
106
20
175
11
106
21
179
0
LINE
5
160
100
AcDbEntity
8
--workflow-15-do
6
ByLayer
62
256
370
-1
100
AcDbLine
10
106
20
175
11
100
21
177
0
LINE
5
161
100
AcDbEntity
8
--workflow-15-do
6
ByLayer
62
256
370
-1
100
AcDbLine
10
100
20
177
11
111
21
177
0
LINE
5
162
100
AcDbEntity
8
--workflow-15-do
6
ByLayer
62
256
370
-1
100
AcDbLine
10
104
20
129
11
117
21
129
0
MTEXT
5
163
100
AcDbEntity
8
--modify-2-do
6
ByLayer
62
256
370
-1
100
AcDbMText
10
202
20
191.283018868
30
0
40
2
41
51.0000010286
71
4
72
1
1
--modify-2: Korrektur default-school
7
iso
210
0
220
0
230
1
50
0
73
2
44
1
0
MTEXT
5
164
100
AcDbEntity
8
--modify-1-do
6
ByLayer
62
256
370
-1
100
AcDbMText
10
202
20
195
30
0
40
2
41
35.444445473
71
4
72
1
1
--modify-1: Korrektur bsz
7
iso
210
0
220
0
230
1
50
0
73
2
44
1
0
MTEXT
5
165
100
AcDbEntity
8
--add-do
6
ByLayer
62
256
370
-1
100
AcDbMText
10
202
20
203
30
0
40
2
41
41.388890946
71
4
72
1
1
--add: bsz and default-school
7
iso
210
0
220
0
230
1
50
0
73
2
44
1
0
LINE
5
166
100
AcDbEntity
8
--modify-1-do
6
ByLayer
62
256
370
-1
100
AcDbLine
10
135
20
148
11
203
21
194
0
LINE
5
167
100
AcDbEntity
8
--modify-1-do
6
ByLayer
62
256
370
-1
100
AcDbLine
10
203
20
194
11
141
21
130
0
LINE
5
168
100
AcDbEntity
8
--modify-1-do
6
ByLayer
62
256
370
-1
100
AcDbLine
10
152
20
131
11
203
21
194
0
LINE
5
169
100
AcDbEntity
8
--modify-2-do
6
ByLayer
62
256
370
-1
100
AcDbLine
10
97
20
146
11
203
21
190
0
LINE
5
16A
100
AcDbEntity
8
--modify-2-do
6
ByLayer
62
256
370
-1
100
AcDbLine
10
203
20
190
11
92
21
131
0
LINE
5
16B
100
AcDbEntity
8
--modify-2-do
6
ByLayer
62
256
370
-1
100
AcDbLine
10
117
20
130
11
203
21
190
0
MTEXT
5
16C
100
AcDbEntity
8
--modify-3-do
6
ByLayer
62
256
370
-1
100
AcDbMText
10
202
20
186
30
0
40
2
41
37.0000010286
71
4
72
1
1
--modify-3: bsz rolechange
7
iso
210
0
220
0
230
1
50
0
73
2
44
1
0
MTEXT
5
16D
100
AcDbEntity
8
--modify-4-do
6
ByLayer
62
256
370
-1
100
AcDbMText
10
202
20
182
30
0
40
2
41
52.3333343619
71
4
72
1
1
--modify-4: default-school rolechange
7
iso
210
0
220
0
230
1
50
0
73
2
44
1
0
MTEXT
5
16E
100
AcDbEntity
8
--modify-5-do
6
ByLayer
62
256
370
-1
100
AcDbMText
10
202
20
177
30
0
40
2
41
37.0000010286
71
4
72
1
1
--modify-5: bsz rolechange
7
iso
210
0
220
0
230
1
50
0
73
2
44
1
0
MTEXT
5
16F
100
AcDbEntity
8
--modify-6-do
6
ByLayer
62
256
370
-1
100
AcDbMText
10
202
20
173
30
0
40
2
41
52.1111121397
71
4
72
1
1
--modify-6: default-school rolechange
7
iso
210
0
220
0
230
1
50
0
73
2
44
1
0
MTEXT
5
170
100
AcDbEntity
8
--workflow-10-do
6
ByLayer
62
256
370
-1
100
AcDbMText
10
202
20
168
30
0
40
2
41
25.7222232508
71
4
72
1
1
--workflow-10: bsz
7
iso
210
0
220
0
230
1
50
0
73
2
44
1
0
MTEXT
5
171
100
AcDbEntity
8
--workflow-11-do
6
ByLayer
62
256
370
-1
100
AcDbMText
10
202
20
164
30
0
40
2
41
40.3888899175
71
4
72
1
1
--workflow-11: default-school
7
iso
210
0
220
0
230
1
50
0
73
2
44
1
0
MTEXT
5
172
100
AcDbEntity
8
--workflow-12-do
6
ByLayer
62
256
370
-1
100
AcDbMText
10
202
20
159
30
0
40
2
41
25.7222232508
71
4
72
1
1
--workflow-12: bsz
7
iso
210
0
220
0
230
1
50
0
73
2
44
1
0
MTEXT
5
173
100
AcDbEntity
8
--workflow-13-do
6
ByLayer
62
256
370
-1
100
AcDbMText
10
202
20
155
30
0
40
2
41
40.8333343619
71
4
72
1
1
--workflow-13: default-school
7
iso
210
0
220
0
230
1
50
0
73
2
44
1
0
MTEXT
5
174
100
AcDbEntity
8
--workflow-14-do
6
ByLayer
62
256
370
-1
100
AcDbMText
10
202
20
150
30
0
40
2
41
25.944445473
71
4
72
1
1
--workflow-14: bsz
7
iso
210
0
220
0
230
1
50
0
73
2
44
1
0
MTEXT
5
175
100
AcDbEntity
8
--workflow-15-do
6
ByLayer
62
256
370
-1
100
AcDbMText
10
202
20
146
30
0
40
2
41
40.8333343619
71
4
72
1
1
--workflow-15: default-school
7
iso
210
0
220
0
230
1
50
0
73
2
44
1
0
MTEXT
5
176
100
AcDbEntity
8
--workflow-16-do
6
ByLayer
62
256
370
-1
100
AcDbMText
10
202
20
141
30
0
40
2
41
60.0555573905
71
4
72
1
1
--workflow-16: clear bsz (alle T, bsz-attic)
7
iso
210
0
220
0
230
1
50
0
73
2
44
1
0
MTEXT
5
177
100
AcDbEntity
8
--workflow-17-do
6
ByLayer
62
256
370
-1
100
AcDbMText
10
202
20
137
30
0
40
2
41
68.9444452508
71
4
72
1
1
--workflow-17: clear default-school (alle T, attic)
7
iso
210
0
220
0
230
1
50
0
73
2
44
1
0
MTEXT
5
178
100
AcDbEntity
8
--workflow-18-do
6
ByLayer
62
256
370
-1
100
AcDbMText
10
202
20
133
30
0
40
2
41
53.8333341397
71
4
72
1
1
--workflow-18: clear bsz (alle D, attic)
7
iso
210
0
220
0
230
1
50
0
73
2
44
1
0
MTEXT
5
179
100
AcDbEntity
8
--workflow-19-do
6
ByLayer
62
256
370
-1
100
AcDbMText
10
202
20
129
30
0
40
2
41
68.9444452508
71
4
72
1
1
--workflow-19: clear default-school (alle D, attic)
7
iso
210
0
220
0
230
1
50
0
73
2
44
1
0
MTEXT
5
17A
100
AcDbEntity
8
--workflow-20-do
6
ByLayer
62
256
370
-1
100
AcDbMText
10
202
20
125
30
0
40
2
41
55.3333351683
71
4
72
1
1
--workflow-20: clear bsz (alle gelöscht)
7
iso
210
0
220
0
230
1
50
0
73
2
44
1
0
MTEXT
5
17B
100
AcDbEntity
8
--workflow-21-do
6
ByLayer
62
256
370
-1
100
AcDbMText
10
202
20
121
30
0
40
2
41
70.0000018349
71
4
72
1
1
--workflow-21: clear default-school (alle gelöscht)
7
iso
210
0
220
0
230
1
50
0
73
2
44
1
0
MTEXT
5
17C
100
AcDbEntity
8
--workflow-20-do
6
ByLayer
62
256
370
-1
100
AcDbMText
10
202
20
116
30
0
40
2
41
54.5000072
71
4
72
1
1
--kill-adminclasses-1: clear bsz classes
7
iso
210
0
220
0
230
1
50
0
73
2
44
1
0
MTEXT
5
17D
100
AcDbEntity
8
--workflow-21-do
6
ByLayer
62
256
370
-1
100
AcDbMText
10
202
20
112
30
0
40
2
41
70.0555627556
71
4
72
1
1
--kill-adminclasses-2: clear default-school classes
7
iso
210
0
220
0
230
1
50
0
73
2
44
1
0
ENDSEC
0
SECTION
2
OBJECTS
0
DICTIONARY
5
C
330
0
100
AcDbDictionary
281
1
3
ACAD_GROUP
350
D
0
DICTIONARY
5
D
330
C
100
AcDbDictionary
281
1
0
ENDSEC
0
EOF
