999
dxfrw 0.5.10
0
SECTION
2
HEADER
9
$ACADVER
1
AC1021
9
$HANDSEED
5
20000
9
$DWGCODEPAGE
3
ANSI_1252
9
$INSBASE
10
0
20
0
30
0
9
$EXTMIN
10
64.3041281962
20
127
30
0
9
$EXTMAX
10
270.000003214
20
201.25
30
0
9
$LIMMIN
10
0
20
0
9
$LIMMAX
10
420
20
297
9
$ORTHOMODE
70
0
9
$LTSCALE
40
1
9
$TEXTSTYLE
7
STANDARD
9
$CLAYER
8
admiclass
9
$DIMASZ
40
2.5
9
$DIMLFAC
40
1
9
$DIMSCALE
40
1
9
$DIMEXO
40
0.625
9
$DIMEXE
40
1.25
9
$DIMTXT
40
2.5
9
$DIMTSZ
40
0
9
$DIMAUNIT
70
0
9
$DIMADEC
70
0
9
$DIMLUNIT
70
2
9
$DIMSTYLE
2
STANDARD
9
$DIMGAP
40
0.625
9
$DIMTIH
70
0
9
$LUNITS
70
2
9
$LUPREC
70
4
9
$AUNITS
70
0
9
$AUPREC
70
2
9
$SPLINESEGS
70
8
9
$GRIDMODE
70
1
9
$SNAPSTYLE
70
0
9
$PINSBASE
10
0
20
0
30
0
9
$PLIMMIN
10
0
20
0
9
$PLIMMAX
10
210
20
297
9
$INSUNITS
70
4
9
$PSVPSCALE
40
1
0
ENDSEC
0
SECTION
2
CLASSES
0
ENDSEC
0
SECTION
2
TABLES
0
TABLE
2
VPORT
5
8
330
0
100
AcDbSymbolTable
70
1
0
VPORT
5
31
330
2
100
AcDbSymbolTableRecord
100
AcDbViewportTableRecord
2
*ACTIVE
70
0
10
0
20
0
11
1
21
1
12
147.263783903
22
121.049288339
13
0
23
0
14
10
24
10
15
10
25
10
16
0
26
0
36
1
17
0
27
0
37
0
40
164.997119137
41
1.53686396677
42
50
43
0
44
0
50
0
51
0
71
0
72
100
73
1
74
3
75
0
76
1
77
0
78
0
281
0
65
1
110
0
120
0
130
0
111
1
121
0
131
0
112
0
122
1
132
0
79
0
146
0
348
10020
60
7
61
5
292
1
282
1
141
0
142
0
63
250
421
3358443
0
ENDTAB
0
TABLE
2
LTYPE
5
5
330
0
100
AcDbSymbolTable
70
4
0
LTYPE
5
14
330
5
100
AcDbSymbolTableRecord
100
AcDbLinetypeTableRecord
2
ByBlock
70
0
3

72
65
73
0
40
0
0
LTYPE
5
15
330
5
100
AcDbSymbolTableRecord
100
AcDbLinetypeTableRecord
2
ByLayer
70
0
3

72
65
73
0
40
0
0
LTYPE
5
16
330
5
100
AcDbSymbolTableRecord
100
AcDbLinetypeTableRecord
2
Continuous
70
0
3
Solid line
72
65
73
0
40
0
0
LTYPE
5
32
330
5
100
AcDbSymbolTableRecord
100
AcDbLinetypeTableRecord
2
DOT
70
0
3
Dot . . . . . . . . . . . . . . . . . . . . . .
72
65
73
2
40
6.35
49
0
74
0
49
-6.35
74
0
0
LTYPE
5
33
330
5
100
AcDbSymbolTableRecord
100
AcDbLinetypeTableRecord
2
DOT2
70
0
3
Dot (.5x) .....................................
72
65
73
2
40
3.175
49
0
74
0
49
-3.175
74
0
0
LTYPE
5
34
330
5
100
AcDbSymbolTableRecord
100
AcDbLinetypeTableRecord
2
DOTX2
70
0
3
Dot (2x) .  .  .  .  .  .  .  .  .  .  .  .  .
72
65
73
2
40
12.7
49
0
74
0
49
-12.7
74
0
0
LTYPE
5
35
330
5
100
AcDbSymbolTableRecord
100
AcDbLinetypeTableRecord
2
DASHED
70
0
3
Dot . . . . . . . . . . . . . . . . . . . . . .
72
65
73
2
40
19.05
49
12.7
74
0
49
-6.35
74
0
0
LTYPE
5
36
330
5
100
AcDbSymbolTableRecord
100
AcDbLinetypeTableRecord
2
DASHED2
70
0
3
Dashed (.5x) _ _ _ _ _ _ _ _ _ _ _ _ _ _ _ _ _
72
65
73
2
40
9.525
49
6.35
74
0
49
-3.175
74
0
0
LTYPE
5
37
330
5
100
AcDbSymbolTableRecord
100
AcDbLinetypeTableRecord
2
DASHEDX2
70
0
3
Dashed (2x) ____  ____  ____  ____  ____  ___
72
65
73
2
40
38.1
49
25.4
74
0
49
-12.7
74
0
0
LTYPE
5
38
330
5
100
AcDbSymbolTableRecord
100
AcDbLinetypeTableRecord
2
DASHDOT
70
0
3
Dash dot __ . __ . __ . __ . __ . __ . __ . __
72
65
73
4
40
25.4
49
12.7
74
0
49
-6.35
74
0
49
0
74
0
49
-6.35
74
0
0
LTYPE
5
39
330
5
100
AcDbSymbolTableRecord
100
AcDbLinetypeTableRecord
2
DASHDOT2
70
0
3
Dash dot (.5x) _._._._._._._._._._._._._._._.
72
65
73
4
40
12.7
49
6.35
74
0
49
-3.175
74
0
49
0
74
0
49
-3.175
74
0
0
LTYPE
5
3A
330
5
100
AcDbSymbolTableRecord
100
AcDbLinetypeTableRecord
2
DASHDOTX2
70
0
3
Dash dot (2x) ____  .  ____  .  ____  .  ___
72
65
73
4
40
50.8
49
25.4
74
0
49
-12.7
74
0
49
0
74
0
49
-12.7
74
0
0
LTYPE
5
3B
330
5
100
AcDbSymbolTableRecord
100
AcDbLinetypeTableRecord
2
DIVIDE
70
0
3
Divide ____ . . ____ . . ____ . . ____ . . ____
72
65
73
6
40
31.75
49
12.7
74
0
49
-6.35
74
0
49
0
74
0
49
-6.35
74
0
49
0
74
0
49
-6.35
74
0
0
LTYPE
5
3C
330
5
100
AcDbSymbolTableRecord
100
AcDbLinetypeTableRecord
2
DIVIDE2
70
0
3
Divide (.5x) __..__..__..__..__..__..__..__.._
72
65
73
6
40
15.875
49
6.35
74
0
49
-3.175
74
0
49
0
74
0
49
-3.175
74
0
49
0
74
0
49
-3.175
74
0
0
LTYPE
5
3D
330
5
100
AcDbSymbolTableRecord
100
AcDbLinetypeTableRecord
2
DIVIDEX2
70
0
3
Divide (2x) ________  .  .  ________  .  .  _
72
65
73
6
40
63.5
49
25.4
74
0
49
-12.7
74
0
49
0
74
0
49
-12.7
74
0
49
0
74
0
49
-12.7
74
0
0
LTYPE
5
3E
330
5
100
AcDbSymbolTableRecord
100
AcDbLinetypeTableRecord
2
BORDER
70
0
3
Border __ __ . __ __ . __ __ . __ __ . __ __ .
72
65
73
6
40
44.45
49
12.7
74
0
49
-6.35
74
0
49
12.7
74
0
49
-6.35
74
0
49
0
74
0
49
-6.35
74
0
0
LTYPE
5
3F
330
5
100
AcDbSymbolTableRecord
100
AcDbLinetypeTableRecord
2
BORDER2
70
0
3
Border (.5x) __.__.__.__.__.__.__.__.__.__.__.
72
65
73
6
40
22.225
49
6.35
74
0
49
-3.175
74
0
49
6.35
74
0
49
-3.175
74
0
49
0
74
0
49
-3.175
74
0
0
LTYPE
5
40
330
5
100
AcDbSymbolTableRecord
100
AcDbLinetypeTableRecord
2
BORDERX2
70
0
3
Border (2x) ____  ____  .  ____  ____  .  ___
72
65
73
6
40
88.9
49
25.4
74
0
49
-12.7
74
0
49
25.4
74
0
49
-12.7
74
0
49
0
74
0
49
-12.7
74
0
0
LTYPE
5
41
330
5
100
AcDbSymbolTableRecord
100
AcDbLinetypeTableRecord
2
CENTER
70
0
3
Center ____ _ ____ _ ____ _ ____ _ ____ _ ____
72
65
73
4
40
50.8
49
31.75
74
0
49
-6.35
74
0
49
6.35
74
0
49
-6.35
74
0
0
LTYPE
5
42
330
5
100
AcDbSymbolTableRecord
100
AcDbLinetypeTableRecord
2
CENTER2
70
0
3
Center (.5x) ___ _ ___ _ ___ _ ___ _ ___ _ ___
72
65
73
4
40
28.575
49
19.05
74
0
49
-3.175
74
0
49
3.175
74
0
49
-3.175
74
0
0
LTYPE
5
43
330
5
100
AcDbSymbolTableRecord
100
AcDbLinetypeTableRecord
2
CENTERX2
70
0
3
Center (2x) ________  __  ________  __  _____
72
65
73
4
40
101.6
49
63.5
74
0
49
-12.7
74
0
49
12.7
74
0
49
-12.7
74
0
0
ENDTAB
0
TABLE
2
LAYER
5
2
330
0
100
AcDbSymbolTable
70
1
0
LAYER
5
10
330
2
100
AcDbSymbolTableRecord
100
AcDbLayerTableRecord
2
0
70
0
62
7
6
CONTINUOUS
370
0
390
F
0
LAYER
5
44
330
2
100
AcDbSymbolTableRecord
100
AcDbLayerTableRecord
2
school
70
0
62
1
6
CONTINUOUS
370
25
390
F
0
LAYER
5
45
330
2
100
AcDbSymbolTableRecord
100
AcDbLayerTableRecord
2
teacherclass
70
0
62
96
420
32768
6
CONTINUOUS
370
25
390
F
0
LAYER
5
46
330
2
100
AcDbSymbolTableRecord
100
AcDbLayerTableRecord
2
teacher_home
70
0
62
216
420
8388736
6
CONTINUOUS
370
25
390
F
0
LAYER
5
47
330
2
100
AcDbSymbolTableRecord
100
AcDbLayerTableRecord
2
project
70
0
62
56
420
8421376
6
CONTINUOUS
370
25
390
F
0
LAYER
5
48
330
2
100
AcDbSymbolTableRecord
100
AcDbLayerTableRecord
2
administrator_home
70
0
62
136
420
32896
6
CONTINUOUS
370
25
390
F
0
LAYER
5
49
330
2
100
AcDbSymbolTableRecord
100
AcDbLayerTableRecord
2
admiclass
70
0
62
16
420
8388608
6
CONTINUOUS
370
25
390
F
0
LAYER
5
4A
330
2
100
AcDbSymbolTableRecord
100
AcDbLayerTableRecord
2
student_home
70
0
62
6
6
CONTINUOUS
370
25
390
F
0
ENDTAB
0
TABLE
2
STYLE
5
3
330
0
100
AcDbSymbolTable
70
3
0
STYLE
5
4B
330
2
100
AcDbSymbolTableRecord
100
AcDbTextStyleTableRecord
2
iso
70
0
40
0
41
1
50
0
71
0
42
1
3
iso
4

0
STYLE
5
4C
330
2
100
AcDbSymbolTableRecord
100
AcDbTextStyleTableRecord
2
Standard
70
0
40
0
41
1
50
0
71
0
42
1
3
txt
4

0
ENDTAB
0
TABLE
2
VIEW
5
6
330
0
100
AcDbSymbolTable
70
0
0
ENDTAB
0
TABLE
2
UCS
5
7
330
0
100
AcDbSymbolTable
70
0
0
ENDTAB
0
TABLE
2
APPID
5
9
330
0
100
AcDbSymbolTable
70
1
0
APPID
5
12
330
9
100
AcDbSymbolTableRecord
100
AcDbRegAppTableRecord
2
ACAD
70
0
0
ENDTAB
0
TABLE
2
DIMSTYLE
5
A
330
0
100
AcDbSymbolTable
70
1
100
AcDbDimStyleTable
71
1
0
DIMSTYLE
105
4D
330
A
100
AcDbSymbolTableRecord
100
AcDbDimStyleTableRecord
2
Standard
70
0
40
1
41
2.5
42
0.625
43
0.38
44
1.25
45
0
46
0
47
0
48
0
140
2.5
141
0.09
142
0
143
25.4
144
1
145
0
146
1
147
0.625
148
0
71
0
72
0
73
0
74
1
75
0
76
0
77
0
78
0
79
0
170
0
171
2
172
0
173
0
174
0
175
0
176
0
177
0
178
0
179
0
271
4
272
4
273
2
274
2
275
0
276
0
277
2
278
46
279
0
280
0
281
0
282
0
283
1
284
0
285
0
286
0
288
0
289
3
340
Standard
341

371
-2
372
-2
0
ENDTAB
0
TABLE
2
BLOCK_RECORD
5
1
330
0
100
AcDbSymbolTable
70
2
0
BLOCK_RECORD
5
1F
330
1
100
AcDbSymbolTableRecord
100
AcDbBlockTableRecord
2
*Model_Space
70
0
280
1
281
0
0
BLOCK_RECORD
5
1E
330
1
100
AcDbSymbolTableRecord
100
AcDbBlockTableRecord
2
*Paper_Space
70
0
280
1
281
0
0
ENDTAB
0
ENDSEC
0
SECTION
2
BLOCKS
0
BLOCK
5
20
330
1F
100
AcDbEntity
8
0
100
AcDbBlockBegin
2
*Model_Space
70
0
10
0
20
0
30
0
3
*Model_Space
1

0
ENDBLK
5
21
330
1F
100
AcDbEntity
8
0
100
AcDbBlockEnd
0
BLOCK
5
1C
330
1B
100
AcDbEntity
8
0
100
AcDbBlockBegin
2
*Paper_Space
70
0
10
0
20
0
30
0
3
*Paper_Space
1

0
ENDBLK
5
1D
330
1F
100
AcDbEntity
8
0
100
AcDbBlockEnd
0
ENDSEC
0
SECTION
2
ENTITIES
0
MTEXT
5
4E
100
AcDbEntity
8
school
6
ByLayer
62
256
370
-1
100
AcDbMText
10
160
20
180
30
0
40
2.5
41
21.3888888889
71
5
72
1
1
management/
7
iso
210
0
220
0
230
1
50
0
73
2
44
1
0
MTEXT
5
4F
100
AcDbEntity
8
school
6
ByLayer
62
256
370
-1
100
AcDbMText
10
130
20
180
30
0
40
2.5
41
13.3333333333
71
5
72
1
1
project/
7
iso
210
0
220
0
230
1
50
0
73
2
44
1
0
LINE
5
50
100
AcDbEntity
8
school
6
ByLayer
62
256
370
-1
100
AcDbLine
10
200
20
197
11
160
21
193
0
LINE
5
51
100
AcDbEntity
8
school
6
ByLayer
62
256
370
-1
100
AcDbLine
10
160
20
187
11
160
21
182
0
LINE
5
52
100
AcDbEntity
8
school
6
ByLayer
62
256
370
-1
100
AcDbLine
10
160
20
187
11
190
21
182
0
LINE
5
53
100
AcDbEntity
8
school
6
ByLayer
62
256
370
-1
100
AcDbLine
10
160
20
187
11
130
21
182
0
LINE
5
54
100
AcDbEntity
8
teacherclass
6
ByLayer
62
256
370
-1
100
AcDbLine
10
160
20
187
11
100
21
182
0
MTEXT
5
55
100
AcDbEntity
8
teacherclass
6
ByLayer
62
256
370
-1
100
AcDbMText
10
100
20
180
30
0
40
2.5
41
22.5000025714
71
5
72
1
1
teacherclass/
7
iso
210
0
220
0
230
1
50
0
73
2
44
1
0
MTEXT
5
56
100
AcDbEntity
8
teacherclass
6
ByLayer
62
256
370
-1
100
AcDbMText
10
90
20
170
30
0
40
2.5
41
11.3888901746
71
5
72
1
1
homes/
7
iso
210
0
220
0
230
1
50
0
73
2
44
1
0
MTEXT
5
57
100
AcDbEntity
8
teacherclass
6
ByLayer
62
256
370
-1
100
AcDbMText
10
110
20
170
30
0
40
2.5
41
10.5565079856
71
5
72
1
1
share/
7
iso
210
0
220
0
230
1
50
0
73
2
44
1
0
MTEXT
5
58
100
AcDbEntity
8
teacher_home
6
ByLayer
62
256
370
-1
100
AcDbMText
10
100
20
160
30
0
40
2.5
41
15.8333333333
71
5
72
1
1
teacher2/
7
iso
210
0
220
0
230
1
50
0
73
2
44
1
0
MTEXT
5
59
100
AcDbEntity
8
teacher_home
6
ByLayer
62
256
370
-1
100
AcDbMText
10
90
20
150
30
0
40
2.5
41
11.389841319
71
5
72
1
1
subdir/
7
iso
210
0
220
0
230
1
50
0
73
2
44
1
0
LINE
5
5A
100
AcDbEntity
8
teacher_home
6
ByLayer
62
256
370
-1
100
AcDbLine
10
90
20
167
11
100
21
162
0
LINE
5
5B
100
AcDbEntity
8
teacher_home
6
ByLayer
62
256
370
-1
100
AcDbLine
10
100
20
157
11
90
21
152
0
MTEXT
5
5C
100
AcDbEntity
8
project
6
ByLayer
62
256
370
-1
100
AcDbMText
10
125
20
170
30
0
40
2.5
41
8.33333333333
71
5
72
1
1
p_1/
7
iso
210
0
220
0
230
1
50
0
73
2
44
1
0
LINE
5
5D
100
AcDbEntity
8
project
6
ByLayer
62
256
370
-1
100
AcDbLine
10
130
20
177
11
125
21
172
0
LINE
5
5E
100
AcDbEntity
8
teacherclass
6
ByLayer
62
256
370
-1
100
AcDbLine
10
100
20
177
11
90
21
172
0
LINE
5
5F
100
AcDbEntity
8
teacherclass
6
ByLayer
62
256
370
-1
100
AcDbLine
10
100
20
177
11
110
21
172
0
MTEXT
5
60
100
AcDbEntity
8
administrator_home
6
ByLayer
62
256
370
-1
100
AcDbMText
10
150
20
160
30
0
40
2.5
41
11.6666666667
71
5
72
1
1
admin1/
7
iso
210
0
220
0
230
1
50
0
73
2
44
1
0
MTEXT
5
61
100
AcDbEntity
8
administrator_home
6
ByLayer
62
256
370
-1
100
AcDbMText
10
140
20
150
30
0
40
2.5
41
11.389841319
71
5
72
1
1
subdir/
7
iso
210
0
220
0
230
1
50
0
73
2
44
1
0
LINE
5
62
100
AcDbEntity
8
administrator_home
6
ByLayer
62
256
370
-1
100
AcDbLine
10
150
20
157
11
140
21
152
0
LINE
5
63
100
AcDbEntity
8
administrator_home
6
ByLayer
62
256
370
-1
100
AcDbLine
10
150
20
162
11
160
21
177
0
MTEXT
5
64
100
AcDbEntity
8
project
6
ByLayer
62
256
370
-1
100
AcDbMText
10
125
20
160
30
0
40
2.5
41
15.2777777778
71
5
72
1
1
--project
7
iso
210
0
220
0
230
1
50
0
73
2
44
1
0
MTEXT
5
65
100
AcDbEntity
8
school
6
ByLayer
62
256
370
-1
100
AcDbMText
10
147
20
198
30
0
40
2.5
41
13.6111123968
71
5
72
1
1
--school
7
iso
210
0
220
0
230
1
50
0
73
2
44
1
0
MTEXT
5
66
100
AcDbEntity
8
teacherclass
6
ByLayer
62
256
370
-1
100
AcDbMText
10
100
20
190
30
0
40
2.5
41
24.4444470159
71
5
72
1
1
--teacherclass
7
iso
210
0
220
0
230
1
50
0
73
2
44
1
0
LINE
5
67
100
AcDbEntity
8
teacherclass
6
ByLayer
62
256
370
-1
100
AcDbLine
10
86
20
187
11
115
21
187
0
LINE
5
68
100
AcDbEntity
8
teacherclass
6
ByLayer
62
256
370
-1
100
AcDbLine
10
115
20
187
11
115
21
193
0
LINE
5
69
100
AcDbEntity
8
teacherclass
6
ByLayer
62
256
370
-1
100
AcDbLine
10
115
20
193
11
86
21
193
0
LINE
5
6A
100
AcDbEntity
8
teacherclass
6
ByLayer
62
256
370
-1
100
AcDbLine
10
86
20
193
11
86
21
187
0
LINE
5
6B
100
AcDbEntity
8
teacher_home
6
ByLayer
62
256
370
-1
100
AcDbLine
10
74
20
137
11
106
21
137
0
LINE
5
6C
100
AcDbEntity
8
teacher_home
6
ByLayer
62
256
370
-1
100
AcDbLine
10
106
20
137
11
106
21
143
0
LINE
5
6D
100
AcDbEntity
8
teacher_home
6
ByLayer
62
256
370
-1
100
AcDbLine
10
106
20
143
11
74
21
143
0
LINE
5
6E
100
AcDbEntity
8
teacher_home
6
ByLayer
62
256
370
-1
100
AcDbLine
10
74
20
143
11
74
21
137
0
LINE
5
6F
100
AcDbEntity
8
school
6
ByLayer
62
256
370
-1
100
AcDbLine
10
138
20
195
11
156
21
195
0
LINE
5
70
100
AcDbEntity
8
school
6
ByLayer
62
256
370
-1
100
AcDbLine
10
156
20
195
11
156
21
201
0
LINE
5
71
100
AcDbEntity
8
school
6
ByLayer
62
256
370
-1
100
AcDbLine
10
156
20
201
11
138
21
201
0
LINE
5
72
100
AcDbEntity
8
school
6
ByLayer
62
256
370
-1
100
AcDbLine
10
138
20
201
11
138
21
195
0
LINE
5
73
100
AcDbEntity
8
project
6
ByLayer
62
256
370
-1
100
AcDbLine
10
115
20
157
11
135
21
157
0
LINE
5
74
100
AcDbEntity
8
project
6
ByLayer
62
256
370
-1
100
AcDbLine
10
135
20
157
11
135
21
163
0
LINE
5
75
100
AcDbEntity
8
project
6
ByLayer
62
256
370
-1
100
AcDbLine
10
135
20
163
11
115
21
163
0
LINE
5
76
100
AcDbEntity
8
project
6
ByLayer
62
256
370
-1
100
AcDbLine
10
115
20
163
11
115
21
157
0
LINE
5
77
100
AcDbEntity
8
administrator_home
6
ByLayer
62
256
370
-1
100
AcDbLine
10
119
20
137
11
161
21
137
0
LINE
5
78
100
AcDbEntity
8
administrator_home
6
ByLayer
62
256
370
-1
100
AcDbLine
10
161
20
137
11
161
21
143
0
LINE
5
79
100
AcDbEntity
8
administrator_home
6
ByLayer
62
256
370
-1
100
AcDbLine
10
161
20
143
11
119
21
143
0
LINE
5
7A
100
AcDbEntity
8
administrator_home
6
ByLayer
62
256
370
-1
100
AcDbLine
10
119
20
143
11
119
21
137
0
MTEXT
5
7B
100
AcDbEntity
8
teacher_home
6
ByLayer
62
9
370
-1
100
AcDbMText
10
80
20
160
30
0
40
2.5
41
15.2777777778
71
5
72
1
1
teacher1/
7
iso
210
0
220
0
230
1
50
0
73
2
44
1
0
MTEXT
5
7C
100
AcDbEntity
8
teacher_home
6
ByLayer
62
9
370
-1
100
AcDbMText
10
70
20
150
30
0
40
2.5
41
11.389841319
71
5
72
1
1
subdir/
7
iso
210
0
220
0
230
1
50
0
73
2
44
1
0
LINE
5
7D
100
AcDbEntity
8
teacher_home
6
ByLayer
62
9
370
-1
100
AcDbLine
10
80
20
157
11
70
21
152
0
LINE
5
7E
100
AcDbEntity
8
teacher_home
6
ByLayer
62
9
370
-1
100
AcDbLine
10
90
20
167
11
80
21
162
0
MTEXT
5
7F
100
AcDbEntity
8
project
6
ByLayer
62
9
370
-1
100
AcDbMText
10
136
20
170
30
0
40
2.5
41
8.88888888889
71
5
72
1
1
p_2/
7
iso
210
0
220
0
230
1
50
0
73
2
44
1
0
LINE
5
80
100
AcDbEntity
8
project
6
ByLayer
62
9
370
-1
100
AcDbLine
10
130
20
177
11
135
21
172
0
MTEXT
5
81
100
AcDbEntity
8
administrator_home
6
ByLayer
62
9
370
-1
100
AcDbMText
10
170
20
160
30
0
40
2.5
41
12.2222222222
71
5
72
1
1
admin2/
7
iso
210
0
220
0
230
1
50
0
73
2
44
1
0
MTEXT
5
82
100
AcDbEntity
8
administrator_home
6
ByLayer
62
9
370
-1
100
AcDbMText
10
160
20
150
30
0
40
2.5
41
11.389841319
71
5
72
1
1
subdir/
7
iso
210
0
220
0
230
1
50
0
73
2
44
1
0
LINE
5
83
100
AcDbEntity
8
administrator_home
6
ByLayer
62
9
370
-1
100
AcDbLine
10
170
20
157
11
160
21
152
0
LINE
5
84
100
AcDbEntity
8
administrator_home
6
ByLayer
62
9
370
-1
100
AcDbLine
10
160
20
177
11
170
21
162
0
LINE
5
85
100
AcDbEntity
8
school
6
ByLayer
62
9
370
-1
100
AcDbLine
10
200
20
197
11
240
21
193
0
MTEXT
5
86
100
AcDbEntity
8
teacher_home
6
ByLayer
62
256
370
-1
100
AcDbMText
10
90
20
140
30
0
40
2.5
41
26.1111111111
71
5
72
1
1
--teacher-home
7
iso
210
0
220
0
230
1
50
0
73
2
44
1
0
MTEXT
5
87
100
AcDbEntity
8
administrator_home
6
ByLayer
62
256
370
-1
100
AcDbMText
10
140
20
140
30
0
40
2.5
41
35.8333346191
71
5
72
1
1
--administrator-home
7
iso
210
0
220
0
230
1
50
0
73
2
44
1
0
MTEXT
5
88
100
AcDbEntity
8
school
6
ByLayer
62
256
370
-1
100
AcDbMText
10
200
20
200
30
0
40
2.5
41
33.3333384762
71
5
72
1
1
/srv/samba/schools
7
iso
210
0
220
0
230
1
50
0
73
2
44
1
0
MTEXT
5
89
100
AcDbEntity
8
school
6
ByLayer
62
256
370
-1
100
AcDbMText
10
160
20
190
30
0
40
2.5
41
41.1111175397
71
5
72
1
1
/srv/samba/schools/bsz
7
iso
210
0
220
0
230
1
50
0
73
2
44
1
0
MTEXT
5
8A
100
AcDbEntity
8
school
6
ByLayer
62
9
370
-1
100
AcDbMText
10
230
20
190
30
0
40
2.5
41
60.0000064286
71
5
72
1
1
/srv/samba/schools/default-school
7
iso
210
0
220
0
230
1
50
0
73
2
44
1
0
MTEXT
5
8B
100
AcDbEntity
8
school
6
ByLayer
62
256
370
-1
100
AcDbMText
10
200
20
180
30
0
40
2.5
41
16.1120648269
71
5
72
1
1
students/
7
iso
210
0
220
0
230
1
50
0
73
2
44
1
0
MTEXT
5
8C
100
AcDbEntity
8
admiclass
6
ByLayer
62
256
370
-1
100
AcDbMText
10
200
20
160
30
0
40
2.5
41
11.3888901746
71
5
72
1
1
homes/
7
iso
210
0
220
0
230
1
50
0
73
2
44
1
0
MTEXT
5
8D
100
AcDbEntity
8
admiclass
6
ByLayer
62
256
370
-1
100
AcDbMText
10
220
20
160
30
0
40
2.5
41
10.5565079856
71
5
72
1
1
share/
7
iso
210
0
220
0
230
1
50
0
73
2
44
1
0
LINE
5
8E
100
AcDbEntity
8
admiclass
6
ByLayer
62
256
370
-1
100
AcDbLine
10
210
20
167
11
200
21
162
0
LINE
5
8F
100
AcDbEntity
8
admiclass
6
ByLayer
62
256
370
-1
100
AcDbLine
10
210
20
167
11
220
21
162
0
LINE
5
90
100
AcDbEntity
8
admiclass
6
ByLayer
62
256
370
-1
100
AcDbLine
10
200
20
177
11
210
21
172
0
MTEXT
5
91
100
AcDbEntity
8
admiclass
6
ByLayer
62
256
370
-1
100
AcDbMText
10
210
20
170
30
0
40
2.5
41
20.2777803492
71
5
72
1
1
adminclass1/
7
iso
210
0
220
0
230
1
50
0
73
2
44
1
0
MTEXT
5
92
100
AcDbEntity
8
student_home
6
ByLayer
62
256
370
-1
100
AcDbMText
10
200
20
140
30
0
40
2.5
41
11.389841319
71
5
72
1
1
subdir/
7
iso
210
0
220
0
230
1
50
0
73
2
44
1
0
LINE
5
93
100
AcDbEntity
8
student_home
6
ByLayer
62
256
370
-1
100
AcDbLine
10
200
20
157
11
210
21
152
0
LINE
5
94
100
AcDbEntity
8
student_home
6
ByLayer
62
256
370
-1
100
AcDbLine
10
210
20
147
11
200
21
142
0
MTEXT
5
95
100
AcDbEntity
8
student_home
6
ByLayer
62
256
370
-1
100
AcDbMText
10
210
20
150
30
0
40
2.5
41
16.1120635412
71
5
72
1
1
student2/
7
iso
210
0
220
0
230
1
50
0
73
2
44
1
0
MTEXT
5
96
100
AcDbEntity
8
admiclass
6
ByLayer
62
256
370
-1
100
AcDbMText
10
230
20
180
30
0
40
2.5
41
20.8333359048
71
5
72
1
1
--adminclass
7
iso
210
0
220
0
230
1
50
0
73
2
44
1
0
LINE
5
97
100
AcDbEntity
8
student_home
6
ByLayer
62
256
370
-1
100
AcDbLine
10
184
20
127
11
216
21
127
0
LINE
5
98
100
AcDbEntity
8
student_home
6
ByLayer
62
256
370
-1
100
AcDbLine
10
216
20
127
11
216
21
133
0
LINE
5
99
100
AcDbEntity
8
student_home
6
ByLayer
62
256
370
-1
100
AcDbLine
10
216
20
133
11
184
21
133
0
LINE
5
9A
100
AcDbEntity
8
student_home
6
ByLayer
62
256
370
-1
100
AcDbLine
10
184
20
133
11
184
21
127
0
LINE
5
9B
100
AcDbEntity
8
admiclass
6
ByLayer
62
256
370
-1
100
AcDbLine
10
218
20
177
11
243
21
177
0
LINE
5
9C
100
AcDbEntity
8
admiclass
6
ByLayer
62
256
370
-1
100
AcDbLine
10
243
20
177
11
243
21
183
0
LINE
5
9D
100
AcDbEntity
8
admiclass
6
ByLayer
62
256
370
-1
100
AcDbLine
10
243
20
183
11
218
21
183
0
LINE
5
9E
100
AcDbEntity
8
admiclass
6
ByLayer
62
256
370
-1
100
AcDbLine
10
218
20
183
11
218
21
177
0
MTEXT
5
9F
100
AcDbEntity
8
admiclass
6
ByLayer
62
9
370
-1
100
AcDbMText
10
236
20
160
30
0
40
2.5
41
11.3888901746
71
5
72
1
1
homes/
7
iso
210
0
220
0
230
1
50
0
73
2
44
1
0
MTEXT
5
A0
100
AcDbEntity
8
admiclass
6
ByLayer
62
9
370
-1
100
AcDbMText
10
256
20
160
30
0
40
2.5
41
10.5565079856
71
5
72
1
1
share/
7
iso
210
0
220
0
230
1
50
0
73
2
44
1
0
LINE
5
A1
100
AcDbEntity
8
admiclass
6
ByLayer
62
9
370
-1
100
AcDbLine
10
246
20
167
11
236
21
162
0
LINE
5
A2
100
AcDbEntity
8
admiclass
6
ByLayer
62
9
370
-1
100
AcDbLine
10
246
20
167
11
256
21
162
0
LINE
5
A3
100
AcDbEntity
8
admiclass
6
ByLayer
62
9
370
-1
100
AcDbLine
10
200
20
177
11
246
21
172
0
MTEXT
5
A4
100
AcDbEntity
8
admiclass
6
ByLayer
62
9
370
-1
100
AcDbMText
10
246
20
170
30
0
40
2.5
41
20.8333359048
71
5
72
1
1
adminclass2/
7
iso
210
0
220
0
230
1
50
0
73
2
44
1
0
MTEXT
5
A5
100
AcDbEntity
8
student_home
6
ByLayer
62
9
370
-1
100
AcDbMText
10
180
20
140
30
0
40
2.5
41
11.389841319
71
5
72
1
1
subdir/
7
iso
210
0
220
0
230
1
50
0
73
2
44
1
0
LINE
5
A6
100
AcDbEntity
8
student_home
6
ByLayer
62
9
370
-1
100
AcDbLine
10
190
20
147
11
180
21
142
0
LINE
5
A7
100
AcDbEntity
8
student_home
6
ByLayer
62
9
370
-1
100
AcDbLine
10
200
20
157
11
190
21
152
0
MTEXT
5
A8
100
AcDbEntity
8
student_home
6
ByLayer
62
9
370
-1
100
AcDbMText
10
190
20
150
30
0
40
2.5
41
15.5565079856
71
5
72
1
1
student1/
7
iso
210
0
220
0
230
1
50
0
73
2
44
1
0
MTEXT
5
A9
100
AcDbEntity
8
student_home
6
ByLayer
62
9
370
-1
100
AcDbMText
10
221
20
140
30
0
40
2.5
41
11.389841319
71
5
72
1
1
subdir/
7
iso
210
0
220
0
230
1
50
0
73
2
44
1
0
MTEXT
5
AA
100
AcDbEntity
8
student_home
6
ByLayer
62
9
370
-1
100
AcDbMText
10
241
20
140
30
0
40
2.5
41
11.389841319
71
5
72
1
1
subdir/
7
iso
210
0
220
0
230
1
50
0
73
2
44
1
0
LINE
5
AB
100
AcDbEntity
8
student_home
6
ByLayer
62
9
370
-1
100
AcDbLine
10
231
20
147
11
221
21
142
0
LINE
5
AC
100
AcDbEntity
8
student_home
6
ByLayer
62
9
370
-1
100
AcDbLine
10
251
20
147
11
241
21
142
0
MTEXT
5
AD
100
AcDbEntity
8
student_home
6
ByLayer
62
9
370
-1
100
AcDbMText
10
231
20
150
30
0
40
2.5
41
16.1120635412
71
5
72
1
1
student3/
7
iso
210
0
220
0
230
1
50
0
73
2
44
1
0
MTEXT
5
AE
100
AcDbEntity
8
student_home
6
ByLayer
62
9
370
-1
100
AcDbMText
10
251
20
150
30
0
40
2.5
41
16.389841319
71
5
72
1
1
student4/
7
iso
210
0
220
0
230
1
50
0
73
2
44
1
0
LINE
5
AF
100
AcDbEntity
8
student_home
6
ByLayer
62
9
370
-1
100
AcDbLine
10
236
20
157
11
231
21
152
0
LINE
5
B0
100
AcDbEntity
8
student_home
6
ByLayer
62
9
370
-1
100
AcDbLine
10
236
20
157
11
251
21
152
0
MTEXT
5
B1
100
AcDbEntity
8
student_home
6
ByLayer
62
256
370
-1
100
AcDbMText
10
200
20
130
30
0
40
2.5
41
26.3888901746
71
5
72
1
1
--student-home
7
iso
210
0
220
0
230
1
50
0
73
2
44
1
0
ENDSEC
0
SECTION
2
OBJECTS
0
DICTIONARY
5
C
330
0
100
AcDbDictionary
281
1
3
ACAD_GROUP
350
D
0
DICTIONARY
5
D
330
C
100
AcDbDictionary
281
1
0
ENDSEC
0
EOF
